<svg width="100%" height="100%" viewBox="-100 210 900 800" fill="none" xmlns="http://www.w3.org/2000/svg">
      <path d="M219.239 1052.2C365.002 1253.56 769.005 1136.1 952.786 1052.2V226.552L1090.03 103.739C757.568 -101.356 89.8039 -378.517 78.4457 153.594C64.248 818.732 37.0358 800.492 219.239 1052.2Z" fill="#61CCEB" />
      <path d="M811.521 380.278C814.927 376.482 818.311 372.685 821.739 368.888C848.771 338.993 877.776 309.444 914.897 292.305C932.597 283.875 951.918 279.396 971.521 279.18C991.784 279.245 1011.59 284.56 1030.31 292.002C1039.17 295.538 1047.82 299.551 1056.35 303.825C1066.09 308.728 1075.66 313.957 1085.18 319.229C1103.06 329.122 1120.7 339.448 1138.12 350.209C1172.76 371.622 1206.33 394.669 1238.8 419.351C1255.64 432.151 1272.13 445.37 1288.27 459.009C1303.28 471.679 1317.99 484.689 1332.39 498.039C1335.48 500.881 1340.07 496.281 1336.99 493.439C1333.2 489.903 1329.36 486.388 1325.52 482.917C1314.67 473.111 1303.65 463.493 1292.45 454.063C1272.04 436.837 1251.1 420.277 1229.63 404.381C1196.24 379.649 1161.7 356.595 1126.01 335.218C1108.18 324.544 1090.1 314.318 1071.77 304.541C1066.24 301.591 1060.64 298.705 1054.98 295.972C1042.13 289.491 1028.78 284.057 1015.06 279.722C995.626 273.434 975.061 271.414 954.772 273.799C935.183 276.649 916.309 283.178 899.146 293.043C862.699 313.414 834.431 344.915 806.921 375.657C804.144 378.781 808.722 383.402 811.521 380.278Z" fill="#E4E4E4" />
      <path d="M926.39 329.924C970.772 307.113 1027.61 311.581 1068.4 340.079C990.602 353.5 913.659 371.458 837.962 393.861C869.396 375.44 893.985 346.578 926.39 329.924Z" fill="#F2F2F2" />
      <path d="M361.739 944.441L429.165 431.88C429.633 428.265 430.819 424.779 432.653 421.628C434.487 418.477 436.933 415.725 439.846 413.533L435.559 407.875C431.895 410.632 428.819 414.094 426.512 418.057C424.205 422.021 422.714 426.406 422.127 430.954L354.7 943.516L361.739 944.441Z" fill="#3F3D56" />
      <path d="M343.852 667.185C328.07 667.185 315.277 654.392 315.277 638.61C315.277 622.829 328.07 610.035 343.852 610.035C359.633 610.035 372.427 622.829 372.427 638.61C372.427 654.392 359.633 667.185 343.852 667.185Z" fill="#E8878B" />
      <path d="M487.211 750.658C481.86 742.031 475.134 734.338 467.298 727.884C474.345 736.102 479.15 746.001 481.248 756.622C479.38 758.217 477.393 759.667 475.304 760.959C469.016 764.776 462.104 767.452 454.885 768.865C449.017 756.4 440.459 745.392 429.827 736.63C437.965 746.127 443.093 757.831 444.559 770.252C436.348 770.763 428.106 770.245 420.023 768.711C407.897 766.468 395.816 762.216 386.462 754.193C376.339 745.508 370.116 732.981 366.78 720.064C363.446 707.158 362.759 693.73 362.099 680.413C361.779 674.067 355.495 667.649 355.175 661.304L355.585 661.242C357.996 657.2 359.709 652.781 360.653 648.169C361.097 645.858 360.959 643.472 360.252 641.227C359.545 638.981 358.291 636.947 356.602 635.307C354.611 633.737 352.243 632.718 349.735 632.351C349.467 632.098 349.179 631.858 348.882 631.619C343.502 627.383 337.428 624.113 330.929 621.957C335.207 624.075 338.769 627.402 341.174 631.524C337.278 631.258 333.381 630.995 329.485 630.736C328.025 629.587 326.507 628.512 324.938 627.517C323.134 626.454 321.254 625.526 319.314 624.742C321.514 626.162 323.344 628.088 324.65 630.358C319.618 629.863 314.495 628.753 311.349 624.958C306.135 618.684 309.715 608.632 316.039 603.473C320.661 599.866 326.3 597.803 332.159 597.576C338.017 597.349 343.799 598.969 348.687 602.207C357.618 593.315 371.927 591.301 383.918 595.158C391.858 597.867 399.033 602.441 404.84 608.495C402.005 608.554 399.176 608.778 396.367 609.165C400.401 609.152 404.382 610.078 407.997 611.87C409.781 613.901 411.456 616.026 413.015 618.236C414.039 619.686 415.022 621.164 415.963 622.669C421.479 631.985 426.342 641.673 430.517 651.663C435.693 663.152 441.128 674.685 449.069 684.472C461.223 699.341 478.375 709.276 497.32 712.421C500.855 725.759 496.216 740.015 487.211 750.658Z" fill="#2F2E41" />
      <path d="M348.623 603.004C352.77 607.509 355.821 612.909 357.539 618.785C359.257 624.662 359.596 630.855 358.53 636.884L348.623 603.004Z" fill="#FD6584" />
      <path d="M260.172 771.147C260.919 772.586 261.973 773.842 263.259 774.83C264.544 775.817 266.031 776.51 267.613 776.86C269.196 777.211 270.836 777.21 272.418 776.858C274 776.506 275.486 775.811 276.771 774.823L309.705 796.45L309.666 775.976L278.397 758.577C276.593 756.529 274.101 755.213 271.393 754.88C268.684 754.546 265.947 755.217 263.701 756.767C261.454 758.316 259.854 760.636 259.204 763.287C258.553 765.937 258.898 768.734 260.172 771.147Z" fill="#E8878B" />
      <path d="M378.634 692.392C378.634 692.392 392.147 711.116 391.744 733.05C391.342 754.984 372.689 827.393 363.454 827.223C354.219 827.054 281.079 785.293 281.079 785.293L291.829 765.858L344.508 789.922C344.508 789.922 339.553 682.435 378.634 692.392Z" fill="#E86305" />
      <path d="M402.344 769.547L405.269 808.838L413.088 838.444L345.151 844.682L324.913 779.77L332.337 762.203L402.344 769.547Z" fill="#E8878B" />
      <path d="M324.023 703.184L329.633 697.956L332.424 680.972L363.242 671.117L376.471 682.641L399.424 688.776L408.364 732.13L416.637 785.858L333.149 808.665L318.076 771.865C318.076 771.865 291.754 748.733 310.444 728.295L324.023 703.184Z" fill="#E86305" />
      <path d="M313.633 916.479C315.614 915.126 317.956 914.401 320.354 914.396H464.714C467.852 914.396 470.862 915.643 473.081 917.862C475.3 920.081 476.547 923.091 476.547 926.229C476.547 929.368 475.3 932.377 473.081 934.596C470.862 936.815 467.852 938.062 464.714 938.062H320.354C317.857 938.058 315.424 937.267 313.401 935.801C311.379 934.336 309.87 932.27 309.089 929.897C308.719 928.71 308.527 927.473 308.521 926.229C308.524 924.312 308.99 922.424 309.88 920.726C310.77 919.029 312.058 917.571 313.633 916.479Z" fill="#E86305" />
      <path d="M538.267 661.743C549.721 860.06 594.33 1056.77 707.996 1177.08H1234.53C1234.58 1177.13 1234.6 1177.18 1234.65 1177.23C1234.77 1177.39 1234.89 1177.56 1235.03 1177.75L1235.93 1177.08H1285.41L1284.77 1175C1276.17 1171.94 1267.83 1168.19 1259.83 1163.78C1256.92 1162.15 1254.17 1160.49 1251.59 1158.77C1245.86 1155.01 1240.51 1150.72 1235.6 1145.94C1229.95 1140.39 1224.98 1134.19 1220.8 1127.46C1212.9 1114.87 1208 1101.31 1203.22 1087.49C1201.35 1082.07 1199.48 1076.6 1197.47 1071.13C1186.77 1042.12 1171.63 1013.13 1125.86 990.245C987.699 921.165 885.227 701.856 824.076 484.985C822.514 479.424 820.975 473.862 819.461 468.301C814.373 449.629 809.6 431.043 805.143 412.545C804.244 408.924 803.392 405.303 802.54 401.682C786.105 332.84 773.699 263.097 765.385 192.81C759.587 141.716 757.339 96.6807 758.782 61.2534C759.186 44.0365 761.271 26.9001 765.006 10.0885L590.639 2.72852C590.639 2.72852 587.988 15.0819 583.823 37.3985C579.611 60.0701 573.836 93.0363 567.754 133.741C563.755 160.341 559.637 190.278 555.708 222.771C555.448 225.019 555.188 227.291 554.927 229.563C553.318 243.052 551.756 257.015 550.265 271.332C544.16 329.573 539.095 394.133 536.658 461.651C536.35 469.863 536.09 478.114 535.877 486.405C534.362 543.699 534.859 602.792 538.267 661.743Z" fill="#001115" />
      <path d="M547.229 493.166L306.616 349.568L273.915 450.405L671.113 767.956L547.229 493.166Z" fill="#001115" />
      <path d="M11.9222 242.98C12.1352 242.531 12.3718 242.081 12.6321 241.631C22.2245 223.607 36.717 208.662 54.4377 198.521C72.1584 188.379 92.3853 183.454 112.785 184.313C122.348 184.77 131.899 183.207 140.817 179.724C149.735 176.242 157.819 170.919 164.541 164.103L165.488 163.133C174.288 154.255 184.144 146.49 194.833 140.011L195.638 139.514L196.301 140.224C202.481 146.792 209.489 152.528 217.15 157.287C216.274 156.293 215.47 155.276 214.665 154.211C214.662 154.211 214.659 154.21 214.656 154.209C214.653 154.208 214.65 154.206 214.648 154.204C214.646 154.202 214.644 154.199 214.643 154.196C214.642 154.193 214.641 154.19 214.641 154.187C210.41 148.593 206.904 142.486 204.205 136.012L203.779 134.994L204.631 134.568L204.773 134.497C233.359 119.959 265.806 114.818 297.487 119.807C329.168 124.796 358.465 139.66 381.2 162.281C384.205 165.262 387.092 168.363 389.79 171.534C391.305 173.309 392.796 175.107 394.216 176.953C408.471 195.247 418.326 216.576 423.017 239.288V239.312C423.301 240.637 423.561 241.939 423.798 243.264C428.22 267.417 426.739 292.281 419.483 315.739C412.227 339.197 399.41 360.554 382.122 377.992C378.62 381.518 374.928 384.902 371.118 388.074C368.349 390.393 365.486 392.594 362.575 394.676C335.293 413.997 311.1 437.345 290.821 463.922C282.365 475.109 274.717 486.885 267.936 499.16C263.048 507.992 256.963 516.107 249.856 523.275C248.625 524.482 247.347 525.712 246.022 526.919L244.507 528.339L244.081 526.304C243.443 523.241 242.984 520.144 242.709 517.027V517.004C242.427 513.967 242.356 510.915 242.496 507.869C240.265 514.006 238.64 520.347 237.644 526.801V526.825C237.266 529.215 236.982 531.582 236.769 534.019L236.721 534.54L236.272 534.871C234.899 535.865 233.503 536.812 232.083 537.711C216.686 547.756 198.974 553.695 180.634 554.963C178.125 555.152 175.57 555.247 173.037 555.247C170.387 555.247 167.736 555.152 165.086 554.963C137.618 552.932 111.963 540.489 93.3615 520.176C74.7602 499.864 64.6169 473.216 65.004 445.676C64.9523 431.54 62.0765 417.557 56.5454 404.548C51.0143 391.539 42.9395 379.767 32.7952 369.922C32.6769 369.78 32.535 369.638 32.393 369.496L32.0142 369.118C18.4164 355.647 8.64066 338.807 3.68665 320.319L3.30804 318.876L4.15997 318.852H4.79886C8.42392 318.785 12.0425 318.516 15.6377 318.047C23.5831 317.085 31.3899 315.203 38.901 312.439C27.8492 313.054 15.8034 310.782 1.46207 305.481L0.775818 305.221L0.704773 304.511C-1.72998 283.342 2.17407 261.928 11.9222 242.98Z" fill="#08242B" />
      <path opacity="0.15" d="M79.3559 488.021C79.3173 491.92 79.4903 495.818 79.874 499.699C70.3228 482.915 65.3885 463.9 65.5731 444.59C65.6067 441.634 65.4735 438.68 65.2337 435.732C74.5404 451.582 79.4178 469.641 79.3559 488.021Z" fill="black" />
      <path opacity="0.15" d="M53.2527 354.789C44.458 357.988 35.2759 359.999 25.9493 360.77C22.6121 356.797 19.5648 352.588 16.8312 348.178C30.7145 353.226 42.4664 355.383 53.2527 354.789Z" fill="black" />
      <path opacity="0.15" d="M15.8108 316.969C14.2969 326.242 13.9909 335.671 14.9001 345.023C10.2468 336.927 6.66758 328.261 4.25304 319.241L3.86333 317.787L5.36727 317.758C8.85944 317.67 12.345 317.406 15.8108 316.969Z" fill="black" />
      <path opacity="0.15" d="M31.9417 215.121C42.5544 204.443 55.2754 196.093 69.2938 190.604C83.3123 185.114 98.3205 182.606 113.362 183.238C122.923 183.693 132.472 182.128 141.387 178.645C150.301 175.161 158.382 169.838 165.102 163.023L166.051 162.058C174.851 153.183 184.703 145.418 195.389 138.936L196.205 138.442L196.858 139.136C203.038 145.705 210.049 151.439 217.714 156.193C212.314 149.827 207.949 142.65 204.782 134.926L204.348 133.912L205.332 133.411C226.765 122.534 250.465 116.878 274.5 116.904C298.535 116.931 322.223 122.639 343.631 133.563C365.04 144.487 383.562 160.318 397.688 179.764C411.813 199.21 421.141 221.719 424.911 245.457C415.996 227.355 403.576 211.203 388.373 197.936C373.17 184.669 355.485 174.552 336.343 168.17C317.201 161.788 296.983 159.268 276.86 160.756C256.737 162.245 237.11 167.712 219.115 176.842L218.13 177.342L218.565 178.356C221.732 186.081 226.096 193.258 231.497 199.624C223.832 194.87 216.821 189.135 210.64 182.566L209.988 181.873L209.172 182.366C198.486 188.848 188.633 196.613 179.833 205.488L178.885 206.453C172.165 213.269 164.084 218.592 155.169 222.075C146.254 225.558 136.705 227.123 127.145 226.669C102.14 225.593 77.5359 233.225 57.5284 248.262C37.5208 263.299 23.3484 284.81 17.4279 309.128C12.2043 307.866 7.06329 306.284 2.03391 304.39L1.35287 304.139L1.27286 303.418C-0.57663 287.342 1.22018 271.056 6.52969 255.769C11.8392 240.483 20.525 226.589 31.9417 215.121Z" fill="black" />
      <path d="M1347.12 -72.457C1345.35 -45.1098 1340.55 -18.0439 1332.8 8.24251C1317.5 60.4086 1290.76 108.505 1254.52 149.029C1253.43 150.236 1252.34 151.443 1251.25 152.626C1250.16 153.833 1249.05 155.016 1247.94 156.199C1246.83 157.383 1245.71 158.542 1244.58 159.702C1243.44 160.862 1242.33 162.021 1241.17 163.181C1236.63 167.772 1231.94 172.221 1227.16 176.552C1225.95 177.641 1224.75 178.705 1223.54 179.77C1219.92 182.989 1216.25 186.113 1212.49 189.142C1211.23 190.16 1209.98 191.177 1208.73 192.171C1207.45 193.165 1206.19 194.159 1204.92 195.153C1203.64 196.123 1202.36 197.094 1201.08 198.064C1198.5 200.004 1195.9 201.898 1193.3 203.767C1192.18 204.548 1191.09 205.306 1189.98 206.087C1187.12 208.074 1184.26 210.015 1181.34 211.908C1180.16 212.666 1178.98 213.446 1177.79 214.18C1177.44 214.417 1177.08 214.653 1176.73 214.866C1175.57 215.624 1174.39 216.334 1173.2 217.067C1171.85 217.919 1170.48 218.748 1169.09 219.576C1166.34 221.232 1163.57 222.842 1160.78 224.427C1157.94 226.013 1155.1 227.575 1152.24 229.089C1149.42 230.58 1146.6 232.048 1143.76 233.444C1142.53 234.059 1141.33 234.651 1140.1 235.242C1139.62 235.479 1139.17 235.692 1138.7 235.929L1135.08 237.633C1133.63 238.319 1132.17 238.982 1130.7 239.644C1129.23 240.307 1127.77 240.946 1126.3 241.585C1123.36 242.886 1120.38 244.117 1117.42 245.324C1115.93 245.916 1114.42 246.531 1112.93 247.099C1111.44 247.691 1109.92 248.259 1108.43 248.827C1105.97 249.749 1103.48 250.649 1101 251.501C1099.6 252.021 1098.21 252.495 1096.81 252.944C1096.08 253.181 1095.37 253.441 1094.66 253.678C1092.79 254.293 1090.89 254.909 1089 255.477C1084.08 257.015 1079.11 258.458 1074.14 259.784C1071.89 260.399 1069.62 260.967 1067.35 261.535C1065.5 261.985 1063.66 262.41 1061.81 262.836C1060.72 263.097 1059.61 263.357 1058.5 263.594C1053.98 264.588 1049.46 265.487 1044.89 266.315C1043.11 266.647 1041.36 266.954 1039.59 267.238C1039.16 267.309 1038.76 267.38 1038.36 267.451C1036.2 267.806 1034.03 268.138 1031.85 268.445L1030.85 268.587C1028.99 268.848 1027.12 269.108 1025.25 269.344C1024.51 269.415 1023.78 269.51 1023.05 269.605C1021.39 269.818 1019.73 270.007 1018.08 270.173C1016.77 270.315 1015.47 270.433 1014.15 270.551C1012.51 270.717 1010.9 270.859 1009.27 271.001C1006.88 271.19 1004.47 271.356 1002.08 271.498C999.782 271.64 997.487 271.758 995.191 271.853C993.061 271.948 990.931 272.019 988.825 272.066C987.997 272.09 987.192 272.113 986.387 272.113C984.186 272.161 981.986 272.184 979.808 272.184C944.692 272.168 909.76 267.108 876.082 257.157C856.25 251.3 836.936 243.812 818.338 234.769C808.612 230.036 798.877 225.516 789.135 221.209C726.138 192.925 659.689 173.064 591.504 162.14C557.342 156.765 522.832 153.894 488.251 153.549C463.91 153.316 439.72 149.692 416.379 142.781C412.403 141.622 408.309 140.296 404.215 138.876L399.482 137.243L403.339 134.025C414.696 124.337 427.227 116.115 440.636 109.555C419.269 112.762 398.41 118.736 378.585 127.328L377.402 127.848L376.219 127.28C337.522 108.488 304.075 80.4179 278.854 45.5688C253.634 10.7197 237.425 -29.8261 231.669 -72.457H1347.12Z" fill="#001115" />
      <path d="M270.307 1074.16L255.404 1072.31L255.116 1012.7L277.11 1015.44L270.307 1074.16Z" fill="#E8878B" />
      <path d="M353.562 1036.73C352.823 1037.62 352.081 1038.51 351.329 1039.4C349.835 1041.18 348.317 1042.95 346.791 1044.7C346.024 1045.57 345.247 1046.45 344.477 1047.32L344.486 1047.34L344.433 1047.37L344.417 1047.39L343.084 1048.23L339.156 1043.42L337.346 1041.2L334.785 1038.06L330.096 1032.31L305.406 1002.05L324.122 990.209L325.931 993.078L325.94 993.075L326.834 994.496L343.614 1021.02L347.041 1026.44L347.148 1026.6L349.205 1029.84L350.982 1032.65L352.963 1035.78L353.562 1036.73Z" fill="#E8878B" />
      <path d="M434.605 874.438C434.005 876.946 433.374 879.455 432.728 881.947C431.528 886.587 430.244 891.191 428.875 895.761C428.878 895.771 428.869 895.774 428.862 895.787C427.813 897.702 426.544 899.489 425.08 901.11C425.023 901.192 424.951 901.258 424.891 901.331C423.808 902.509 422.584 903.548 421.246 904.426C420.762 904.735 420.268 905.047 419.783 905.356C418.028 906.445 416.27 907.463 414.505 908.43C411.362 910.141 408.195 911.674 405.004 913.03C404.749 913.147 404.491 913.254 404.233 913.361C390.93 918.6 376.99 922.052 362.78 923.63C355.574 924.61 348.141 925.382 340.445 926.18C337.927 926.433 335.404 926.699 332.852 926.975C332.66 926.997 332.455 927.013 332.254 927.038C328.607 927.427 324.907 927.845 321.124 928.3C316.363 928.873 311.47 929.521 306.414 930.276L309.001 936.893C311.013 941.975 313.794 946.719 317.246 950.957C319.746 953.707 321.664 956.934 322.883 960.445C324.103 963.956 324.599 967.678 324.342 971.385L324.288 976.691C325.929 978.769 327.065 981.199 327.608 983.79C328.152 986.381 328.087 989.062 327.419 991.624L327.256 992.235L352.525 1022.31L354.163 1024.26L347.15 1026.6L338.526 1029.49L323.905 1034.38L288.673 999.1L286.989 997.417L286.954 997.313L261.968 915.252C261.756 914.525 261.57 913.78 261.425 913.031C260.72 909.641 260.698 906.145 261.358 902.747C262.019 899.349 263.35 896.116 265.274 893.238C267.112 890.463 269.483 888.082 272.249 886.232C275.016 884.382 278.123 883.101 281.389 882.462L288.921 880.985L304.311 877.964L315.154 875.843L315.371 875.802L347.342 869.529L346.546 859.828L346.902 859.541L358.225 850.503L397.387 819.24L397.488 819.164L400.064 817.107L400.602 817.557C400.763 817.692 400.924 817.828 401.075 817.966C405.713 822.198 409.908 826.893 413.592 831.977C419.697 840.255 425.325 848.873 430.45 857.79C430.674 858.177 430.875 858.53 431.055 858.847L431.118 858.942C431.2 859.093 431.253 859.19 431.272 859.215C433.81 863.869 434.966 869.15 434.605 874.438Z" fill="#001115" />
      <path d="M426.476 843.835C426.133 843.278 425.749 842.725 425.361 842.193C422.359 838.19 419.137 834.355 415.712 830.707C411.845 826.543 406.8 805.587 406.734 805.535L347.414 827.102L338.104 826.834L344.559 844.083L344.562 844.093L336.658 858.791L336.58 858.807L311.125 863.795L284.892 868.937L270.802 871.703C267.536 872.34 264.429 873.621 261.662 875.471C258.896 877.321 256.525 879.703 254.687 882.478C252.765 885.357 251.434 888.589 250.773 891.988C250.112 895.386 250.134 898.882 250.838 902.271C250.974 902.96 251.145 903.659 251.34 904.338L248.684 938.789C247.09 959.393 248.616 980.12 253.209 1000.27L253.843 1033.26L255.215 1032.94L275.632 1028.17L281.025 1026.91L286.925 1006.26C287.597 1003.9 288.184 1001.51 288.67 999.105C289.48 995.168 290.037 991.183 290.34 987.174L295.45 919.58C297.486 919.267 299.497 918.945 301.485 918.613C310.689 917.113 319.456 915.468 327.787 913.678C351.606 908.945 374.792 901.45 396.875 891.346C402.299 888.769 407.461 886.037 412.362 883.152C414.161 882.099 415.925 881.024 417.653 879.926C418.062 879.674 418.461 879.425 418.858 879.167C422.422 876.858 425.351 873.692 427.376 869.958C429.401 866.225 430.456 862.043 430.447 857.796C430.48 852.859 429.103 848.015 426.476 843.835Z" fill="#001115" />
      <path d="M352.525 1022.31L354.162 1024.26L353.275 1024.56L352.525 1022.31Z" fill="#2F2E41" />
      <path d="M461.533 664.365C460.596 665.688 459.961 667.2 459.671 668.795C459.382 670.39 459.445 672.029 459.858 673.596C460.27 675.164 461.021 676.622 462.058 677.868C463.095 679.113 464.392 680.117 465.859 680.807L461.695 719.987L479.883 710.585L481.049 674.82C482.045 672.28 482.075 669.462 481.132 666.901C480.19 664.34 478.34 662.213 475.935 660.925C473.529 659.636 470.735 659.275 468.08 659.909C465.426 660.543 463.097 662.129 461.533 664.365Z" fill="#E8878B" />
      <path d="M372.633 715.7C375.095 720.406 378.166 724.766 381.768 728.669C392.133 739.745 425.076 762.89 446.658 774.06C456.338 779.053 463.222 780.878 465.828 779.692C478.265 774.03 489.497 680.889 482.464 680.107L463.532 696.673V701.406L454.941 739.319C454.941 739.319 453.025 736.999 449.759 733.284C439.109 721.238 421.005 698.993 399.635 689.574C392.938 701.856 373.934 714.233 373.934 714.233C373.934 714.233 373.437 714.754 372.633 715.7Z" fill="#E86305" />
      <path d="M358.22 945.161H424.045L424.452 942.076L490.802 440.027C491.697 433.253 490.569 426.366 487.559 420.232C484.549 414.098 479.792 408.991 473.887 405.554C467.982 402.118 461.192 400.504 454.372 400.917C447.552 401.33 441.006 403.751 435.559 407.875L439.846 413.532C444.177 410.254 449.381 408.33 454.803 408.003C460.225 407.675 465.623 408.958 470.318 411.691C475.012 414.424 478.794 418.484 481.186 423.36C483.579 428.237 484.475 433.712 483.764 439.097L417.821 938.061H358.22V945.161Z" fill="#3F3D56" />
      <g opacity="0.15">
        <path opacity="0.15" d="M344.703 -69.2598C348.592 -40.457 359.544 -13.0631 376.583 10.482C393.623 34.0272 416.221 52.9925 442.365 65.6887L443.165 66.0725L443.964 65.7207C457.359 59.9162 471.451 55.8797 485.888 53.7129C476.828 58.1454 468.362 63.6999 460.689 70.2457L458.083 72.4202L461.28 73.5234C464.047 74.4828 466.813 75.3782 469.499 76.1617C485.269 80.8306 501.612 83.2792 518.058 83.4367C541.422 83.6697 564.737 85.6096 587.819 89.2408C633.887 96.6218 678.781 110.04 721.344 129.15C727.932 132.06 734.509 135.114 741.075 138.312C753.64 144.421 766.689 149.48 780.088 153.437C802.842 160.16 826.443 163.58 850.169 163.59C851.64 163.59 853.127 163.574 854.614 163.542C855.157 163.542 855.701 163.526 856.261 163.51C857.684 163.478 859.123 163.43 860.562 163.367C862.113 163.303 863.664 163.223 865.215 163.127C866.829 163.031 868.46 162.919 870.075 162.791C871.179 162.695 872.266 162.599 873.369 162.487C874.264 162.407 875.144 162.327 876.023 162.231C877.143 162.119 878.262 161.991 879.381 161.848C879.877 161.784 880.372 161.72 880.868 161.672C882.131 161.512 883.394 161.336 884.657 161.16L885.329 161.064C886.8 160.856 888.271 160.632 889.726 160.393C889.998 160.345 890.27 160.297 890.557 160.249C891.757 160.057 892.94 159.849 894.139 159.625C897.225 159.065 900.279 158.458 903.333 157.786C904.084 157.626 904.836 157.451 905.571 157.275C906.818 156.987 908.066 156.699 909.313 156.395C910.848 156.012 912.383 155.628 913.902 155.212C917.259 154.317 920.617 153.341 923.943 152.302C925.222 151.918 926.501 151.503 927.764 151.087C928.244 150.927 928.724 150.751 929.219 150.591C930.163 150.287 931.106 149.968 932.049 149.616C933.728 149.04 935.407 148.433 937.07 147.809C938.077 147.425 939.1 147.042 940.108 146.642C941.115 146.258 942.138 145.842 943.146 145.443C945.144 144.627 947.159 143.796 949.142 142.916C950.133 142.485 951.124 142.053 952.116 141.605C953.107 141.158 954.098 140.71 955.074 140.246L957.52 139.095C957.84 138.935 958.144 138.791 958.463 138.631C959.295 138.232 960.11 137.832 960.942 137.416C962.86 136.473 964.763 135.481 966.666 134.474C968.6 133.451 970.519 132.396 972.438 131.324C974.325 130.253 976.195 129.166 978.05 128.046C978.993 127.487 979.921 126.927 980.832 126.352C981.632 125.856 982.431 125.376 983.215 124.865C983.454 124.721 983.694 124.561 983.934 124.401C984.734 123.905 985.533 123.378 986.332 122.866C988.299 121.587 990.234 120.276 992.169 118.933C992.92 118.405 993.656 117.893 994.407 117.366C996.166 116.103 997.925 114.823 999.667 113.512C1000.53 112.857 1001.39 112.201 1002.26 111.546C1003.12 110.874 1003.97 110.203 1004.83 109.531C1005.68 108.859 1006.53 108.172 1007.37 107.484C1009.9 105.422 1012.39 103.311 1014.84 101.153C1015.66 100.433 1016.47 99.7137 1017.29 98.9782C1020.52 96.0522 1023.68 93.0462 1026.75 89.9443C1027.54 89.1608 1028.29 88.3774 1029.06 87.5939C1029.82 86.8104 1030.57 86.0269 1031.33 85.2275C1032.08 84.428 1032.83 83.6286 1033.56 82.8131C1034.3 82.0136 1035.04 81.1982 1035.77 80.3828C980.744 106.48 918.026 111.37 859.618 94.1174C846.218 90.1621 833.169 85.1029 820.605 78.9917C787.395 62.6896 752.651 49.7177 716.883 40.266C678.287 30.0859 638.588 24.6732 598.675 24.1489C598.324 24.1329 597.956 24.1329 597.604 24.1329C581.153 23.9621 564.805 21.5084 549.029 16.8419C546.343 16.0584 543.593 15.163 540.827 14.2036L537.629 13.1004L540.219 10.9259C547.898 4.37972 556.369 -1.17478 565.434 -5.60693C550.992 -3.44024 536.894 0.596275 523.494 6.40095L522.695 6.75269L521.895 6.36897C488.385 -9.90721 460.895 -36.3842 443.373 -69.2598H344.703Z" fill="#001115" />
      </g>
    </svg>
