<svg width="360" height="392" viewBox="0 0 360 472" fill="none" xmlns="http://www.w3.org/2000/svg">
<path d="M-8.17776 413.259C68.8455 519.644 282.326 457.586 379.439 413.259V-22.9467L451.961 -87.8315C276.283 -196.187 -76.5734 -342.617 -82.5752 -61.4921C-90.0775 289.914 -104.457 280.277 -8.17776 413.259Z" fill="#61CCEB"/>
<path d="M6.63605 407.04C6.53296 411.932 7.20805 416.81 8.63605 421.49C8.68605 421.66 8.74609 421.83 8.80609 422H38.2461C37.8253 419.927 37.1571 417.913 36.256 416C33.806 410.8 29.8061 406.35 25.8561 401.93C20.4161 395.84 15.1061 389.8 14.2661 381.88C12.1098 385.167 10.3887 388.72 9.14606 392.45C10.6675 393.013 12.0637 393.87 13.256 394.97C13.586 395.28 13.9361 395.73 13.7661 396.16C13.6061 396.52 13.1661 396.64 12.7761 396.72C11.8361 396.9 10.8961 397.08 9.95605 397.25C9.21605 397.4 8.46606 397.54 7.71606 397.68C7.05686 400.758 6.69518 403.892 6.63605 407.04Z" fill="#E6E6E6"/>
<path d="M-18.0942 403.8C-13.3742 406.67 -10.3742 411.11 -7.92419 416.08C-5.79218 416.566 -3.82393 417.6 -2.21417 419.08C-1.87417 419.39 -1.52416 419.84 -1.70416 420.27C-1.85416 420.63 -2.30415 420.75 -2.69415 420.83C-3.62415 421.01 -4.57415 421.19 -5.50415 421.36C-5.41415 421.57 -5.32419 421.79 -5.23419 422H25.9658C24.5495 420.09 22.981 418.297 21.2758 416.64C20.9058 416.27 20.5258 415.92 20.1358 415.56C16.1586 411.966 11.5918 409.084 6.6358 407.04C-1.17166 403.776 -9.7094 402.658 -18.0942 403.8V403.8Z" fill="#E6E6E6"/>
<path d="M20.7658 422H48.5458C48.6975 419.775 48.6841 417.543 48.5058 415.32C47.9042 408.44 45.8181 401.773 42.3913 395.777C38.9644 389.781 34.2783 384.6 28.6558 380.59C30.0958 385.72 29.3558 390.82 27.8558 395.94C28.0658 396.01 28.2758 396.07 28.4658 396.15C29.9872 396.714 31.3835 397.57 32.5758 398.67C32.9058 398.98 33.2558 399.43 33.0858 399.86C32.9358 400.22 32.4858 400.34 32.0958 400.42C31.1558 400.6 30.2158 400.78 29.2858 400.95C28.5358 401.1 27.7858 401.24 27.0358 401.39C26.6858 401.45 26.3358 401.52 25.9858 401.59C25.9358 401.71 25.9058 401.82 25.8558 401.93C24.0958 406.78 22.1758 411.67 21.2758 416.64C21.053 417.887 20.8994 419.146 20.8158 420.41C20.7858 420.94 20.7658 421.47 20.7658 422Z" fill="#E6E6E6"/>
<path d="M220.636 407.04C220.533 411.932 221.208 416.81 222.636 421.49C222.686 421.66 222.746 421.83 222.806 422H252.246C251.825 419.927 251.157 417.913 250.256 416C247.806 410.8 243.806 406.35 239.856 401.93C234.416 395.84 229.106 389.8 228.266 381.88C226.11 385.167 224.389 388.72 223.146 392.45C224.667 393.013 226.064 393.87 227.256 394.97C227.586 395.28 227.936 395.73 227.766 396.16C227.606 396.52 227.166 396.64 226.776 396.72C225.836 396.9 224.896 397.08 223.956 397.25C223.216 397.4 222.466 397.54 221.716 397.68C221.057 400.758 220.695 403.892 220.636 407.04V407.04Z" fill="#E6E6E6"/>
<path d="M195.906 403.8C200.626 406.67 203.626 411.11 206.076 416.08C208.208 416.566 210.176 417.6 211.786 419.08C212.126 419.39 212.476 419.84 212.296 420.27C212.146 420.63 211.696 420.75 211.306 420.83C210.376 421.01 209.426 421.19 208.496 421.36C208.586 421.57 208.676 421.79 208.766 422H239.966C238.549 420.09 236.981 418.297 235.276 416.64C234.906 416.27 234.526 415.92 234.136 415.56C230.159 411.966 225.592 409.084 220.636 407.04C212.828 403.776 204.291 402.658 195.906 403.8Z" fill="#E6E6E6"/>
<path d="M234.766 422H262.546C262.698 419.775 262.684 417.543 262.506 415.32C261.904 408.44 259.818 401.773 256.391 395.777C252.964 389.781 248.278 384.6 242.656 380.59C244.096 385.72 243.356 390.82 241.856 395.94C242.066 396.01 242.276 396.07 242.466 396.15C243.987 396.714 245.383 397.57 246.576 398.67C246.906 398.98 247.256 399.43 247.086 399.86C246.936 400.22 246.486 400.34 246.096 400.42C245.156 400.6 244.216 400.78 243.286 400.95C242.536 401.1 241.786 401.24 241.036 401.39C240.686 401.45 240.336 401.52 239.986 401.59C239.936 401.71 239.906 401.82 239.856 401.93C238.096 406.78 236.176 411.67 235.276 416.64C235.053 417.887 234.899 419.146 234.816 420.41C234.786 420.94 234.766 421.47 234.766 422Z" fill="#E6E6E6"/>
<path d="M-85.9239 422H-81.7039C-44.9739 374.28 -10.4139 324.993 21.9761 274.14C44.5961 238.66 66.0928 202.493 86.4661 165.64C87.6661 163.47 88.8628 161.297 90.0561 159.12C98.4861 143.74 106.719 128.257 114.756 112.67C121.876 98.8699 128.833 84.9899 135.626 71.0299C137.566 67.0399 139.456 63.0399 141.336 59.0199C145.766 49.5799 150.106 40.0899 154.776 30.7799C159.486 21.3699 165.106 11.5699 173.106 4.49989C174.134 3.57849 175.209 2.71067 176.326 1.89988C177.593 0.971459 178.923 0.132767 180.306 -0.610098C180.446 -0.690098 180.586 -0.760109 180.726 -0.840109C184.106 -2.64275 187.826 -3.71588 191.646 -3.9901C199.596 -4.5101 206.926 -1.22013 213.826 2.35987C225.466 8.42987 236.93 14.8499 248.216 21.6199C285.717 44.1548 321.105 70.0334 353.946 98.9399C354.026 99.0099 354.116 99.0899 354.196 99.1599C397.017 136.764 435.29 179.25 468.236 225.75C469.246 227.19 471.626 225.81 470.606 224.37C466.606 218.7 462.523 213.093 458.356 207.55C427.28 166.198 391.913 128.253 352.846 94.3499C348.476 90.5499 344.056 86.8032 339.586 83.1099C317.642 64.9426 294.66 48.0674 270.756 32.5699C263.436 27.8199 256.033 23.2132 248.546 18.7499C243.586 15.7799 238.593 12.8699 233.566 10.0199C227.206 6.41988 220.816 2.85989 214.316 -0.470114C207.946 -3.75011 201.186 -6.6901 193.906 -6.8001C188.661 -6.89586 183.481 -5.63516 178.866 -3.14013C178.726 -3.06013 178.576 -2.99011 178.436 -2.90011C175.616 -1.32161 172.997 0.592279 170.636 2.79988C160.066 12.5899 152.996 27.9499 147.496 39.7399C144.726 45.6899 141.923 51.6132 139.086 57.5099C128.376 79.9199 117.249 102.13 105.706 124.14C99.5361 135.89 93.2494 147.59 86.8461 159.24C85.8661 161.05 84.8661 162.86 83.8661 164.66C60.7261 206.47 36.1328 247.437 10.0861 287.56C-20.8439 335.2 -51.5639 377.86 -85.9239 422Z" fill="#E4E4E4"/>
<path d="M356.64 85.306C358.079 83.7017 359.51 82.0974 360.958 80.4931C372.38 67.8606 384.637 55.3747 400.322 48.1325C407.801 44.5703 415.966 42.6778 424.249 42.5863C432.811 42.6138 441.181 44.8598 449.092 48.0042C452.833 49.4985 456.491 51.1944 460.093 53.0004C464.209 55.0722 468.252 57.2815 472.276 59.5092C479.831 63.6895 487.287 68.0531 494.645 72.6001C509.285 81.6482 523.467 91.387 537.19 101.816C544.304 107.225 551.272 112.811 558.092 118.574C564.436 123.928 570.651 129.425 576.738 135.066C578.04 136.267 579.983 134.324 578.682 133.123C577.078 131.628 575.455 130.143 573.832 128.677C569.249 124.533 564.592 120.469 559.861 116.484C551.235 109.205 542.385 102.207 533.313 95.4909C519.204 85.0401 504.61 75.2983 489.53 66.2655C481.994 61.7552 474.355 57.4343 466.611 53.3029C464.273 52.0561 461.908 50.8369 459.516 49.6818C454.087 46.9434 448.446 44.6472 442.648 42.8155C434.435 40.1585 425.745 39.3049 417.172 40.3128C408.894 41.5168 400.919 44.2758 393.667 48.4442C378.266 57.0523 366.321 70.3632 354.697 83.3533C353.523 84.6734 355.458 86.6261 356.64 85.306Z" fill="#E4E4E4"/>
<path d="M41.0797 216.213L4.17512 202.715L-14.1482 196.014C-20.1158 193.831 -26.069 191.346 -32.238 189.783C-37.5991 188.252 -43.2913 188.324 -48.6116 189.992C-53.3562 191.748 -57.6993 194.44 -61.3826 197.908C-65.1455 201.374 -68.6467 205.113 -71.8575 209.095C-75.8468 213.889 -79.7772 218.734 -83.7252 223.562C-100.019 243.489 -116.207 263.503 -132.288 283.603C-148.369 303.703 -164.342 323.889 -180.208 344.159C-196.113 364.48 -211.908 384.885 -227.594 405.375C-229.515 407.885 -231.435 410.397 -233.353 412.909C-234.413 414.297 -236.803 412.929 -235.728 411.521C-219.926 390.825 -204.015 370.213 -187.993 349.686C-171.932 329.111 -155.76 308.622 -139.477 288.221C-123.194 267.82 -106.801 247.507 -90.298 227.283C-86.1866 222.245 -82.0685 217.212 -77.9435 212.185C-74.464 207.944 -71.0237 203.657 -67.2073 199.71C-60.2019 192.465 -51.4495 186.062 -40.9729 185.889C-34.8132 185.786 -28.8519 187.741 -23.1289 189.811C-16.9592 192.043 -10.8043 194.317 -4.64251 196.571L32.5202 210.163L41.8108 213.561C43.4596 214.164 42.7473 216.823 41.0797 216.213V216.213Z" fill="#E4E4E4"/>
<path d="M166.583 323.695L195.074 107.11C195.272 105.582 195.773 104.11 196.548 102.778C197.323 101.447 198.356 100.284 199.587 99.3574L197.776 96.9668C196.227 98.1318 194.928 99.5947 193.953 101.269C192.978 102.944 192.348 104.797 192.1 106.719L163.608 323.305L166.583 323.695Z" fill="#3F3D56"/>
<path d="M159.025 206.54C152.356 206.54 146.95 201.134 146.95 194.465C146.95 187.797 152.356 182.391 159.025 182.391C165.693 182.391 171.099 187.797 171.099 194.465C171.099 201.134 165.693 206.54 159.025 206.54Z" fill="#E8878B"/>
<path d="M219.602 241.812C217.341 238.166 214.499 234.916 211.188 232.188C214.165 235.661 216.196 239.844 217.082 244.332C216.293 245.006 215.453 245.619 214.571 246.165C211.914 247.777 208.993 248.908 205.942 249.505C203.463 244.238 199.846 239.586 195.354 235.884C198.793 239.897 200.96 244.843 201.579 250.091C198.109 250.307 194.626 250.088 191.211 249.44C186.087 248.492 180.982 246.696 177.03 243.305C172.752 239.636 170.123 234.342 168.713 228.884C167.304 223.43 167.014 217.756 166.735 212.129C166.6 209.448 163.944 206.736 163.809 204.055L163.983 204.029C165.001 202.321 165.725 200.453 166.124 198.505C166.312 197.528 166.253 196.52 165.955 195.571C165.656 194.622 165.126 193.763 164.412 193.07C163.571 192.406 162.571 191.976 161.511 191.82C161.397 191.713 161.276 191.612 161.15 191.511C158.877 189.721 156.31 188.34 153.564 187.428C155.372 188.323 156.877 189.729 157.893 191.471C156.247 191.359 154.6 191.248 152.954 191.138C152.337 190.652 151.695 190.198 151.032 189.778C150.27 189.329 149.476 188.937 148.656 188.605C149.586 189.205 150.359 190.019 150.911 190.978C148.785 190.769 146.62 190.3 145.29 188.697C143.087 186.045 144.6 181.798 147.272 179.618C149.225 178.094 151.608 177.222 154.084 177.126C156.559 177.03 159.002 177.715 161.068 179.083C164.842 175.326 170.888 174.475 175.955 176.104C179.31 177.249 182.342 179.182 184.796 181.74C183.598 181.765 182.402 181.859 181.215 182.023C182.92 182.018 184.602 182.409 186.129 183.166C186.883 184.025 187.591 184.922 188.25 185.856C188.683 186.469 189.098 187.093 189.495 187.729C191.826 191.666 193.881 195.76 195.645 199.981C197.833 204.835 200.129 209.709 203.485 213.844C208.62 220.127 215.868 224.325 223.873 225.654C225.367 231.29 223.407 237.314 219.602 241.812Z" fill="#2F2E41"/>
<path d="M161.041 179.419C162.793 181.323 164.082 183.605 164.808 186.088C165.534 188.571 165.677 191.188 165.227 193.736L161.041 179.419Z" fill="#FD6584"/>
<path d="M123.665 250.469C123.981 251.077 124.426 251.608 124.969 252.025C125.513 252.442 126.141 252.735 126.81 252.883C127.478 253.032 128.171 253.031 128.84 252.882C129.508 252.734 130.136 252.44 130.679 252.023L144.596 261.161L144.579 252.51L131.366 245.158C130.604 244.292 129.551 243.736 128.407 243.595C127.262 243.454 126.106 243.738 125.156 244.393C124.207 245.048 123.531 246.028 123.256 247.148C122.981 248.268 123.127 249.45 123.665 250.469V250.469Z" fill="#E8878B"/>
<path d="M173.721 217.191C173.721 217.191 179.432 225.103 179.261 234.371C179.091 243.639 171.21 274.236 167.307 274.165C163.405 274.093 132.499 256.447 132.499 256.447L137.042 248.235L159.301 258.403C159.301 258.403 157.208 212.984 173.721 217.191Z" fill="#E86305"/>
<path d="M183.741 249.793L184.977 266.396L188.281 278.906L159.574 281.542L151.022 254.113L154.159 246.69L183.741 249.793Z" fill="#E8878B"/>
<path d="M150.646 221.751L153.016 219.542L154.195 212.365L167.218 208.201L172.808 213.071L182.506 215.663L186.284 233.982L189.78 256.686L154.502 266.323L148.133 250.773C148.133 250.773 137.01 240.998 144.907 232.362L150.646 221.751Z" fill="#E86305"/>
<path d="M146.256 311.88C147.093 311.308 148.082 311.002 149.096 311H210.096C211.422 311 212.694 311.527 213.631 312.464C214.569 313.402 215.096 314.674 215.096 316C215.096 317.326 214.569 318.598 213.631 319.536C212.694 320.473 211.422 321 210.096 321H149.096C148.04 320.998 147.012 320.664 146.158 320.045C145.303 319.425 144.666 318.552 144.336 317.55C144.179 317.048 144.098 316.526 144.096 316C144.097 315.19 144.294 314.392 144.67 313.675C145.046 312.957 145.59 312.342 146.256 311.88Z" fill="#E86305"/>
<path d="M241.176 204.24C246.016 288.04 264.866 371.16 312.896 422H535.386C535.406 422.02 535.416 422.04 535.436 422.06C535.486 422.13 535.536 422.2 535.596 422.28L535.976 422H556.886L556.616 421.12C552.981 419.825 549.456 418.24 546.076 416.38C544.846 415.69 543.686 414.99 542.596 414.26C540.174 412.674 537.91 410.859 535.836 408.84C533.449 406.495 531.351 403.873 529.586 401.03C526.246 395.71 524.176 389.98 522.156 384.14C521.366 381.85 520.576 379.54 519.726 377.23C515.206 364.97 508.806 352.72 489.466 343.05C431.086 313.86 387.786 221.19 361.946 129.55C361.286 127.2 360.636 124.85 359.996 122.5C357.846 114.61 355.829 106.757 353.946 98.94C353.566 97.41 353.206 95.88 352.846 94.35C345.901 65.2603 340.659 35.7902 337.146 6.09001C334.696 -15.5 333.746 -34.53 334.356 -49.5C334.526 -56.7751 335.407 -64.0161 336.986 -71.12L263.306 -74.23C263.306 -74.23 262.186 -69.01 260.426 -59.58C258.646 -50 256.206 -36.07 253.636 -18.87C251.946 -7.62998 250.206 5.02002 248.546 18.75C248.436 19.7 248.326 20.66 248.216 21.62C247.536 27.32 246.876 33.22 246.246 39.27C243.666 63.88 241.526 91.16 240.496 119.69C240.366 123.16 240.256 126.647 240.166 130.15C239.526 154.36 239.736 179.33 241.176 204.24Z" fill="#001115"/>
<path d="M244.963 133.007L143.291 72.3291L129.473 114.938L297.311 249.121L244.963 133.007Z" fill="#001115"/>
<path d="M18.766 27.2898C18.856 27.0998 18.956 26.9098 19.066 26.7198C23.1193 19.1037 29.2432 12.7886 36.7312 8.50319C44.2192 4.21777 52.7661 2.13661 61.386 2.4998C65.4268 2.69288 69.463 2.03215 73.2312 0.560678C76.9995 -0.910796 80.4153 -3.15999 83.256 -6.04021L83.6561 -6.45022C87.3747 -10.2013 91.5391 -13.4824 96.0561 -16.2202L96.396 -16.4302L96.6761 -16.1302C99.2875 -13.3548 102.249 -10.9311 105.486 -8.92022C105.116 -9.34022 104.776 -9.7702 104.436 -10.2202C104.435 -10.2202 104.433 -10.2204 104.432 -10.2209C104.431 -10.2214 104.43 -10.2221 104.429 -10.2231C104.428 -10.224 104.427 -10.2251 104.427 -10.2263C104.426 -10.2276 104.426 -10.2289 104.426 -10.2302C102.638 -12.5941 101.156 -15.1746 100.016 -17.9102L99.836 -18.3402L100.196 -18.5202L100.256 -18.5502C112.335 -24.6934 126.046 -26.8658 139.433 -24.7576C152.82 -22.6495 165.199 -16.3685 174.806 -6.8102C176.076 -5.5502 177.296 -4.2402 178.436 -2.9002C179.076 -2.1502 179.706 -1.39019 180.306 -0.610189C186.33 7.11985 190.494 16.1324 192.476 25.7298V25.7398C192.596 26.2998 192.706 26.8498 192.806 27.4098C194.675 37.6158 194.049 48.1222 190.983 58.0345C187.917 67.9468 182.501 76.9714 175.196 84.3398C173.716 85.8298 172.156 87.2598 170.546 88.5998C169.376 89.5798 168.166 90.5098 166.936 91.3898C155.408 99.5539 145.185 109.419 136.616 120.65C133.043 125.377 129.811 130.353 126.946 135.54C124.88 139.272 122.309 142.701 119.306 145.73C118.786 146.24 118.246 146.76 117.686 147.27L117.046 147.87L116.866 147.01C116.596 145.716 116.403 144.407 116.286 143.09V143.08C116.167 141.797 116.137 140.507 116.196 139.22C115.253 141.813 114.567 144.493 114.146 147.22V147.23C113.986 148.24 113.866 149.24 113.776 150.27L113.756 150.49L113.566 150.63C112.986 151.05 112.396 151.45 111.796 151.83C105.29 156.074 97.8059 158.584 90.0561 159.12C88.9961 159.2 87.9161 159.24 86.8461 159.24C85.7261 159.24 84.6061 159.2 83.4861 159.12C71.8795 158.261 61.0387 153.003 53.1786 144.42C45.3186 135.837 41.0324 124.577 41.196 112.94C41.1742 106.967 39.959 101.058 37.6218 95.5611C35.2846 90.0642 31.8726 85.0897 27.586 80.9298C27.536 80.8698 27.4761 80.8098 27.4161 80.7498L27.256 80.5898C21.5102 74.8979 17.3794 67.782 15.2861 59.9698L15.1261 59.3598L15.4861 59.3498H15.756C17.2878 59.3214 18.8169 59.2079 20.336 59.0098C23.6934 58.603 26.9922 57.8077 30.1661 56.6398C25.4961 56.8998 20.4061 55.9398 14.3461 53.6998L14.0561 53.5898L14.026 53.2898C12.9972 44.345 14.6469 35.2961 18.766 27.2898V27.2898Z" fill="#08242B"/>
<path opacity="0.15" d="M47.2606 130.833C47.2443 132.481 47.3174 134.128 47.4795 135.768C43.4436 128.675 41.3586 120.641 41.4366 112.481C41.4508 111.232 41.3945 109.984 41.2932 108.738C45.2258 115.436 47.2867 123.066 47.2606 130.833V130.833Z" fill="black"/>
<path opacity="0.15" d="M36.2305 74.5347C32.5142 75.8864 28.6343 76.7364 24.6933 77.0623C23.2831 75.3832 21.9955 73.605 20.8404 71.7412C26.7069 73.8743 31.6727 74.7858 36.2305 74.5347Z" fill="black"/>
<path opacity="0.15" d="M20.4092 58.5542C19.7695 62.4725 19.6402 66.4571 20.0244 70.4086C18.0581 66.9879 16.5457 63.3256 15.5254 59.5142L15.3607 58.8999L15.9962 58.8877C17.4719 58.8503 18.9447 58.739 20.4092 58.5542V58.5542Z" fill="black"/>
<path opacity="0.15" d="M27.2247 15.5176C31.7092 11.0056 37.0845 7.47728 43.0081 5.15772C48.9316 2.83816 55.2734 1.77822 61.6293 2.04542C65.6692 2.23757 69.7041 1.57613 73.4712 0.104286C77.2382 -1.36756 80.6528 -3.61679 83.4923 -6.49679L83.8932 -6.90441C87.6116 -10.6546 91.7748 -13.9358 96.2902 -16.6749L96.635 -16.8834L96.9108 -16.5903C99.5224 -13.8145 102.485 -11.3915 105.724 -9.38262C103.442 -12.0726 101.598 -15.1053 100.259 -18.3692L100.076 -18.7979L100.492 -19.0092C109.548 -23.6054 119.563 -25.9955 129.719 -25.9843C139.875 -25.9732 149.884 -23.5612 158.931 -18.9451C167.977 -14.329 175.804 -7.63965 181.773 0.577248C187.741 8.79414 191.683 18.3058 193.276 28.336C189.509 20.6872 184.261 13.862 177.837 8.25608C171.412 2.65014 163.94 -1.62511 155.851 -4.32192C147.763 -7.01873 139.219 -8.08349 130.716 -7.45446C122.213 -6.82543 113.92 -4.51513 106.316 -0.657463L105.9 -0.446159L106.083 -0.0174484C107.422 3.24645 109.266 6.27916 111.548 8.96912C108.309 6.96026 105.346 4.53722 102.735 1.76142L102.459 1.46833L102.114 1.6768C97.5988 4.41587 93.4356 7.69707 89.7172 11.4473L89.3163 11.8549C86.4768 14.7349 83.0622 16.9842 79.2952 18.456C75.5281 19.9279 71.4931 20.5893 67.4533 20.3971C56.8873 19.9428 46.4908 23.1675 38.0365 29.5214C29.5822 35.8754 23.5936 44.9651 21.0919 55.2408C18.8846 54.7075 16.7122 54.0389 14.587 53.2388L14.2993 53.1325L14.2654 52.8281C13.4839 46.035 14.2432 39.1531 16.4868 32.6938C18.7303 26.2344 22.4005 20.3637 27.2247 15.5176V15.5176Z" fill="black"/>
<path d="M572.926 -118C572.179 -106.444 570.149 -95.0074 566.876 -83.9C560.41 -61.857 549.109 -41.5336 533.796 -24.41C533.336 -23.9 532.876 -23.39 532.416 -22.89C531.956 -22.38 531.486 -21.88 531.016 -21.38C530.546 -20.88 530.076 -20.39 529.596 -19.9C529.116 -19.41 528.646 -18.92 528.156 -18.43C526.236 -16.49 524.256 -14.61 522.236 -12.78C521.726 -12.32 521.216 -11.87 520.706 -11.42C519.176 -10.06 517.626 -8.73999 516.036 -7.45999C515.506 -7.02999 514.976 -6.59999 514.446 -6.17999C513.906 -5.75999 513.376 -5.34001 512.836 -4.92001C512.296 -4.51001 511.756 -4.1 511.216 -3.69C510.126 -2.87 509.026 -2.07 507.926 -1.28C507.456 -0.949999 506.996 -0.629988 506.526 -0.299988C505.316 0.540012 504.106 1.36 502.876 2.16C502.376 2.48 501.876 2.81 501.376 3.12C501.226 3.22 501.076 3.32 500.926 3.41C500.436 3.73 499.936 4.03 499.436 4.34C498.866 4.7 498.286 5.04999 497.696 5.39999C496.536 6.09999 495.366 6.78001 494.186 7.45001C492.986 8.12001 491.786 8.78001 490.576 9.42001C489.386 10.05 488.196 10.67 486.996 11.26C486.476 11.52 485.966 11.77 485.446 12.02C485.246 12.12 485.056 12.21 484.856 12.31L483.326 13.03C482.716 13.32 482.096 13.6 481.476 13.88C480.856 14.16 480.236 14.43 479.616 14.7C478.376 15.25 477.116 15.77 475.866 16.28C475.236 16.53 474.596 16.79 473.966 17.03C473.336 17.28 472.696 17.52 472.066 17.76C471.026 18.15 469.976 18.53 468.926 18.89C468.336 19.11 467.746 19.31 467.156 19.5C466.846 19.6 466.546 19.71 466.246 19.81C465.456 20.07 464.656 20.33 463.856 20.57C461.776 21.22 459.676 21.83 457.576 22.39C456.626 22.65 455.666 22.89 454.706 23.13C453.926 23.32 453.146 23.5 452.366 23.68C451.906 23.79 451.436 23.9 450.966 24C449.056 24.42 447.146 24.8 445.216 25.15C444.466 25.29 443.726 25.42 442.976 25.54C442.796 25.57 442.626 25.6 442.456 25.63C441.546 25.78 440.626 25.92 439.706 26.05L439.286 26.11C438.496 26.22 437.706 26.33 436.916 26.43C436.606 26.46 436.296 26.5 435.986 26.54C435.286 26.63 434.586 26.71 433.886 26.78C433.336 26.84 432.786 26.89 432.226 26.94C431.536 27.01 430.856 27.07 430.166 27.13C429.156 27.21 428.136 27.28 427.126 27.34C426.156 27.4 425.186 27.45 424.216 27.49C423.316 27.53 422.416 27.56 421.526 27.58C421.176 27.59 420.836 27.6 420.496 27.6C419.566 27.62 418.636 27.63 417.716 27.63C402.877 27.6233 388.116 25.4847 373.886 21.28C365.505 18.8053 357.344 15.6411 349.486 11.82C345.376 9.82001 341.262 7.91 337.146 6.09C310.526 -5.8615 282.448 -14.2537 253.636 -18.87C239.2 -21.141 224.618 -22.3543 210.006 -22.5C199.72 -22.5985 189.499 -24.1299 179.636 -27.05C177.956 -27.54 176.226 -28.1 174.496 -28.7L172.496 -29.39L174.126 -30.75C178.925 -34.8439 184.22 -38.3178 189.886 -41.09C180.857 -39.7348 172.043 -37.2103 163.666 -33.58L163.166 -33.36L162.666 -33.6C146.315 -41.5405 132.181 -53.4019 121.524 -68.1276C110.867 -82.8533 104.018 -99.9861 101.586 -118H572.926Z" fill="#3F3D56"/>
<g opacity="0.15">
<path opacity="0.15" d="M101.586 -118C104.018 -99.9861 110.867 -82.8533 121.524 -68.1276C132.181 -53.4019 146.315 -41.5405 162.666 -33.6L163.166 -33.36L163.666 -33.58C172.043 -37.2103 180.857 -39.7348 189.886 -41.09C184.22 -38.3178 178.925 -34.8439 174.126 -30.75L172.496 -29.39L174.496 -28.7C176.226 -28.1 177.956 -27.54 179.636 -27.05C189.499 -24.1299 199.72 -22.5985 210.006 -22.5C224.618 -22.3543 239.2 -21.141 253.636 -18.87C282.448 -14.2537 310.526 -5.8615 337.146 6.09C341.266 7.91 345.379 9.82001 349.486 11.82C357.344 15.6411 365.505 18.8053 373.886 21.28C388.116 25.4847 402.877 27.6233 417.716 27.63C418.636 27.63 419.566 27.62 420.496 27.6C420.836 27.6 421.176 27.59 421.526 27.58C422.416 27.56 423.316 27.53 424.216 27.49C425.186 27.45 426.156 27.4 427.126 27.34C428.136 27.28 429.156 27.21 430.166 27.13C430.856 27.07 431.536 27.01 432.226 26.94C432.786 26.89 433.336 26.84 433.886 26.78C434.586 26.71 435.286 26.63 435.986 26.54C436.296 26.5 436.606 26.46 436.916 26.43C437.706 26.33 438.496 26.22 439.286 26.11L439.706 26.05C440.626 25.92 441.546 25.78 442.456 25.63C442.626 25.6 442.796 25.57 442.976 25.54C443.726 25.42 444.466 25.29 445.216 25.15C447.146 24.8 449.056 24.42 450.966 24C451.436 23.9 451.906 23.79 452.366 23.68C453.146 23.5 453.926 23.32 454.706 23.13C455.666 22.89 456.626 22.65 457.576 22.39C459.676 21.83 461.776 21.22 463.856 20.57C464.656 20.33 465.456 20.07 466.246 19.81C466.546 19.71 466.846 19.6 467.156 19.5C467.746 19.31 468.336 19.11 468.926 18.89C469.976 18.53 471.026 18.15 472.066 17.76C472.696 17.52 473.336 17.28 473.966 17.03C474.596 16.79 475.236 16.53 475.866 16.28C477.116 15.77 478.376 15.25 479.616 14.7C480.236 14.43 480.856 14.16 481.476 13.88C482.096 13.6 482.716 13.32 483.326 13.03L484.856 12.31C485.056 12.21 485.246 12.12 485.446 12.02C485.966 11.77 486.476 11.52 486.996 11.26C488.196 10.67 489.386 10.05 490.576 9.42001C491.786 8.78001 492.986 8.12001 494.186 7.45001C495.366 6.78001 496.536 6.09999 497.696 5.39999C498.286 5.04999 498.866 4.7 499.436 4.34C499.936 4.03 500.436 3.73 500.926 3.41C501.076 3.32 501.226 3.22 501.376 3.12C501.876 2.81 502.376 2.48 502.876 2.16C504.106 1.36 505.316 0.540012 506.526 -0.299988C506.996 -0.629988 507.456 -0.949999 507.926 -1.28C509.026 -2.07 510.126 -2.87 511.216 -3.69C511.756 -4.10004 512.296 -4.51005 512.836 -4.92001C513.376 -5.34001 513.906 -5.75999 514.446 -6.17999C514.976 -6.60004 515.506 -7.02999 516.036 -7.45999C517.616 -8.74999 519.173 -10.07 520.706 -11.42C521.216 -11.87 521.726 -12.32 522.236 -12.78C524.256 -14.61 526.236 -16.49 528.156 -18.43C528.646 -18.92 529.116 -19.41 529.596 -19.9C530.076 -20.39 530.546 -20.88 531.016 -21.38C531.486 -21.88 531.956 -22.38 532.416 -22.89C532.876 -23.39 533.336 -23.9 533.796 -24.41C499.38 -8.08844 460.155 -5.03003 423.626 -15.82C415.245 -18.2938 407.084 -21.4579 399.226 -25.28C378.455 -35.4757 356.726 -43.5887 334.356 -49.5C310.217 -55.8669 285.388 -59.2521 260.426 -59.58C260.206 -59.59 259.976 -59.59 259.756 -59.59C249.467 -59.6968 239.243 -61.2314 229.376 -64.15C227.696 -64.64 225.976 -65.2 224.246 -65.8L222.246 -66.49L223.866 -67.85C228.668 -71.9441 233.967 -75.418 239.636 -78.19C230.604 -76.8349 221.786 -74.3104 213.406 -70.68L212.906 -70.46L212.406 -70.7C191.448 -80.8795 174.255 -97.4388 163.296 -118H101.586Z" fill="black"/>
</g>
<path d="M127.947 378.509L121.65 377.726L121.528 352.539L130.822 353.695L127.947 378.509Z" fill="#E8878B"/>
<path d="M163.127 362.692C162.815 363.071 162.502 363.446 162.184 363.822C161.553 364.574 160.911 365.32 160.267 366.059C159.942 366.429 159.614 366.8 159.289 367.166L159.293 367.178L159.27 367.19L159.263 367.196L158.7 367.553L157.04 365.518L156.275 364.581L155.193 363.254L153.212 360.825L142.779 348.04L150.688 343.035L151.452 344.247L151.456 344.246L151.834 344.847L158.924 356.053L160.372 358.345L160.417 358.414L161.287 359.782L162.037 360.967L162.875 362.293L163.127 362.692Z" fill="#E8878B"/>
<path d="M197.373 294.115C197.12 295.175 196.853 296.235 196.58 297.289C196.073 299.249 195.53 301.195 194.952 303.126C194.953 303.13 194.949 303.131 194.947 303.136C194.503 303.946 193.967 304.701 193.348 305.386C193.324 305.421 193.294 305.449 193.269 305.479C192.811 305.977 192.293 306.416 191.728 306.787C191.523 306.918 191.315 307.049 191.11 307.18C190.368 307.64 189.625 308.07 188.88 308.479C187.552 309.202 186.213 309.85 184.865 310.423C184.757 310.472 184.648 310.517 184.539 310.563C178.918 312.776 173.028 314.235 167.023 314.902C163.978 315.316 160.837 315.642 157.585 315.979C156.521 316.086 155.455 316.199 154.377 316.315C154.296 316.324 154.209 316.331 154.124 316.342C152.583 316.506 151.019 316.683 149.421 316.875C147.409 317.117 145.342 317.391 143.205 317.71L144.299 320.506C145.149 322.654 146.324 324.658 147.782 326.449C148.839 327.611 149.649 328.975 150.164 330.458C150.68 331.942 150.889 333.514 150.781 335.081L150.758 337.323C151.451 338.201 151.932 339.228 152.161 340.323C152.391 341.417 152.363 342.551 152.081 343.633L152.012 343.891L162.69 356.599L163.382 357.423L160.418 358.413L156.774 359.635L150.596 361.698L135.709 346.792L134.997 346.081L134.982 346.037L124.424 311.362C124.335 311.055 124.256 310.739 124.195 310.423C123.897 308.991 123.888 307.514 124.167 306.078C124.446 304.642 125.009 303.276 125.821 302.059C126.598 300.887 127.6 299.881 128.769 299.099C129.938 298.317 131.251 297.776 132.631 297.506L135.814 296.882L142.317 295.605L146.898 294.709L146.99 294.692L160.5 292.041L160.163 287.942L160.314 287.821L165.098 284.001L181.647 270.791L181.689 270.759L182.778 269.89L183.005 270.08C183.073 270.137 183.141 270.194 183.205 270.253C185.165 272.041 186.937 274.025 188.494 276.174C191.074 279.671 193.452 283.313 195.617 287.081C195.712 287.244 195.797 287.393 195.873 287.528L195.9 287.567C195.934 287.631 195.957 287.672 195.965 287.683C197.037 289.649 197.526 291.881 197.373 294.115V294.115Z" fill="#001115"/>
<path d="M193.938 281.184C193.793 280.949 193.631 280.715 193.467 280.49C192.198 278.798 190.837 277.178 189.39 275.636C187.756 273.877 185.624 265.022 185.596 265L160.53 274.113L156.596 274L159.324 281.289L159.325 281.293L155.985 287.504L155.952 287.51L145.196 289.618L134.111 291.791L128.157 292.959C126.777 293.229 125.464 293.77 124.295 294.552C123.126 295.334 122.124 296.34 121.348 297.513C120.535 298.729 119.973 300.095 119.694 301.531C119.415 302.967 119.424 304.444 119.721 305.876C119.779 306.167 119.851 306.463 119.934 306.75L118.811 321.307C118.138 330.014 118.782 338.772 120.723 347.286L120.991 361.228L121.571 361.092L130.198 359.075L132.477 358.544L134.97 349.816C135.254 348.821 135.502 347.811 135.707 346.794C136.05 345.13 136.285 343.446 136.413 341.753L138.572 313.19C139.433 313.058 140.283 312.922 141.122 312.782C145.011 312.148 148.716 311.453 152.236 310.696C162.301 308.696 172.099 305.53 181.43 301.26C183.722 300.171 185.903 299.017 187.974 297.797C188.734 297.353 189.48 296.898 190.21 296.434C190.383 296.328 190.551 296.223 190.719 296.113C192.225 295.138 193.463 293.8 194.318 292.222C195.174 290.645 195.62 288.878 195.616 287.083C195.63 284.997 195.048 282.95 193.938 281.184V281.184Z" fill="#001115"/>
<path d="M128.445 374.224L121.629 373.371L120.56 373.236L120.295 377.341L110.777 383.034C110.306 383.315 109.937 383.739 109.725 384.244C109.512 384.75 109.467 385.31 109.595 385.843C109.724 386.376 110.02 386.854 110.439 387.207C110.859 387.56 111.38 387.77 111.927 387.805L123.334 388.548L125.563 384.616L126.067 388.726L130.363 389.007L130.102 374.433L128.445 374.224Z" fill="#001115"/>
<path d="M162.689 356.599L163.381 357.423L163.006 357.548L162.689 356.599Z" fill="#2F2E41"/>
<path d="M161.028 358.435L155.585 362.624L154.73 363.28L157.43 366.383L154.672 377.126C154.536 377.657 154.572 378.218 154.777 378.727C154.981 379.235 155.343 379.665 155.81 379.954C156.276 380.242 156.823 380.374 157.369 380.329C157.916 380.285 158.434 380.067 158.847 379.707L167.476 372.209L166.293 367.847L169.543 370.413L172.793 367.589L162.353 357.417L161.028 358.435Z" fill="#001115"/>
<path d="M208.751 205.348C208.355 205.907 208.087 206.546 207.964 207.22C207.842 207.894 207.869 208.586 208.043 209.249C208.218 209.911 208.535 210.527 208.973 211.054C209.411 211.58 209.959 212.004 210.579 212.296L208.82 228.851L216.505 224.878L216.998 209.766C217.419 208.692 217.431 207.502 217.033 206.419C216.635 205.337 215.853 204.439 214.837 203.894C213.82 203.35 212.639 203.197 211.518 203.465C210.396 203.733 209.412 204.403 208.751 205.348V205.348Z" fill="#E8878B"/>
<path d="M171.186 227.04C172.226 229.028 173.524 230.871 175.046 232.52C179.426 237.2 193.346 246.98 202.466 251.7C206.556 253.81 209.465 254.581 210.566 254.08C215.822 251.687 220.568 212.33 217.596 212L209.596 219V221L205.966 237.02C205.966 237.02 205.156 236.04 203.776 234.47C199.276 229.38 191.626 219.98 182.596 216C179.766 221.19 171.736 226.42 171.736 226.42C171.736 226.42 171.526 226.64 171.186 227.04Z" fill="#E86305"/>
<path d="M165.096 324H192.911L193.083 322.696L221.119 110.553C221.498 107.691 221.021 104.78 219.749 102.188C218.477 99.5965 216.467 97.4386 213.972 95.9864C211.477 94.5341 208.608 93.8523 205.726 94.0267C202.844 94.2012 200.078 95.2241 197.776 96.9668L199.588 99.3574C201.418 97.9723 203.617 97.1593 205.908 97.0209C208.199 96.8824 210.48 97.4247 212.464 98.5794C214.447 99.7342 216.045 101.45 217.056 103.51C218.067 105.571 218.446 107.885 218.145 110.16L190.281 321H165.096V324Z" fill="#3F3D56"/>
</svg>
