    <svg width="472" height="173" view-box="0 0 472 173" fill="none" xmlns="http://www.w3.org/2000/svg">
      <path d="M359.38 162.703C359.38 162.703 328.366 97.2331 355.635 82.9246C382.904 68.6162 374.623 116.631 374.623 116.631C374.623 116.631 364.686 152.534 364.401 162.703C364.116 172.872 359.38 162.703 359.38 162.703Z" fill="#ADEAC9" />
      <path d="M362.555 167.329C354.2 119.145 362.481 87.6773 362.555 87.3711L363.61 87.6668C363.526 87.973 355.319 119.219 363.61 167.139L362.555 167.329Z" fill="#50D171" />
      <path d="M358.736 162.198C358.736 162.198 353.367 146.009 340.118 140.983C326.868 135.957 311.572 123.971 319.526 114.362C327.48 104.753 349.169 116.875 356.057 143.612C360.772 161.796 358.736 162.198 358.736 162.198Z" fill="#ADEAC9" />
      <path d="M358.199 162.378C352.122 143.814 343.831 132.958 337.934 127.119C331.552 120.783 326.541 118.84 326.489 118.829L326.9 117.773C327.111 117.847 332.174 119.801 338.672 126.221C344.675 132.145 353.124 143.117 359.275 161.987L358.199 162.378Z" fill="#50D171" />
      <path d="M362.566 164.183C362.566 164.183 367.935 148.006 381.185 142.979C394.434 137.953 409.73 125.967 401.776 116.358C393.822 106.749 372.144 118.871 365.245 145.608C360.551 163.782 362.566 164.183 362.566 164.183Z" fill="#ADEAC9" />
      <path d="M363.104 164.362L362.049 164.013C368.199 145.185 376.649 134.171 382.651 128.237C389.191 121.785 394.255 119.789 394.423 119.789L394.835 120.845C394.613 120.887 374.718 128.828 363.104 164.362Z" fill="#50D171" />
      <path d="M363.051 167.33C363.051 167.33 369.444 158.048 378.779 157.308C388.115 156.569 400.035 151.775 396.712 144.204C393.39 136.633 377.44 140.339 368.135 156.031C361.827 166.707 363.051 167.33 363.051 167.33Z" fill="#ADEAC9" />
      <path d="M363.367 167.54L362.745 167.118C376.881 146.4 391.312 145.016 391.449 145.006L391.512 145.756C388.41 146.249 385.429 147.324 382.725 148.924C377.904 151.521 370.636 156.875 363.367 167.54Z" fill="#50D171" />
      <path d="M363.367 167.541C363.367 167.541 356.975 158.259 347.639 157.519C338.303 156.78 326.383 151.986 329.706 144.415C333.029 136.843 348.979 140.55 358.283 156.242C364.57 166.918 363.367 167.541 363.367 167.541Z" fill="#ADEAC9" />
      <path d="M363.051 167.751C349.116 147.329 335.044 145.977 334.906 145.967L334.97 145.217C335.107 145.217 349.538 146.611 363.673 167.329L363.051 167.751Z" fill="#50D171" />
      <path d="M349.295 168.08C349.295 168.08 354.517 149.22 368.178 157.087C368.178 157.087 381.258 148.143 388.4 156.285C388.4 156.285 412.958 156.021 419.287 168.407L349.295 168.08Z" fill="#ADEAC9" />
      <path d="M295.095 98.553C298.084 98.553 300.507 96.1277 300.507 93.1359C300.507 90.1441 298.084 87.7188 295.095 87.7188C292.106 87.7188 289.683 90.1441 289.683 93.1359C289.683 96.1277 292.106 98.553 295.095 98.553Z" fill="#DCE9F4" />
      <path d="M295.095 93.1367C295.095 93.1367 309.716 125.439 308.313 168.808" stroke="#DCE9F4" stroke-miterlimit="10" />
      <path d="M324.495 98.553C327.484 98.553 329.906 96.1277 329.906 93.1359C329.906 90.1441 327.484 87.7188 324.495 87.7188C321.506 87.7188 319.083 90.1441 319.083 93.1359C319.083 96.1277 321.506 98.553 324.495 98.553Z" fill="#DCE9F4" />
      <path d="M324.495 93.1367C324.495 93.1367 309.874 125.439 311.277 168.808" stroke="#DCE9F4" stroke-miterlimit="10" />
      <path d="M323.039 66.8753C326.028 66.8753 328.451 64.45 328.451 61.4582C328.451 58.4664 326.028 56.041 323.039 56.041C320.05 56.041 317.627 58.4664 317.627 61.4582C317.627 64.45 320.05 66.8753 323.039 66.8753Z" fill="#DCE9F4" />
      <path d="M323.039 61.457C323.039 61.457 308.408 125.438 309.811 168.807" stroke="#DCE9F4" stroke-miterlimit="10" />
      <path d="M39.031 168.807C39.031 168.807 -17.9331 159.303 5.80195 126.04C29.537 92.777 62.766 119.704 62.766 119.704C62.766 119.704 15.296 59.5139 62.766 46.8422C110.236 34.1705 127.642 89.6091 122.895 107.814C122.895 107.814 161.926 56.3459 181.969 65.8497C202.012 75.3535 216.242 99.1023 205.176 116.536C205.176 116.536 241.57 116.536 233.658 135.544C233.658 135.544 328.598 51.6046 274.799 168.807H39.031Z" fill="#ADEAC9" />
      <path d="M301.055 59.2195L315.001 49.2617C312.615 43.2261 311.947 36.6468 313.07 30.2542C314.22 23.9817 317.501 16.3681 325.033 8.07873C325.033 8.07873 327.143 5.41768 323.83 2.12305L286.382 28.8814" fill="#E8878B" />
      <path d="M324.569 1.5734L323.45 0L284.768 27.6242L285.738 29.3032L324.569 1.5734Z" fill="#FFF3F3" />
      <path d="M286.118 29.8309L291.276 38.7328C291.492 37.2341 291.896 35.7687 292.479 34.3716C293.365 32.3652 295.506 29.5564 300.602 26.3462C310.939 19.8414 302.247 19.1973 302.247 19.1973L286.118 29.8309Z" fill="white" />
      <path d="M285.738 29.3032L324.474 1.63672C327.638 4.85744 325.645 7.45513 325.645 7.45513C324.146 9.08059 322.737 10.7868 321.425 12.566C319.377 15.2463 317.58 18.1095 316.056 21.1194C311.33 21.6368 307.437 18.7963 288.702 32.3866C289.071 32.9041 289.346 33.5905 289.652 34.1079C290.126 34.921 289.008 35.977 289.166 35.1005L285.738 29.3032Z" fill="#1C3D4F" />
      <path d="M310.623 42.0273L310.866 45.0474L297.669 54.4667L296.319 52.2492L310.623 42.0273Z" fill="#DD7A81" />
      <path d="M330.181 160.803H331.235C339.21 160.592 347.111 160.054 355.034 159.483L349.337 143.242L313.408 43.2207L295.369 56.1036L330.181 160.645C330.181 160.687 330.181 160.74 330.181 160.803Z" fill="#00BCF2" />
      <path d="M318.577 125.746C318.577 125.746 326.879 129.812 333.25 129.833C336.901 129.888 340.534 129.313 343.989 128.133L346.046 135.641L336.742 154.099L325.254 146.528L318.577 125.746Z" fill="#00AEE0" />
      <path d="M302.562 57.1368L302.163 57.2734L336.533 157.935L336.932 157.798L302.562 57.1368Z" fill="#5DABCE" />
      <path d="M410.057 62.0912L425.88 68.522C429.711 63.2546 434.925 59.1534 440.944 56.674C446.862 54.277 455.037 52.9676 466.05 54.8894C466.05 54.8894 469.416 55.2168 470.428 50.6655L427.79 33.4004" fill="#E8878B" />
      <path d="M471.272 51.0133L472 49.2288L427.948 31.3828L427.062 33.104L471.272 51.0133Z" fill="#FFF3F3" />
      <path d="M426.819 33.707L422.093 42.8412C423.471 42.2202 424.92 41.7733 426.408 41.5107C428.518 41.1833 432.083 41.5107 437.526 44.0661C448.56 49.346 444.436 41.6163 444.436 41.6163L426.819 33.707Z" fill="white" />
      <path d="M427.062 33.1055L471.167 50.9725C470.175 55.4182 466.884 55.0908 466.884 55.0908C464.72 54.7061 462.537 54.4417 460.344 54.2988C456.986 53.9915 453.606 53.9915 450.248 54.2988C447.274 50.5818 447.579 45.7771 426.07 37.2343C425.838 37.8257 425.395 38.4276 425.131 38.9661C424.699 39.8003 423.201 39.4202 424.076 39.0823L427.062 33.1055Z" fill="#1C3D4F" />
      <path d="M429.688 60.9514L427.273 62.7782L412.251 56.6853L413.39 54.3516L429.688 60.9514Z" fill="#DD7A81" />
      <path d="M255.98 170.011L257.193 120.571C257.193 120.571 277.12 109.568 298.745 119.705L336.626 141.743C337.202 142.081 337.879 142.201 338.536 142.08C339.192 141.96 339.783 141.608 340.202 141.088L409.635 55.6074L430.174 63.939L365.203 147.994L351.278 165.703C347.407 170.624 343.704 170.613 334.959 169.98L255.98 170.011Z" fill="#00BCF2" />
      <path d="M286.93 146.653L286.593 146.399C286.677 146.294 294.61 135.649 292.51 127.635C291.709 124.583 289.546 122.281 286.086 120.771L286.255 120.391C289.842 121.943 292.078 124.351 292.911 127.529C295.053 135.734 286.993 146.537 286.93 146.653Z" fill="#5DABCE" />
      <path d="M336.616 156.758H336.415L265.242 155.322V154.9L336.426 156.346C337.941 156.373 339.44 156.04 340.803 155.376C342.165 154.712 343.351 153.734 344.264 152.524L412.272 62.0059L412.61 62.2593L344.601 152.777C343.667 154.012 342.46 155.015 341.075 155.705C339.689 156.396 338.163 156.756 336.616 156.758Z" fill="#5DABCE" />
      <path d="M196.452 132.187L192.961 156.168C193.11 157.355 193.006 158.56 192.655 159.704C192.304 160.847 191.715 161.903 190.926 162.801C190.138 163.7 189.167 164.42 188.079 164.915C186.992 165.41 185.811 165.668 184.616 165.672L129.762 165.419C128.087 163.784 126.868 161.737 126.228 159.484C125.934 158.278 125.947 157.017 126.268 155.817C126.589 154.617 127.206 153.518 128.064 152.62L172.232 151.153L179.331 106.411C179.115 105.066 179.176 103.69 179.512 102.369C179.849 101.049 180.453 99.8116 181.286 98.7343C182.12 97.6571 183.166 96.7628 184.36 96.107C185.553 95.4512 186.868 95.0479 188.224 94.9221C188.523 94.9062 188.822 94.9062 189.121 94.9221C193.952 94.9749 197.233 98.7341 198.9 101.258C199.705 102.511 200.221 103.929 200.408 105.408L196.452 132.187Z" fill="#E8878B" />
      <path d="M195.967 135.577C195.967 135.577 184.806 136.633 175.766 130.667L176.051 125.746L196.716 130.667L195.967 135.577Z" fill="#DD7A81" />
      <path d="M192.961 156.168C193.11 157.355 193.006 158.56 192.655 159.703C192.305 160.847 191.715 161.903 190.927 162.801C190.138 163.7 189.167 164.42 188.08 164.915C186.992 165.41 185.811 165.668 184.616 165.672L129.762 165.419C129.762 165.419 133.56 158.608 135.29 156.189C135.29 156.189 183.815 154.743 188.847 154.13C193.878 153.518 181.125 133.38 181.125 133.38L189.891 133.021L196.505 132.219L192.961 156.168Z" fill="#DD7A81" />
      <path d="M114.667 166.569L112.188 165.988C111.599 165.851 111.049 165.58 110.582 165.196C110.115 164.812 109.742 164.325 109.493 163.773C109.244 163.222 109.126 162.62 109.147 162.015C109.168 161.411 109.327 160.819 109.614 160.286L112.684 154.573C113.01 153.943 113.502 153.414 114.106 153.042C114.71 152.67 115.403 152.469 116.112 152.461H127.347C128.383 152.464 129.376 152.876 130.111 153.607C130.846 154.339 131.262 155.331 131.271 156.368V163.422C131.275 163.897 131.184 164.369 131.002 164.808C130.821 165.247 130.552 165.645 130.214 165.978C129.875 166.311 129.473 166.573 129.031 166.747C128.589 166.921 128.117 167.004 127.642 166.991L114.614 166.505" fill="#E8878B" />
      <path d="M114.508 161.469L111.407 165.788C111.129 166.174 110.76 166.486 110.333 166.696C109.907 166.905 109.435 167.007 108.96 166.992H108.654C108.409 166.984 108.17 166.915 107.96 166.791C107.749 166.666 107.573 166.491 107.448 166.28C107.323 166.07 107.252 165.831 107.244 165.586C107.235 165.341 107.288 165.098 107.398 164.88L109.318 161.025L114.508 161.469Z" fill="#E8878B" />
      <path d="M116.766 155.967C116.766 155.967 113.485 159.293 114.656 166.009C114.764 166.603 115.101 167.131 115.595 167.477C116.062 167.811 116.607 168.022 117.177 168.089C117.508 168.119 117.841 168.077 118.154 167.965C118.467 167.854 118.752 167.677 118.991 167.445C119.229 167.214 119.415 166.934 119.535 166.624C119.655 166.314 119.707 165.982 119.688 165.65C119.561 163.538 119.593 159.663 121.154 157.72C121.163 157.273 121.03 156.835 120.774 156.469C120.518 156.102 120.152 155.827 119.73 155.682C119.245 155.513 118.728 155.452 118.217 155.501C117.705 155.55 117.211 155.709 116.766 155.967Z" fill="#E8878B" />
      <path d="M117.441 168.311H117.146C116.542 168.244 115.966 168.026 115.468 167.678C114.917 167.3 114.537 166.719 114.413 166.062C113.856 163.362 114.131 160.555 115.205 158.016C115.212 157.986 115.226 157.958 115.245 157.934C115.265 157.91 115.289 157.89 115.317 157.877C115.344 157.863 115.375 157.856 115.406 157.856C115.436 157.855 115.467 157.861 115.495 157.874C115.523 157.886 115.548 157.905 115.568 157.928C115.589 157.951 115.604 157.979 115.612 158.008C115.621 158.038 115.623 158.069 115.618 158.1C115.613 158.13 115.602 158.159 115.584 158.185C114.553 160.65 114.288 163.37 114.825 165.988C114.922 166.528 115.224 167.009 115.669 167.329C116.109 167.641 116.62 167.837 117.156 167.9C117.459 167.931 117.766 167.895 118.054 167.796C118.343 167.697 118.606 167.537 118.827 167.326C119.048 167.115 119.22 166.859 119.332 166.575C119.444 166.292 119.494 165.987 119.477 165.682C119.321 163.691 119.481 161.688 119.952 159.747C119.969 159.694 120.005 159.649 120.054 159.621C120.103 159.594 120.161 159.586 120.215 159.6C120.243 159.607 120.268 159.62 120.29 159.637C120.312 159.654 120.331 159.676 120.345 159.7C120.359 159.725 120.367 159.752 120.37 159.78C120.373 159.808 120.371 159.837 120.363 159.864C119.9 161.759 119.744 163.716 119.899 165.661C119.919 166.003 119.869 166.345 119.753 166.667C119.636 166.989 119.456 167.284 119.222 167.534C118.988 167.784 118.706 167.984 118.392 168.121C118.079 168.258 117.741 168.33 117.399 168.332L117.441 168.311Z" fill="#B73D46" />
      <path d="M121.386 156.653C121.386 156.653 118.106 159.99 119.276 166.696C119.328 166.992 119.437 167.275 119.598 167.529C119.76 167.782 119.969 168.002 120.215 168.174C120.682 168.509 121.227 168.716 121.798 168.776C122.128 168.805 122.462 168.763 122.775 168.652C123.087 168.541 123.373 168.363 123.611 168.132C123.849 167.9 124.035 167.62 124.155 167.31C124.276 167.001 124.328 166.668 124.308 166.337C124.182 164.225 124.213 160.349 125.775 158.406C125.783 157.959 125.65 157.521 125.394 157.155C125.138 156.789 124.773 156.513 124.35 156.368C123.865 156.201 123.349 156.139 122.837 156.188C122.326 156.238 121.831 156.396 121.386 156.653Z" fill="#E8878B" />
      <path d="M122.061 169.008H121.819C121.195 168.943 120.599 168.717 120.089 168.354C119.815 168.17 119.581 167.933 119.4 167.657C119.219 167.382 119.094 167.073 119.034 166.749C118.461 164.002 118.759 161.144 119.888 158.575C119.898 158.55 119.914 158.526 119.934 158.507C119.953 158.488 119.977 158.473 120.002 158.463C120.028 158.453 120.056 158.448 120.083 158.449C120.111 158.451 120.138 158.458 120.162 158.47C120.212 158.493 120.251 158.534 120.271 158.586C120.291 158.637 120.29 158.694 120.268 158.744C119.174 161.237 118.886 164.01 119.445 166.675C119.542 167.214 119.845 167.695 120.289 168.016C120.729 168.328 121.241 168.524 121.776 168.586C122.08 168.617 122.386 168.582 122.675 168.483C122.963 168.384 123.227 168.223 123.447 168.013C123.668 167.802 123.84 167.546 123.952 167.262C124.065 166.978 124.114 166.673 124.097 166.368C123.97 164.577 124.08 162.777 124.424 161.015C124.43 160.988 124.442 160.962 124.458 160.939C124.474 160.917 124.495 160.898 124.518 160.883C124.542 160.868 124.568 160.858 124.595 160.854C124.622 160.849 124.65 160.85 124.677 160.856C124.704 160.862 124.73 160.874 124.753 160.89C124.775 160.906 124.794 160.927 124.809 160.95C124.824 160.974 124.834 161 124.838 161.027C124.843 161.055 124.842 161.083 124.836 161.11C124.491 162.847 124.384 164.623 124.519 166.39C124.536 166.731 124.484 167.072 124.367 167.393C124.25 167.713 124.069 168.007 123.835 168.256C123.602 168.506 123.321 168.705 123.009 168.844C122.697 168.982 122.36 169.056 122.019 169.061L122.061 169.008Z" fill="#B73D46" />
      <path d="M111.407 166.009H111.281C111.242 165.97 111.22 165.917 111.22 165.861C111.22 165.806 111.242 165.753 111.281 165.714L114.382 161.374C114.401 161.353 114.423 161.337 114.449 161.326C114.474 161.314 114.502 161.309 114.53 161.309C114.557 161.309 114.585 161.314 114.61 161.326C114.636 161.337 114.658 161.353 114.677 161.374C114.697 161.391 114.714 161.413 114.725 161.438C114.736 161.463 114.742 161.489 114.742 161.516C114.742 161.543 114.736 161.57 114.725 161.594C114.714 161.619 114.697 161.641 114.677 161.659L111.576 165.999C111.55 166.013 111.522 166.022 111.493 166.024C111.463 166.026 111.434 166.021 111.407 166.009Z" fill="#B73D46" />
      <path d="M175.112 124.477L179.447 99.1339C179.599 97.1745 180.206 95.2777 181.221 93.5955C182.236 91.9132 183.63 90.4922 185.292 89.4463C186.954 88.4004 188.838 87.7586 190.793 87.5723C192.747 87.386 194.718 87.6604 196.547 88.3736C199.253 89.4233 201.512 91.3774 202.942 93.9044C204.373 96.4314 204.886 99.3758 204.396 102.238L201.347 130.75C201.347 130.75 196.537 133.263 187.633 131.193C178.73 129.124 175.112 124.477 175.112 124.477Z" fill="#FFAB2F" />
      <path d="M175.871 154.309C174.257 151.817 174.257 151.817 172.126 151.31L172.221 150.898C174.5 151.437 174.532 151.469 176.219 154.066L175.871 154.309Z" fill="black" />
      <path d="M197.802 127.436C193.583 127.436 186.283 126.38 175.47 121.195L176.072 119.928C193.309 128.196 201.484 125.662 201.59 125.662L202.033 126.992C200.652 127.348 199.227 127.497 197.802 127.436Z" fill="white" />
      <path d="M184.289 54.6464C184.289 54.6464 187.939 63.0942 196.8 66.1882C205.661 69.2822 200.197 78.1418 200.197 78.1418C200.197 78.1418 204.817 84.8578 199.237 87.8039C193.657 90.7501 190.798 90.465 189.479 90.1587C189.479 90.1587 186.694 99.8526 172.474 94.6572C158.255 89.4618 169.531 80.75 169.531 80.75C169.531 80.75 163.508 72.1861 171.873 63.147C171.873 63.147 174.152 60.1058 173.308 53.4531" fill="#070707" />
      <path d="M188.963 106.104C190.175 106.082 191.369 105.805 192.467 105.292C193.566 104.779 194.544 104.041 195.34 103.125C196.135 102.209 196.73 101.137 197.085 99.9762C197.44 98.816 197.548 97.594 197.402 96.3893L194.838 75.7028C194.645 74.0961 193.862 72.6186 192.642 71.5571C191.422 70.4956 189.851 69.9258 188.235 69.9584C186.618 69.9895 185.07 70.6202 183.891 71.7282C182.712 72.8363 181.986 74.3429 181.853 75.9563L180.165 96.7378C180.066 97.9455 180.221 99.1607 180.62 100.305C181.02 101.448 181.655 102.496 182.484 103.379C183.313 104.261 184.318 104.96 185.434 105.43C186.55 105.899 187.752 106.129 188.963 106.104Z" fill="#E8878B" />
      <path d="M175.977 77.0861C174.734 77.0868 173.54 76.6062 172.643 75.745C172.185 75.3087 171.818 74.785 171.564 74.2047C171.31 73.6244 171.175 72.9992 171.166 72.3659C171.141 71.0877 171.623 69.8517 172.507 68.9291C173.391 68.0065 174.605 67.4728 175.882 67.4451C176.521 67.4279 177.156 67.5417 177.75 67.7796C178.343 68.0175 178.881 68.3744 179.331 68.8284C179.79 69.2659 180.158 69.79 180.413 70.3705C180.669 70.951 180.807 71.5764 180.82 72.2106C180.832 72.8448 180.719 73.4752 180.488 74.0655C180.256 74.6558 179.909 75.1943 179.468 75.65C179.033 76.1091 178.509 76.4765 177.93 76.7304C177.35 76.9842 176.726 77.1195 176.093 77.1283L175.977 77.0861ZM171.863 72.3448C171.885 73.4233 172.328 74.4503 173.096 75.2062C173.865 75.962 174.899 76.3866 175.977 76.3891H176.072C177.13 76.3183 178.121 75.8419 178.838 75.059C179.554 74.276 179.942 73.2467 179.92 72.1849C179.899 71.1231 179.469 70.1106 178.721 69.3577C177.973 68.6047 176.963 68.1694 175.903 68.142C175.36 68.153 174.825 68.271 174.328 68.4894C173.831 68.7077 173.382 69.0221 173.007 69.4145C172.632 69.8069 172.337 70.2696 172.141 70.7761C171.945 71.2825 171.85 71.8228 171.863 72.3659V72.3448Z" fill="white" />
      <path d="M180.513 92.4513C180.513 92.4513 193.066 92.1979 195.281 79.4206L181.831 75.957L180.513 92.4513Z" fill="#D6656D" />
      <path d="M185.118 84.2605L191.931 84.1224C197.715 84.0052 202.309 79.2165 202.192 73.4265L201.801 54.0956C201.684 48.3056 196.9 43.707 191.116 43.8242L184.303 43.9623C178.519 44.0795 173.925 48.8683 174.042 54.6582L174.433 73.9892C174.55 79.7791 179.334 84.3778 185.118 84.2605Z" fill="#E8878B" />
      <path d="M184.152 71.9542C183.572 71.9542 182.929 71.8697 182.739 71.5424C182.681 71.4377 182.659 71.3172 182.677 71.1991C182.694 71.081 182.749 70.9716 182.834 70.8877C183.393 70.1062 183.888 65.8824 184.005 64.3301H184.426C184.374 64.9214 183.899 70.0851 183.171 71.0989C183.108 71.1939 183.076 71.2678 183.097 71.2995C183.213 71.5001 184.205 71.5424 185.017 71.4473V71.8592C184.731 71.9072 184.442 71.9389 184.152 71.9542Z" fill="#B73D46" />
      <path d="M184.849 77.3401C183.758 77.3434 182.678 77.1129 181.684 76.6643L181.853 76.2841C182.822 76.7158 183.874 76.9292 184.935 76.9091C185.996 76.8891 187.04 76.6361 187.992 76.168L188.203 76.527C187.168 77.0673 186.016 77.3464 184.849 77.3401Z" fill="#B73D46" />
      <path d="M177.306 65.2167C177.994 65.2167 178.551 64.6588 178.551 63.9707C178.551 63.2825 177.994 62.7246 177.306 62.7246C176.619 62.7246 176.061 63.2825 176.061 63.9707C176.061 64.6588 176.619 65.2167 177.306 65.2167Z" fill="#070707" />
      <path d="M180.239 62.303L180.671 61.7539C179.649 60.9383 178.381 60.4941 177.074 60.4941C175.767 60.4941 174.499 60.9383 173.477 61.7539L173.93 62.2925C174.821 61.5648 175.937 61.1682 177.086 61.1701C178.236 61.172 179.35 61.5723 180.239 62.303Z" fill="#070707" />
      <path d="M191.79 65.2382C192.477 65.2382 193.034 64.6803 193.034 63.9921C193.034 63.304 192.477 62.7461 191.79 62.7461C191.102 62.7461 190.545 63.304 190.545 63.9921C190.545 64.6803 191.102 65.2382 191.79 65.2382Z" fill="#070707" />
      <path d="M194.722 62.303L195.155 61.7539C194.133 60.9383 192.865 60.4941 191.558 60.4941C190.251 60.4941 188.982 60.9383 187.96 61.7539L188.414 62.2925C189.305 61.5648 190.42 61.1682 191.57 61.1701C192.72 61.172 193.834 61.5723 194.722 62.303Z" fill="#070707" />
      <path d="M176.24 92.9266C173.424 91.5116 171.936 89.9382 171.842 88.2803C171.866 87.6025 172.054 86.9406 172.388 86.3506C172.722 85.7606 173.193 85.2598 173.761 84.8906L174.152 85.4714C173.688 85.7794 173.301 86.1901 173.021 86.6717C172.741 87.1532 172.576 87.6928 172.538 88.2486C172.622 89.6214 174.015 91.0258 176.557 92.3036L176.24 92.9266Z" fill="white" />
      <path d="M194.775 54.6915C195.631 51.6124 193.831 48.4222 190.755 47.566C187.679 46.7097 184.492 48.5117 183.636 51.5908C182.781 54.6699 184.581 57.8601 187.657 58.7163C190.733 59.5726 193.92 57.7706 194.775 54.6915Z" fill="#070707" />
      <path d="M257.193 120.582C257.193 120.582 243.543 125.27 220.092 96.2946C220.092 96.2946 206.21 83.549 188.91 91.2893C188.91 91.2893 169.669 99.9799 175.418 124.764C176.043 127.397 177.21 129.871 178.845 132.028C180.48 134.184 182.546 135.976 184.912 137.287C187.591 138.797 190.788 140.455 193.942 141.955C201.685 145.524 231.359 170.941 256.011 169.97L257.193 120.582Z" fill="#E86305" />
      <path d="M205.693 105.27L221.675 159.451L202.56 148.311L182.338 135.639L183.762 107.117L205.693 105.27Z" fill="#CE5500" />
      <path d="M207.212 109.42C207.032 107.939 206.516 106.52 205.704 105.27C204.037 102.735 200.756 98.9338 195.925 98.9338C195.63 98.9179 195.334 98.9179 195.039 98.9338C193.683 99.0582 192.366 99.4605 191.172 100.116C189.978 100.771 188.931 101.665 188.097 102.743C187.263 103.821 186.66 105.059 186.324 106.38C185.988 107.701 185.928 109.077 186.146 110.423L193.045 155.101L148.866 156.569C143.412 162.757 150.575 169.367 150.575 169.367L205.429 169.621C206.627 169.625 207.811 169.373 208.902 168.881C209.994 168.389 210.967 167.668 211.757 166.767C212.547 165.867 213.134 164.807 213.48 163.66C213.827 162.513 213.923 161.305 213.763 160.117L207.212 109.42Z" fill="#E8878B" />
      <path d="M210.482 134.648C210.482 134.648 199.986 140.868 190.07 136.834L189.479 133.043L209.86 129.875L210.482 134.648Z" fill="#DD7A81" />
      <path d="M135.49 170.56L133.011 169.979C132.422 169.842 131.873 169.571 131.406 169.187C130.938 168.803 130.566 168.316 130.317 167.765C130.068 167.213 129.949 166.612 129.97 166.007C129.991 165.402 130.151 164.81 130.437 164.277L133.507 158.575C133.836 157.947 134.329 157.42 134.932 157.048C135.535 156.677 136.227 156.474 136.935 156.463H148.17C149.207 156.463 150.202 156.874 150.937 157.606C151.673 158.338 152.089 159.332 152.094 160.37L152.157 167.424C152.16 167.9 152.068 168.371 151.885 168.811C151.702 169.25 151.433 169.648 151.094 169.981C150.754 170.314 150.351 170.575 149.909 170.749C149.466 170.923 148.993 171.006 148.518 170.993L135.49 170.497" fill="#E8878B" />
      <path d="M135.343 165.461L132.178 169.801C131.907 170.193 131.544 170.514 131.121 170.735C130.699 170.956 130.229 171.07 129.752 171.068H129.435C129.19 171.062 128.95 170.994 128.737 170.87C128.525 170.747 128.348 170.571 128.221 170.361C128.095 170.15 128.024 169.911 128.015 169.665C128.006 169.419 128.059 169.175 128.169 168.956L130.089 165.102L135.343 165.461Z" fill="#E8878B" />
      <path d="M137.6 159.959C137.6 159.959 134.309 163.285 135.49 170.001C135.537 170.297 135.644 170.581 135.804 170.835C135.963 171.089 136.172 171.308 136.418 171.48C136.886 171.811 137.431 172.018 138.001 172.081H138.054C138.383 172.109 138.715 172.066 139.027 171.954C139.339 171.842 139.623 171.664 139.86 171.433C140.097 171.202 140.282 170.922 140.401 170.613C140.521 170.304 140.573 169.973 140.554 169.642C140.438 167.53 140.469 163.655 142.02 161.712C142.031 161.263 141.899 160.823 141.642 160.454C141.386 160.086 141.02 159.809 140.596 159.663C140.105 159.493 139.583 159.431 139.065 159.482C138.548 159.533 138.048 159.696 137.6 159.959Z" fill="#E8878B" />
      <path d="M138.265 172.303H137.98C137.375 172.236 136.797 172.014 136.302 171.659C136.029 171.475 135.795 171.238 135.614 170.962C135.433 170.687 135.309 170.378 135.248 170.054C134.698 167.353 134.974 164.549 136.039 162.007C136.05 161.981 136.067 161.958 136.087 161.938C136.108 161.919 136.132 161.904 136.159 161.894C136.185 161.884 136.214 161.88 136.242 161.881C136.27 161.882 136.298 161.889 136.323 161.902C136.373 161.925 136.412 161.966 136.432 162.018C136.452 162.069 136.451 162.126 136.429 162.176C135.387 164.639 135.118 167.361 135.659 169.98C135.758 170.521 136.065 171.003 136.513 171.321C136.947 171.636 137.457 171.829 137.99 171.881C138.294 171.914 138.601 171.882 138.89 171.785C139.18 171.689 139.445 171.53 139.667 171.321C139.887 171.109 140.059 170.852 140.17 170.568C140.281 170.284 140.329 169.979 140.311 169.674C140.159 167.679 140.323 165.672 140.796 163.729C140.802 163.702 140.814 163.677 140.83 163.655C140.846 163.633 140.867 163.615 140.891 163.602C140.915 163.589 140.942 163.581 140.969 163.579C140.997 163.577 141.024 163.582 141.049 163.591C141.076 163.597 141.102 163.609 141.124 163.625C141.146 163.641 141.164 163.662 141.178 163.686C141.192 163.71 141.201 163.736 141.204 163.763C141.207 163.791 141.205 163.818 141.197 163.845C140.735 165.74 140.578 167.697 140.733 169.642C140.754 170.008 140.695 170.375 140.56 170.716C140.425 171.057 140.218 171.364 139.952 171.617C139.498 172.053 138.894 172.299 138.265 172.303Z" fill="#B73D46" />
      <path d="M142.22 160.655C142.22 160.655 138.929 163.982 140.11 170.698C140.16 170.993 140.267 171.276 140.426 171.53C140.586 171.784 140.794 172.004 141.039 172.176C141.507 172.508 142.051 172.715 142.621 172.778H142.674C143.004 172.808 143.337 172.765 143.649 172.654C143.962 172.543 144.247 172.365 144.484 172.134C144.722 171.902 144.906 171.622 145.025 171.312C145.144 171.002 145.195 170.67 145.174 170.339C145.058 168.227 145.09 164.362 146.64 162.419C146.651 161.97 146.519 161.53 146.263 161.161C146.007 160.793 145.64 160.516 145.216 160.37C144.726 160.198 144.204 160.135 143.687 160.184C143.17 160.233 142.669 160.394 142.22 160.655Z" fill="#E8878B" />
      <path d="M142.885 173.001H142.653C142.03 172.941 141.433 172.719 140.923 172.357C140.649 172.17 140.415 171.932 140.234 171.654C140.053 171.377 139.929 171.067 139.868 170.741C139.301 167.994 139.599 165.138 140.722 162.568C140.749 162.523 140.792 162.489 140.842 162.474C140.892 162.459 140.946 162.463 140.994 162.485C141.041 162.507 141.078 162.547 141.098 162.595C141.119 162.644 141.12 162.698 141.102 162.747C140.019 165.243 139.732 168.012 140.279 170.678C140.379 171.219 140.685 171.7 141.134 172.019C141.572 172.324 142.08 172.517 142.611 172.578C142.915 172.611 143.222 172.577 143.512 172.478C143.802 172.38 144.066 172.219 144.288 172.008C144.508 171.796 144.679 171.54 144.79 171.255C144.901 170.971 144.949 170.666 144.931 170.361C144.81 168.57 144.92 166.77 145.258 165.007C145.273 164.954 145.308 164.908 145.354 164.879C145.401 164.849 145.457 164.839 145.512 164.849C145.539 164.855 145.564 164.866 145.587 164.883C145.609 164.899 145.628 164.919 145.643 164.943C145.658 164.966 145.668 164.992 145.672 165.02C145.677 165.047 145.676 165.075 145.67 165.102C145.331 166.84 145.224 168.616 145.353 170.382C145.374 170.748 145.314 171.114 145.18 171.455C145.045 171.796 144.838 172.104 144.573 172.357C144.113 172.779 143.509 173.009 142.885 173.001Z" fill="#B73D46" />
      <path d="M132.231 170.011C132.19 170.025 132.145 170.025 132.104 170.011C132.068 169.97 132.048 169.918 132.048 169.863C132.048 169.809 132.068 169.756 132.104 169.715L135.205 165.386C135.238 165.34 135.287 165.308 135.342 165.298C135.398 165.288 135.455 165.301 135.501 165.333C135.547 165.365 135.578 165.415 135.588 165.47C135.598 165.525 135.586 165.583 135.554 165.629L132.389 169.969C132.343 170.003 132.287 170.018 132.231 170.011Z" fill="#B73D46" />
      <path d="M186.948 132.684L183.783 107.119C183.363 105.201 183.396 103.212 183.881 101.31C184.366 99.408 185.288 97.6458 186.574 96.1642C187.861 94.6826 189.475 93.5227 191.289 92.7771C193.103 92.0316 195.066 91.7211 197.022 91.8705C199.914 92.0917 202.64 93.307 204.74 95.3104C206.839 97.3137 208.182 99.982 208.541 102.863L213.816 131.015C213.816 131.015 209.934 134.817 200.788 135.419C191.642 136.021 186.948 132.684 186.948 132.684Z" fill="#E86305" />
      <path d="M196.695 158.301C195.091 155.809 195.091 155.809 192.95 155.302L193.045 154.9C195.323 155.439 195.366 155.471 197.053 158.068L196.695 158.301Z" fill="black" />
      <path d="M198.625 131.543C194.512 131.504 190.413 131.03 186.399 130.128L186.695 128.766C205.324 132.758 212.603 126.654 212.676 126.654L213.594 127.71C213.362 127.9 209.048 131.543 198.625 131.543Z" fill="white" />
      <path d="M195.324 56.9478C195.324 56.9478 193.963 54.6141 183.72 54.4874C183.72 54.4874 176.547 60.612 172.116 53.0618C167.685 45.5116 179.5 28.4999 187.644 41.2772C187.644 41.2772 194.775 38.4049 203.467 43.2835C207.51 45.7512 210.545 49.5758 212.033 54.0756C212.033 54.0756 215.694 62.5233 224.555 65.6279C233.416 68.7325 227.951 77.5182 227.951 77.5182C227.951 77.5182 232.572 84.2447 226.981 87.1803C221.39 90.1159 218.542 89.8414 217.234 89.5457C217.234 89.5457 214.438 99.2395 200.218 94.0441C185.998 88.8487 197.265 80.137 197.265 80.137C197.265 80.137 189.88 74.4664 198.319 69.6512C198.319 69.6934 197.602 59.9785 195.324 56.9478Z" fill="#070707" />
      <path d="M198.414 69.4295C200.292 69.4295 201.758 66.8846 201.716 64.8994C201.674 62.9142 200.144 62.2172 198.319 62.3017L198.414 69.4295Z" fill="#E8878B" />
      <path d="M198.921 67.5195V67.1605C198.874 66.6283 198.961 66.0929 199.173 65.6026C199.384 65.1122 199.715 64.6823 200.134 64.3516L200.366 64.7106C200.033 64.9511 199.763 65.2689 199.579 65.6367C199.395 66.0045 199.303 66.4114 199.311 66.8225C199.615 66.6605 199.962 66.6012 200.303 66.6536L200.218 67.0654C199.865 67.0435 199.514 67.1442 199.227 67.3505L198.921 67.5195Z" fill="#B73D46" />
      <path d="M200.06 78.4067C199.619 78.2544 199.221 77.9969 198.902 77.6566C198.582 77.3163 198.349 76.9033 198.225 76.4532C197.697 74.3412 199.796 71.7119 199.891 71.5957L200.429 72.0392C200.429 72.0392 198.457 74.4996 198.91 76.2631C199.009 76.607 199.191 76.9215 199.439 77.1792C199.687 77.4368 199.995 77.6299 200.334 77.7415L200.06 78.4067Z" fill="white" />
      <path d="M219.153 86.9693C218.176 86.9475 217.203 86.8201 216.252 86.5891L216.4 85.9133C223.236 87.36 224.301 83.4951 224.343 83.3262L225.019 83.4951C225.019 83.4951 224.09 86.9693 219.153 86.9693Z" fill="white" />
      <path d="M87.6403 172.579H86.0896C85.6568 172.576 85.2425 172.402 84.9365 172.096C84.6305 171.79 84.4573 171.375 84.4545 170.942L73.2727 112.863C73.2754 112.432 73.4471 112.019 73.7509 111.713C74.0547 111.407 74.4663 111.232 74.8972 111.227H76.4479C76.8779 111.232 77.2884 111.407 77.5905 111.713C77.8926 112.02 78.0619 112.433 78.0619 112.863L89.2437 170.942C89.2438 171.37 89.0759 171.782 88.7761 172.088C88.4763 172.394 88.0685 172.57 87.6403 172.579Z" fill="#DFEAF4" />
      <path d="M138.117 168.375H85.9209C85.1111 168.375 84.4546 169.032 84.4546 169.843V171.321C84.4546 172.132 85.1111 172.789 85.9209 172.789H138.117C138.927 172.789 139.583 172.132 139.583 171.321V169.843C139.583 169.032 138.927 168.375 138.117 168.375Z" fill="#D5E4EF" />
    </svg>
