<svg width="18" height="18" viewBox="0 0 18 18" fill="none" xmlns="http://www.w3.org/2000/svg">
<mask id="mask0_5668_3521" style="mask-type:alpha" maskUnits="userSpaceOnUse" x="0" y="0" width="18" height="18">
<rect width="18" height="18" fill="#D9D9D9"/>
</mask>
<g mask="url(#mask0_5668_3521)">
<path d="M1.5 5.25V1.5H5.25V3H3V5.25H1.5ZM1.5 16.5V12.75H3V15H5.25V16.5H1.5ZM12.75 16.5V15H15V12.75H16.5V16.5H12.75ZM15 5.25V3H12.75V1.5H16.5V5.25H15ZM13.125 13.125H14.25V14.25H13.125V13.125ZM13.125 10.875H14.25V12H13.125V10.875ZM12 12H13.125V13.125H12V12ZM10.875 13.125H12V14.25H10.875V13.125ZM9.75 12H10.875V13.125H9.75V12ZM12 9.75H13.125V10.875H12V9.75ZM10.875 10.875H12V12H10.875V10.875ZM9.75 9.75H10.875V10.875H9.75V9.75ZM14.25 3.75V8.25H9.75V3.75H14.25ZM8.25 9.75V14.25H3.75V9.75H8.25ZM8.25 3.75V8.25H3.75V3.75H8.25ZM7.125 13.125V10.875H4.875V13.125H7.125ZM7.125 7.125V4.875H4.875V7.125H7.125ZM13.125 7.125V4.875H10.875V7.125H13.125Z" fill="#4D5C6C"/>
</g>
</svg>

