    <svg width="100%" height="100%" viewBox="0 0 608 830" fill="none" xmlns="http://www.w3.org/2000/svg">
      <g clipPath="url(#clip0_1321_5563)">
        <path d="M353.825 752.047H101.764C79.7001 752.047 61.8127 734.141 61.8127 712.054V133.983C61.8127 111.896 79.7001 94.0059 101.764 94.0059H353.841C375.905 94.0059 393.792 111.912 393.792 133.983V712.054C393.776 734.141 375.889 752.047 353.825 752.047Z" fill="#455A64" />
        <path d="M67.0452 711.739V134.299C67.0452 114.926 82.7261 99.2285 102.079 99.2285H353.526C372.879 99.2285 388.56 114.926 388.56 134.299V711.739C388.56 731.112 372.879 746.81 353.526 746.81H102.079C82.7261 746.81 67.0452 731.112 67.0452 711.739Z" fill="#263238" />
        <path d="M358.254 103.676H300.794C296.46 103.676 292.646 106.547 291.432 110.712L287.776 123.317C286.421 127.987 282.15 131.189 277.296 131.189H178.293C173.439 131.189 169.168 127.971 167.813 123.317L164.157 110.712C162.943 106.547 159.129 103.676 154.795 103.676H110.101C90.4483 103.676 74.5151 119.626 74.5151 139.298V714.009C74.5151 727.309 85.279 738.084 98.5645 738.084H359.924C371.586 738.084 381.042 728.618 381.042 716.944V126.504C381.058 113.899 370.846 103.676 358.254 103.676Z" fill="#FAFAFA" />
        <ellipse cx="227.637" cy="281.423" rx="65.9733" ry="66.0421" fill="#E86305" />
        <rect x="104.606" y="406.961" width="247.251" height="53.5476" rx="26.7738" fill="#ADEAC9" />
        <rect x="104.606" y="502.156" width="247.251" height="53.5476" rx="26.7738" fill="#ADEAC9" />
        <path d="M497.437 744.898L499.493 787.344C499.493 787.344 521.888 804.348 559.511 799.053C559.868 799.016 560.209 798.888 560.502 798.682C560.795 798.476 561.031 798.198 561.187 797.875C561.343 797.552 561.414 797.194 561.393 796.836C561.372 796.478 561.261 796.131 561.068 795.828C558.929 792.377 553.615 786.19 541.05 780.216L532.29 748.361L497.437 744.898Z" fill="#130324" />
        <path d="M533.157 748.444L484.42 748.873L457.722 491.618L455.297 466.736L512.807 468.307L533.157 748.444Z" fill="#504951" />
        <path d="M457.27 751.466L408.533 746.551L412.61 482.252L413.454 473.887L466.506 477.825L457.27 751.466Z" fill="#504951" />
        <path d="M454.489 751.193L456.545 793.686C456.545 793.686 431.214 805.871 395.398 793.174C395.07 793.058 394.775 792.862 394.541 792.604C394.307 792.345 394.141 792.033 394.057 791.694C393.973 791.356 393.975 791.002 394.062 790.664C394.148 790.326 394.318 790.015 394.554 789.759C397.336 786.82 403.778 781.81 417.282 778.467L421.062 747.873L454.489 751.193Z" fill="#130324" />
        <path d="M513.282 474.482C513.267 475.576 512.826 476.62 512.054 477.393C511.281 478.167 510.238 478.608 509.145 478.623L491.315 478.814C484.979 478.873 473.282 483.335 468.48 482.145C463.677 480.955 451.767 480.456 446.893 479.968C442.019 479.48 421.276 475.981 418.566 475.006C417.796 474.737 416.999 474.554 416.189 474.458C415.138 474.322 414.178 473.794 413.499 472.98C412.821 472.166 412.474 471.126 412.527 470.067L413.134 458.168L513.52 460.631L513.282 474.482Z" fill="#2054A0" />
        <path d="M466.958 308.795C466.958 308.795 528.224 314.97 524.587 343.47C520.949 371.969 512.046 468.224 512.046 468.224C486.619 473.531 468.575 472.865 466.209 472.746C466.209 472.746 439.071 474.185 413.454 463.155C413.454 463.155 407.879 364.734 405.134 336.294C402.388 307.855 466.958 308.795 466.958 308.795Z" fill="#00BCF2" />
        <path d="M517.93 406.572C517.93 406.572 520.557 447.256 521.734 456.549C522.364 461.559 513.413 469.794 504.866 470.341C496.319 470.888 481.984 479.123 468.516 475.101C455.047 471.079 450.447 476.041 440.533 473.697C430.227 471.245 423.82 472.007 419.85 469.496C415.88 466.985 403.779 461.535 407.547 445.019C411.315 428.502 409.71 400.693 409.71 400.693L463.844 388.734L517.93 406.572Z" fill="#00BCF2" />
        <path d="M477.134 291.528L476.67 316.041C476.651 316.869 476.423 317.678 476.008 318.394C475.592 319.11 475.002 319.709 474.293 320.135C471.666 321.705 466.495 323.526 457.175 322.586C451.232 321.979 447.594 320.979 445.455 319.968C444.457 319.49 443.652 318.687 443.172 317.689C442.693 316.692 442.567 315.561 442.816 314.482L448.64 288.637L477.134 291.528Z" fill="#BF5259" />
        <path d="M435.481 287.067C437.776 278.737 438.786 265.422 438.786 265.422C438.921 259.664 441.336 254.195 445.5 250.22C449.663 246.244 455.233 244.087 460.985 244.223C466.737 244.359 472.2 246.776 476.171 250.944C480.142 255.111 482.297 260.687 482.162 266.445C483.802 286.103 471.559 300.525 471.559 300.525C471.559 300.525 458.661 313.543 446.168 309.045C433.674 304.547 433.187 295.42 435.481 287.067Z" fill="#D6656D" />
        <path d="M477.193 278.689L475.065 255.83C475.037 255.684 474.971 255.547 474.876 255.433C474.78 255.319 474.657 255.231 474.518 255.177C474.379 255.124 474.228 255.106 474.081 255.127C473.933 255.147 473.794 255.205 473.674 255.294C471.511 256.925 462.75 258.269 452.884 257.579C437.752 256.532 439.083 245.68 439.083 245.68C439.083 245.68 439.166 221.512 461.276 236.529C461.276 236.529 485.882 232.554 479.713 251.677C479.713 251.677 494.536 246.417 484.896 269.312C484.896 269.312 490.055 268.872 484.634 280.521L483.35 275.583L482.768 279.058C482.543 279.697 482.1 280.236 481.518 280.582C480.936 280.928 480.251 281.058 479.582 280.95L481.71 279.605C480.521 279.415 477.443 279.867 477.193 278.689Z" fill="black" />
        <path d="M480.878 276.832C481.063 276.154 481.499 275.572 482.098 275.205C482.696 274.838 483.412 274.714 484.099 274.857C485.752 275.249 487.523 276.725 487.416 281.282C487.214 289.683 477.443 288.755 477.443 288.755L480.878 276.832Z" fill="#D6656D" />
        <path d="M438.786 265.42C438.786 265.42 438.215 259.803 435.291 265.348C432.367 270.894 438.441 280.128 438.441 280.128L438.786 265.42Z" fill="#D6656D" />
        <path d="M444.325 253.617L440.07 270.36H438.322C438.322 270.36 435.945 256.997 442.162 251.178C448.379 245.359 444.325 253.617 444.325 253.617Z" fill="black" />
        <path d="M505.199 467.533C505.199 467.533 502.548 472.9 508.123 473.483L515.255 474.197C515.414 474.216 515.575 474.178 515.709 474.091C515.844 474.005 515.944 473.874 515.992 473.721C516.171 473.342 516.273 472.932 516.292 472.514C516.311 472.095 516.248 471.677 516.106 471.284C515.963 470.89 515.744 470.528 515.462 470.22C515.179 469.911 514.838 469.661 514.459 469.485" fill="#D6656D" />
        <path d="M524.218 438.475C524.218 438.475 509.811 441.949 504.165 449.125C498.518 456.3 500.325 459.299 500.325 459.299C500.325 459.299 503.796 471.412 512.854 470.008L533.728 462.666L524.218 438.475Z" fill="#D6656D" />
        <path d="M500.266 460.097C500.379 460.108 500.493 460.096 500.602 460.061C500.71 460.026 500.81 459.97 500.896 459.895L507.089 454.183C507.163 454.109 507.222 454.021 507.263 453.924C507.303 453.827 507.324 453.723 507.324 453.618C507.324 453.513 507.303 453.409 507.263 453.312C507.222 453.215 507.163 453.126 507.089 453.052C506.938 452.905 506.735 452.822 506.524 452.822C506.313 452.822 506.111 452.905 505.96 453.052L499.766 458.764C499.692 458.838 499.633 458.926 499.593 459.023C499.552 459.12 499.532 459.224 499.532 459.329C499.532 459.434 499.552 459.538 499.593 459.635C499.633 459.732 499.692 459.82 499.766 459.895C499.901 460.024 500.08 460.096 500.266 460.097Z" fill="#BF5259" />
        <path d="M501.882 463.928C502.076 463.946 502.269 463.895 502.429 463.785L508.23 459.644C508.402 459.52 508.518 459.333 508.554 459.124C508.589 458.915 508.541 458.7 508.42 458.526C508.359 458.44 508.281 458.368 508.192 458.312C508.102 458.257 508.003 458.22 507.899 458.203C507.795 458.187 507.689 458.191 507.586 458.216C507.484 458.24 507.388 458.285 507.303 458.347L501.502 462.476C501.416 462.537 501.342 462.614 501.286 462.703C501.229 462.792 501.191 462.892 501.173 462.996C501.156 463.1 501.159 463.206 501.183 463.309C501.206 463.412 501.25 463.509 501.312 463.595C501.379 463.687 501.464 463.764 501.562 463.822C501.66 463.879 501.769 463.915 501.882 463.928Z" fill="#BF5259" />
        <path d="M505.08 468.247C505.245 468.257 505.41 468.22 505.555 468.14L511.154 464.915C511.337 464.808 511.471 464.633 511.527 464.429C511.582 464.224 511.555 464.005 511.451 463.82C511.399 463.729 511.328 463.65 511.245 463.586C511.161 463.523 511.066 463.476 510.964 463.45C510.862 463.423 510.756 463.417 510.652 463.432C510.548 463.446 510.448 463.481 510.358 463.535L504.759 466.748C504.576 466.855 504.442 467.029 504.387 467.234C504.331 467.439 504.358 467.657 504.462 467.842C504.528 467.952 504.617 468.046 504.724 468.116C504.831 468.186 504.953 468.231 505.08 468.247Z" fill="#BF5259" />
        <path d="M512.248 470.829C512.342 470.852 512.44 470.852 512.533 470.829L514.614 470.258C514.715 470.23 514.811 470.183 514.894 470.118C514.978 470.053 515.047 469.973 515.099 469.881C515.151 469.789 515.184 469.687 515.197 469.583C515.209 469.478 515.201 469.371 515.172 469.27C515.111 469.067 514.975 468.896 514.791 468.792C514.607 468.688 514.39 468.659 514.186 468.711L512.105 469.294C511.905 469.352 511.735 469.487 511.632 469.669C511.53 469.852 511.504 470.068 511.559 470.269C511.602 470.422 511.692 470.558 511.815 470.658C511.939 470.758 512.09 470.818 512.248 470.829Z" fill="#BF5259" />
        <path d="M539.208 462.369L598.976 437.071C601.415 435.649 603.49 433.678 605.037 431.316C606.584 428.953 607.561 426.262 607.891 423.456C608.221 420.651 607.894 417.806 606.937 415.149C605.98 412.491 604.418 410.093 602.376 408.143L519.986 328.904C519.986 328.904 516.313 335.568 514.209 349.443C512.105 363.318 519.547 380.251 519.547 380.251L567.095 418.127L527.024 435.654C525.947 436.112 524.992 436.813 524.233 437.703C523.474 438.593 522.932 439.648 522.649 440.783C522.007 443.401 522.138 447.292 524.943 452.599C526.503 455.777 528.616 458.65 531.184 461.084C532.266 462.03 533.593 462.653 535.011 462.88C536.43 463.107 537.885 462.93 539.208 462.369Z" fill="#00BCF2" />
        <path d="M445.359 277.036C446.325 277.036 447.107 276.252 447.107 275.286C447.107 274.32 446.325 273.537 445.359 273.537C444.394 273.537 443.612 274.32 443.612 275.286C443.612 276.252 444.394 277.036 445.359 277.036Z" fill="black" />
        <path d="M465.342 281.164C466.307 281.164 467.089 280.381 467.089 279.415C467.089 278.449 466.307 277.666 465.342 277.666C464.377 277.666 463.594 278.449 463.594 279.415C463.594 280.381 464.377 281.164 465.342 281.164Z" fill="black" />
        <path d="M449.627 271.847C450.167 271.901 450.708 271.747 451.139 271.415C451.569 271.083 451.856 270.599 451.941 270.061C452.026 269.524 451.903 268.975 451.596 268.526C451.29 268.077 450.823 267.762 450.293 267.647C447.718 267.059 445.087 266.756 442.447 266.742C441.883 266.778 441.356 267.038 440.983 267.463C440.609 267.888 440.42 268.444 440.456 269.009C440.492 269.574 440.751 270.101 441.176 270.475C441.601 270.849 442.156 271.038 442.721 271.002C444.965 271.043 447.2 271.314 449.389 271.811C449.466 271.836 449.546 271.848 449.627 271.847Z" fill="black" />
        <path d="M469.752 274.583C470.283 274.617 470.808 274.451 471.224 274.117C471.639 273.784 471.916 273.307 471.999 272.78C472.082 272.254 471.966 271.715 471.674 271.269C471.381 270.824 470.933 270.503 470.417 270.371C467.842 269.79 465.212 269.491 462.572 269.479C462.292 269.495 462.019 269.567 461.767 269.69C461.515 269.812 461.29 269.984 461.104 270.194C460.919 270.404 460.777 270.649 460.686 270.914C460.595 271.179 460.557 271.46 460.575 271.739C460.615 272.305 460.875 272.831 461.3 273.206C461.725 273.58 462.28 273.771 462.845 273.739C465.086 273.772 467.318 274.044 469.502 274.548L469.752 274.583Z" fill="black" />
        <path d="M450.221 294.134C452.634 294.331 455.063 294.134 457.413 293.551C457.549 293.52 457.668 293.436 457.743 293.318C457.819 293.2 457.845 293.057 457.817 292.92C457.783 292.783 457.697 292.664 457.577 292.588C457.458 292.513 457.314 292.487 457.175 292.516C446.881 294.836 444.004 290.029 443.969 289.969C443.898 289.846 443.781 289.756 443.644 289.719C443.507 289.683 443.36 289.702 443.237 289.773C443.115 289.844 443.025 289.961 442.988 290.098C442.951 290.235 442.97 290.382 443.041 290.505C443.136 290.671 444.896 293.599 450.221 294.134Z" fill="black" />
        <path d="M452.718 286.567C453.204 286.62 453.694 286.62 454.18 286.567C454.249 286.562 454.317 286.544 454.379 286.512C454.441 286.481 454.496 286.437 454.54 286.384C454.585 286.33 454.618 286.268 454.638 286.201C454.657 286.135 454.663 286.065 454.655 285.996C454.649 285.925 454.629 285.857 454.597 285.794C454.564 285.731 454.52 285.676 454.465 285.63C454.411 285.585 454.349 285.551 454.281 285.53C454.214 285.509 454.143 285.501 454.073 285.508C451.695 285.746 450.911 284.746 450.685 284.318C453.062 280.879 454.465 273.775 454.524 273.465C454.549 273.327 454.517 273.184 454.437 273.068C454.357 272.952 454.235 272.873 454.097 272.847C453.96 272.825 453.82 272.856 453.706 272.933C453.591 273.01 453.51 273.128 453.478 273.263C453.478 273.346 452.004 280.784 449.663 283.973C449.615 284.032 449.582 284.102 449.566 284.176C449.549 284.25 449.55 284.327 449.568 284.401C449.799 285.047 450.228 285.604 450.794 285.993C451.359 286.381 452.032 286.582 452.718 286.567Z" fill="#BF5259" />
        <path d="M463.761 548.556C463.761 548.556 459.505 522.735 457.556 521.188C455.606 519.641 449.235 541.417 453.145 551.02C457.056 560.623 458.079 571.939 457.591 576.818C457.104 581.697 462.417 588.348 462.417 588.348L463.761 548.556Z" fill="#221F23" />
        <path d="M455.915 324.644C456.498 324.644 457.104 324.751 457.686 324.786C467.196 325.405 473.603 324.049 476.836 320.753C478.039 319.596 478.775 318.038 478.905 316.374L480.093 311.09L475.945 310.138L474.59 316.088V316.314C474.444 316.955 474.088 317.529 473.579 317.944C472.212 319.206 468.337 321.229 457.912 320.55C449.508 320.003 446.358 317.706 445.205 315.874C444.811 315.211 444.568 314.47 444.494 313.703C444.42 312.935 444.517 312.161 444.777 311.435L440.842 309.781C440.318 311.132 440.109 312.584 440.231 314.027C440.352 315.471 440.801 316.867 441.544 318.111C443.85 321.693 448.664 323.906 455.915 324.644Z" fill="white" />
        <path d="M578.376 422.422L579.041 420.422C572.931 418.411 566.667 417.055 566.608 417.043L566.168 419.102C566.168 419.102 572.385 420.446 578.376 422.422Z" fill="#2054A0" />
        <path d="M511.202 372.445C511.202 372.445 506.733 395.923 511.594 403.455C516.456 410.988 515.719 418.413 518.239 421.305V407.025L519.499 380.394L511.202 372.445Z" fill="#2054A0" />
        <path d="M417.068 364.316C416.979 369.009 416.276 373.67 414.976 378.179C412.943 384.319 412.527 395.541 409.948 400.205L407.856 372.206L417.068 364.316Z" fill="#2054A0" />
        <path d="M304.105 337.259C304.105 337.259 298.626 325.157 290.459 321.075C282.293 316.994 285.894 326.085 285.894 326.085C285.894 326.085 283.113 324.11 278.346 325.323C273.579 326.537 266.828 330.976 268.444 335.271L282.447 352.216L304.105 337.259Z" fill="#FF7C8D" />
        <path d="M253.764 334.437C262.501 335.889 277.538 344.599 277.538 344.599L269.621 334.759C259.885 331.26 251.588 330.546 251.362 331.451C251.362 331.451 250.245 332.641 250.899 333.497C251.553 334.354 253.764 334.437 253.764 334.437Z" fill="#FF7C8D" />
        <path d="M269.989 335.425C250.613 329.975 252.86 327.94 252.86 327.94C253.193 325.215 273.009 329.975 273.009 329.975L269.989 335.425Z" fill="#FF7C8D" />
        <path d="M274.59 331.546C255.214 326.096 256.212 323.216 256.212 323.216C256.545 320.492 278.31 326.251 278.31 326.251L274.59 331.546Z" fill="#FF7C8D" />
        <path d="M286.477 323.443C286.477 323.443 265.199 314.221 260.967 318.302C257.948 321.277 286.477 328.583 286.477 328.583V323.443Z" fill="#FF7C8D" />
        <path d="M281.948 313.328C281.948 313.328 282.293 322.158 284.931 325.073C287.57 327.988 296.165 325.454 296.165 325.454C296.165 325.454 285.966 312.043 283.517 311.793C281.888 311.639 281.948 313.328 281.948 313.328Z" fill="#FF7C8D" />
        <path d="M279.238 327.12C279.191 327.131 279.142 327.131 279.095 327.12C274.784 325.597 270.32 324.547 265.781 323.991C265.652 323.963 265.537 323.888 265.459 323.78C265.382 323.672 265.347 323.539 265.362 323.407C265.377 323.275 265.44 323.153 265.539 323.066C265.639 322.978 265.768 322.93 265.9 322.932C270.525 323.498 275.073 324.571 279.463 326.133C279.596 326.183 279.703 326.284 279.76 326.414C279.818 326.543 279.823 326.69 279.772 326.823C279.724 326.921 279.647 327.003 279.552 327.056C279.456 327.109 279.346 327.131 279.238 327.12Z" fill="#EA5E94" />
        <path d="M274.483 332.07C274.397 332.064 274.315 332.035 274.245 331.986C269.621 329.023 263.024 328.416 262.964 328.416C262.836 328.389 262.723 328.316 262.645 328.211C262.567 328.105 262.531 327.975 262.542 327.845C262.554 327.714 262.613 327.593 262.708 327.503C262.804 327.413 262.929 327.361 263.059 327.357C263.356 327.357 269.989 327.952 274.839 331.058C274.899 331.096 274.95 331.145 274.99 331.202C275.031 331.26 275.059 331.325 275.073 331.394C275.088 331.463 275.088 331.534 275.074 331.603C275.061 331.672 275.033 331.738 274.994 331.796C274.946 331.888 274.872 331.963 274.781 332.012C274.69 332.061 274.586 332.081 274.483 332.07Z" fill="#EA5E94" />
        <path d="M270.928 336.057C270.848 336.047 270.77 336.019 270.703 335.974C267.136 333.713 257.627 331.892 257.52 331.88C257.445 331.875 257.372 331.854 257.305 331.819C257.239 331.783 257.18 331.734 257.134 331.675C257.088 331.615 257.055 331.547 257.037 331.474C257.019 331.4 257.017 331.324 257.03 331.25C257.044 331.176 257.073 331.106 257.115 331.043C257.158 330.981 257.213 330.929 257.277 330.889C257.341 330.85 257.413 330.825 257.487 330.815C257.562 330.805 257.638 330.811 257.71 330.833C258.114 330.904 267.505 332.701 271.261 335.081C271.357 335.147 271.429 335.243 271.466 335.354C271.502 335.465 271.502 335.585 271.464 335.695C271.426 335.806 271.354 335.901 271.257 335.966C271.16 336.032 271.045 336.063 270.928 336.057Z" fill="#EA5E94" />
        <path d="M287.784 327.132C286.45 327.067 285.184 326.522 284.218 325.597C283.349 324.666 282.858 323.444 282.839 322.17C282.845 322.029 282.906 321.896 283.008 321.798C283.11 321.701 283.245 321.646 283.386 321.646C283.456 321.648 283.526 321.663 283.59 321.692C283.654 321.72 283.712 321.761 283.761 321.812C283.81 321.863 283.848 321.922 283.873 321.988C283.898 322.054 283.911 322.124 283.909 322.194C283.929 323.185 284.314 324.135 284.991 324.859C285.51 325.318 286.117 325.667 286.775 325.884C287.433 326.1 288.128 326.181 288.819 326.121C288.888 326.119 288.957 326.131 289.022 326.157C289.087 326.183 289.146 326.221 289.196 326.27C289.246 326.319 289.285 326.377 289.313 326.441C289.34 326.505 289.353 326.574 289.353 326.644C289.357 326.714 289.346 326.785 289.321 326.85C289.296 326.916 289.257 326.976 289.208 327.026C289.159 327.076 289.1 327.116 289.035 327.142C288.97 327.169 288.901 327.181 288.83 327.18C288.481 327.187 288.132 327.171 287.784 327.132Z" fill="#EA5E94" />
        <path d="M282.697 350.384C283.885 348.242 286.346 345.493 291.255 342.209C296.819 338.496 300.658 337.318 303.214 337.139C304.276 337.082 305.334 337.299 306.288 337.771C307.241 338.242 308.058 338.95 308.658 339.829L353.282 399.743L389.145 338.437C404.492 320.647 420.943 316.125 420.943 316.125C444.171 333.344 431.642 347.992 431.642 347.992L369.544 432.383C368.051 434.778 366.022 436.794 363.617 438.269C361.213 439.745 358.498 440.64 355.688 440.885C352.879 441.13 350.05 440.717 347.427 439.679C344.804 438.641 342.458 437.007 340.575 434.906L283.101 356.976C282.422 356.026 282.025 354.904 281.953 353.738C281.882 352.572 282.139 351.41 282.697 350.384Z" fill="#00BCF2" />
        <path d="M353.044 412.628L355.137 412.45C354.602 406.024 353.389 399.729 353.377 399.67L351.321 400.074C351.321 400.074 352.462 406.322 353.044 412.628Z" fill="#B5E8D6" />
        <path d="M97.8053 553.863C97.8053 553.863 99.8975 559.456 94.2392 559.456H87.107C86.948 559.46 86.7925 559.409 86.6668 559.311C86.5412 559.214 86.4531 559.076 86.4175 558.921C86.2766 558.525 86.2154 558.106 86.2372 557.687C86.2591 557.268 86.3637 556.857 86.5449 556.479C86.7262 556.101 86.9805 555.762 87.2933 555.483C87.606 555.203 87.9709 554.988 88.367 554.851" fill="#FF7C8D" />
        <path d="M81.71 523.033C81.71 523.033 95.7011 527.936 100.599 535.647C105.496 543.357 103.416 546.178 103.416 546.178C103.416 546.178 98.7442 557.887 89.8883 555.531L69.811 546.178L81.71 523.033Z" fill="#E8878B" />
        <path d="M103.416 546.95C103.302 546.952 103.189 546.929 103.085 546.884C102.98 546.839 102.887 546.772 102.81 546.688L97.2108 540.382C97.1036 540.22 97.058 540.025 97.0823 539.832C97.1067 539.64 97.1994 539.463 97.3435 539.333C97.4876 539.203 97.6736 539.129 97.8674 539.125C98.0613 539.121 98.2501 539.187 98.3995 539.311L103.998 545.617C104.078 545.697 104.14 545.793 104.179 545.898C104.219 546.003 104.236 546.116 104.23 546.228C104.223 546.341 104.192 546.451 104.14 546.55C104.088 546.65 104.015 546.738 103.927 546.807C103.78 546.916 103.598 546.967 103.416 546.95Z" fill="#EA5E94" />
        <path d="M101.407 550.603C101.215 550.599 101.03 550.527 100.884 550.401L95.5229 545.701C95.3759 545.558 95.2897 545.363 95.2823 545.158C95.2749 544.953 95.3469 544.753 95.4832 544.599C95.6196 544.446 95.8099 544.351 96.0144 544.335C96.2188 544.318 96.4218 544.381 96.5809 544.511L101.942 549.271C102.021 549.34 102.086 549.424 102.132 549.519C102.179 549.613 102.206 549.716 102.213 549.821C102.22 549.926 102.205 550.032 102.171 550.131C102.137 550.231 102.083 550.322 102.013 550.401C101.931 550.474 101.835 550.53 101.731 550.565C101.627 550.6 101.517 550.613 101.407 550.603Z" fill="#EA5E94" />
        <path d="M97.8053 554.578C97.6351 554.574 97.4697 554.52 97.3298 554.423L92.0877 550.651C92.0022 550.59 91.9297 550.512 91.8744 550.422C91.8191 550.333 91.7821 550.233 91.7656 550.129C91.749 550.025 91.7532 549.919 91.7778 549.816C91.8025 549.714 91.8472 549.618 91.9093 549.533C91.9696 549.447 92.0462 549.375 92.1347 549.32C92.2232 549.265 92.3218 549.228 92.4247 549.211C92.5276 549.195 92.6328 549.199 92.7341 549.223C92.8355 549.248 92.9309 549.292 93.0148 549.354L98.2689 553.126C98.3544 553.188 98.4269 553.265 98.4821 553.355C98.5374 553.445 98.5744 553.544 98.591 553.648C98.6076 553.752 98.6034 553.859 98.5787 553.961C98.5541 554.063 98.5094 554.16 98.4472 554.245C98.3734 554.346 98.277 554.429 98.1656 554.487C98.0542 554.545 97.9308 554.576 97.8053 554.578Z" fill="#EA5E94" />
        <path d="M90.4114 556.434C90.3135 556.431 90.2169 556.411 90.1261 556.374L88.1172 555.601C87.9186 555.525 87.7581 555.373 87.6712 555.179C87.5842 554.985 87.5779 554.764 87.6536 554.565C87.7292 554.367 87.8807 554.206 88.0747 554.119C88.2686 554.032 88.4891 554.026 88.6878 554.101L90.7086 554.887C90.9038 554.966 91.0604 555.119 91.1448 555.312C91.2291 555.506 91.2347 555.725 91.1603 555.922C91.1022 556.073 90.9995 556.203 90.8657 556.295C90.7318 556.386 90.5734 556.435 90.4114 556.434Z" fill="#EA5E94" />
        <path d="M64.4263 545.307L7.49911 514.143C5.2181 512.483 3.35355 510.316 2.05258 507.811C0.751616 505.307 0.0498169 502.534 0.0025565 499.711C-0.0447039 496.889 0.563868 494.094 1.78026 491.548C2.99665 489.001 4.78757 486.772 7.01174 485.037L96.9018 414.461C96.9018 414.461 99.8498 421.47 100.599 435.511C101.348 449.552 92.2064 465.629 92.2064 465.629L41.1157 498.578L79.2376 519.997C80.2621 520.559 81.1423 521.351 81.8086 522.311C82.475 523.271 82.9092 524.374 83.0771 525.531C83.4575 528.208 82.9345 532.075 79.6061 537.073C77.7273 540.073 75.3233 542.71 72.5095 544.855C71.3396 545.681 69.9617 546.161 68.5326 546.241C67.1036 546.321 65.6808 545.997 64.4263 545.307Z" fill="#E86305" />
        <path d="M187.981 553.863C187.981 553.863 185.888 559.456 191.475 559.456H198.608C198.766 559.462 198.921 559.411 199.045 559.313C199.169 559.215 199.254 559.076 199.285 558.921C199.511 557.862 199.701 555.601 197.348 554.851" fill="#FF7C8D" />
        <path d="M202.673 523.734C202.673 523.734 190.085 527.935 185.187 535.634C180.29 543.333 182.382 546.141 182.382 546.141C182.382 546.141 187.042 557.85 195.909 555.494L215.273 546.843L202.673 523.734Z" fill="#E8878B" />
        <path d="M182.382 546.95C182.286 546.953 182.19 546.936 182.1 546.901C182.01 546.867 181.928 546.814 181.859 546.748C181.77 546.678 181.698 546.59 181.645 546.491C181.593 546.391 181.563 546.281 181.556 546.169C181.549 546.056 181.567 545.944 181.606 545.838C181.646 545.733 181.708 545.637 181.787 545.558L187.386 539.251C187.458 539.165 187.546 539.095 187.646 539.044C187.747 538.994 187.856 538.966 187.968 538.96C188.079 538.954 188.191 538.972 188.296 539.012C188.4 539.052 188.495 539.113 188.575 539.191C188.649 539.266 188.708 539.354 188.749 539.451C188.789 539.548 188.81 539.652 188.81 539.757C188.81 539.862 188.789 539.966 188.749 540.063C188.708 540.16 188.649 540.248 188.575 540.322L182.976 546.629C182.908 546.724 182.819 546.802 182.716 546.858C182.613 546.913 182.499 546.945 182.382 546.95Z" fill="#EA5E94" />
        <path d="M184.367 550.605C184.203 550.606 184.043 550.557 183.909 550.464C183.774 550.371 183.671 550.239 183.614 550.086C183.557 549.932 183.548 549.765 183.589 549.607C183.63 549.448 183.719 549.307 183.844 549.2L189.205 544.441C189.282 544.365 189.373 544.307 189.474 544.268C189.574 544.229 189.681 544.211 189.789 544.215C189.896 544.219 190.002 544.245 190.099 544.291C190.196 544.337 190.283 544.402 190.355 544.482C190.426 544.562 190.481 544.657 190.515 544.759C190.549 544.861 190.562 544.969 190.554 545.076C190.545 545.183 190.515 545.288 190.465 545.383C190.415 545.478 190.346 545.563 190.263 545.631L184.902 550.331C184.764 550.486 184.573 550.583 184.367 550.605Z" fill="#EA5E94" />
        <path d="M187.981 554.578C187.81 554.58 187.644 554.527 187.506 554.427C187.367 554.328 187.265 554.186 187.213 554.024C187.161 553.861 187.163 553.687 187.217 553.525C187.272 553.364 187.377 553.224 187.517 553.126L192.759 549.354C192.932 549.232 193.145 549.182 193.354 549.215C193.563 549.249 193.751 549.363 193.877 549.533C193.939 549.618 193.983 549.714 194.008 549.817C194.033 549.919 194.037 550.025 194.02 550.129C194.004 550.233 193.967 550.333 193.911 550.423C193.856 550.512 193.784 550.59 193.698 550.651L188.444 554.423C188.309 554.52 188.147 554.574 187.981 554.578Z" fill="#EA5E94" />
        <path d="M195.374 556.434C195.212 556.435 195.054 556.387 194.92 556.295C194.786 556.204 194.683 556.074 194.625 555.922C194.551 555.725 194.556 555.506 194.641 555.313C194.725 555.119 194.882 554.967 195.077 554.887L197.086 554.102C197.278 554.05 197.483 554.071 197.661 554.162C197.838 554.252 197.976 554.404 198.049 554.59C198.121 554.776 198.122 554.982 198.052 555.168C197.982 555.355 197.845 555.509 197.668 555.601L195.66 556.375C195.569 556.411 195.472 556.431 195.374 556.434Z" fill="#EA5E94" />
        <path d="M220.099 546.7L278.346 514.143C280.627 512.483 282.492 510.316 283.793 507.811C285.094 505.307 285.795 502.534 285.843 499.711C285.89 496.889 285.281 494.094 284.065 491.548C282.849 489.001 281.058 486.772 278.833 485.037L201.365 414.461C201.365 414.461 185.912 421.47 185.187 435.475C184.462 449.481 192.878 460.69 192.878 460.69L244.658 497.817L205.645 519.474C204.712 519.981 203.926 520.721 203.361 521.622C202.797 522.522 202.474 523.553 202.423 524.614C202.328 527.173 203.101 531.123 206.215 537.049C208.961 542.273 211.446 545.01 213.455 546.426C214.424 547.093 215.562 547.472 216.738 547.521C217.913 547.569 219.078 547.285 220.099 546.7Z" fill="#E86305" />
        <path d="M83.7903 830.574H115.957C117.886 830.575 119.756 829.911 121.252 828.693C122.749 827.475 123.779 825.777 124.171 823.886L142.643 582.577L147.541 558.064L90.1024 553.863L75.5169 820.697C75.3013 821.907 75.3535 823.15 75.6699 824.337C75.9863 825.525 76.5592 826.629 77.3482 827.571C78.1371 828.512 79.1229 829.27 80.2361 829.788C81.3492 830.307 82.5625 830.575 83.7903 830.574Z" fill="#00BCF2" />
        <path d="M159.047 830.575H191.38C193.475 830.564 195.491 829.77 197.031 828.348C198.571 826.925 199.523 824.977 199.701 822.888L189.466 567.192V558.791L136.284 557.387L150.667 821.614C150.591 822.763 150.75 823.915 151.137 824.999C151.524 826.082 152.129 827.075 152.914 827.915C153.7 828.756 154.65 829.425 155.705 829.883C156.76 830.34 157.898 830.576 159.047 830.575Z" fill="#00BCF2" />
        <path d="M89.0088 559.969C88.9153 561.058 89.2509 562.141 89.9438 562.986C90.6367 563.831 91.6322 564.371 92.7175 564.491L110.394 566.466C116.694 567.168 127.891 572.773 132.789 572.071C137.686 571.369 149.585 572.071 154.483 572.071C159.38 572.071 180.373 570.667 183.178 569.965C183.959 569.786 184.755 569.686 185.556 569.667C186.615 569.641 187.624 569.214 188.381 568.472C189.138 567.73 189.585 566.728 189.633 565.669L190.215 553.77L90.1618 546.178L89.0088 559.969Z" fill="#E86305" />
        <path d="M151.677 399.812C151.677 399.812 90.1022 399.813 90.8749 428.526C91.6475 457.239 90.8749 553.923 90.8749 553.923C115.648 561.752 133.668 562.895 136.046 563.014C136.046 563.014 162.911 567.179 189.538 558.777C189.538 558.777 204.991 461.404 210.53 433.381C216.07 405.358 151.677 399.812 151.677 399.812Z" fill="#E86305" />
        <path d="M91.196 491.927C91.196 491.927 84.5036 532.148 82.4115 541.251C81.2228 546.177 89.4011 555.256 97.8647 556.66C106.328 558.065 119.749 567.691 133.526 565.061C147.303 562.432 151.356 567.81 161.52 566.466C172.016 565.061 178.304 566.466 182.513 564.371C186.721 562.277 199.297 558.065 197.205 541.251C195.113 524.437 199.487 496.925 199.487 496.925L146.816 479.611L91.196 491.927Z" fill="#E86305" />
        <path d="M143.285 381.535L141.359 405.989C141.292 406.813 141.435 407.642 141.776 408.395C142.117 409.149 142.645 409.803 143.309 410.296C145.758 412.129 150.726 414.461 160.081 414.461C166.108 414.461 169.781 413.818 171.969 413.033C173.009 412.656 173.889 411.935 174.466 410.99C175.043 410.045 175.281 408.932 175.142 407.833L171.945 381.535H143.285Z" fill="#E8878B" />
        <path d="M176.521 370.327C177.486 370.327 178.269 369.543 178.269 368.577C178.269 367.611 177.486 366.828 176.521 366.828C175.556 366.828 174.774 367.611 174.774 368.577C174.774 369.543 175.556 370.327 176.521 370.327Z" fill="black" />
        <path d="M130.875 638.672C130.875 638.672 137.686 613.398 139.79 612.005C141.894 610.613 146.091 633.02 141.181 642.123C136.272 651.226 134.192 662.435 134.192 667.338C134.192 672.24 128.248 678.333 128.248 678.333L130.875 638.672Z" fill="#2054A0" />
        <path d="M161.092 415.889H159.333C150.073 415.556 143.975 413.652 141.229 410.225C140.236 409.08 139.717 407.599 139.778 406.084L139.101 400.646L141.871 400.301L142.608 406.12V406.322C142.618 407.169 142.954 407.979 143.547 408.583C144.842 410.094 148.622 412.7 159.475 413.081C166.405 413.343 171.148 412.057 173.205 409.392C173.728 408.682 174.088 407.864 174.256 406.997C174.425 406.131 174.399 405.237 174.18 404.382L176.854 403.561C177.202 404.838 177.257 406.176 177.014 407.477C176.771 408.777 176.237 410.006 175.452 411.07C172.943 414.259 168.141 415.889 161.092 415.889Z" fill="white" />
        <path d="M29.4544 501.649L29.0027 499.591C35.2791 498.199 41.6386 497.485 41.71 497.473L41.9358 499.567C41.8764 499.567 35.6594 500.269 29.4544 501.649Z" fill="white" />
        <path d="M101.3 458.598C101.3 458.598 103.404 482.397 97.8051 489.417C92.2063 496.438 92.2063 503.875 89.4128 506.457L90.8036 492.178L92.2063 465.559L101.3 458.598Z" fill="#FF852F" />
        <path d="M195.767 459.988C195.386 464.671 195.622 469.384 196.468 474.006C197.871 480.301 197.169 491.51 199.261 496.413L204.147 468.83L195.767 459.988Z" fill="#FF852F" />
        <path d="M164.278 336.009C164.278 336.009 162.875 356.631 139.79 364.723L136.284 362.629C136.284 362.629 136.985 335.26 162.875 333.201L164.278 336.009Z" fill="black" />
        <path d="M164.278 336.009C164.278 336.009 174.774 351.478 183.868 359.118C183.868 359.118 188.765 350.015 174.073 336.009C174.073 336.009 160.082 328.298 164.278 336.009Z" fill="black" />
        <path d="M141.181 362.627C140.967 364.501 141.023 366.397 141.348 368.255C139.906 366.736 139.098 364.723 139.089 362.627H141.181Z" fill="black" />
        <path d="M189.609 382.106H189.11C190.406 361.425 187.648 331.545 161.247 330.284C161.247 330.284 134.18 324.786 134.358 365.471C134.358 371.016 134.358 375.657 134.358 379.572C130.892 379.748 127.615 381.209 125.165 383.67C122.715 386.131 121.268 389.417 121.104 392.887C121.016 394.724 121.291 396.561 121.912 398.292C122.534 400.022 123.491 401.614 124.727 402.974C125.964 404.335 127.456 405.438 129.119 406.22C130.781 407.003 132.582 407.45 134.417 407.535L188.242 410.106C191.949 410.28 195.574 408.975 198.32 406.476C201.066 403.977 202.708 400.489 202.887 396.778C203.068 393.07 201.771 389.442 199.281 386.691C196.792 383.94 193.313 382.291 189.609 382.106Z" fill="black" />
      </g>
      <defs>
        <clipPath id="clip0_1321_5563">
          <rect width="608" height="830" fill="white" />
        </clipPath>
      </defs>
    </svg>
