<svg width="110" height="22" viewBox="0 0 110 22" fill="none" xmlns="http://www.w3.org/2000/svg">
<g id="Group 1">
<g id="Group">
<path id="Vector" d="M12.5662 14.3289H15.2287V5.28691L8.00133 1L1 5.28691V14.3289H8.00133" stroke="#E86305" stroke-width="2" stroke-miterlimit="10" stroke-linejoin="round"/>
<path id="Vector_2" d="M12.8734 7.6709H10.2109V16.7128L17.4383 20.9998L24.4396 16.7128V7.6709H17.4383" stroke="#043D94" stroke-width="2" stroke-miterlimit="10" stroke-linejoin="round"/>
</g>
<g id="CasaLinks">
<path d="M33 11.7459C33 10.6407 33.2392 9.65356 33.7176 8.78443C34.2064 7.90457 34.8668 7.22321 35.6987 6.74036C36.5411 6.24678 37.4823 5.99999 38.5223 5.99999C39.7391 5.99999 40.805 6.32189 41.7202 6.96569C42.6354 7.60949 43.275 8.50008 43.639 9.63746H41.1274C40.8778 9.10096 40.5242 8.69859 40.0667 8.43034C39.6195 8.16209 39.0995 8.02796 38.5067 8.02796C37.8723 8.02796 37.3055 8.18355 36.8063 8.49472C36.3175 8.79516 35.9327 9.22436 35.6519 9.78232C35.3816 10.3403 35.2464 10.9948 35.2464 11.7459C35.2464 12.4863 35.3816 13.1408 35.6519 13.7095C35.9327 14.2675 36.3175 14.702 36.8063 15.0132C37.3055 15.3136 37.8723 15.4639 38.5067 15.4639C39.0995 15.4639 39.6195 15.3297 40.0667 15.0615C40.5242 14.7825 40.8778 14.3748 41.1274 13.8383H43.639C43.275 14.9864 42.6354 15.8823 41.7202 16.5261C40.8154 17.1592 39.7495 17.4757 38.5223 17.4757C37.4823 17.4757 36.5411 17.2343 35.6987 16.7515C34.8668 16.2579 34.2064 15.5765 33.7176 14.7074C33.2392 13.8383 33 12.8511 33 11.7459Z" fill="#043D94"/>
<path d="M44.9428 12.8887C44.9428 11.9873 45.1144 11.188 45.4576 10.4905C45.8112 9.79305 46.2843 9.25655 46.8771 8.881C47.4803 8.50545 48.1511 8.31767 48.8895 8.31767C49.5343 8.31767 50.0959 8.4518 50.5743 8.72005C51.063 8.9883 51.453 9.32629 51.7442 9.73404V8.46253H53.9438V17.3792H51.7442V16.0755C51.4634 16.4939 51.0734 16.8427 50.5743 17.1216C50.0855 17.3899 49.5187 17.524 48.8739 17.524C48.1459 17.524 47.4803 17.3309 46.8771 16.9446C46.2843 16.5583 45.8112 16.0165 45.4576 15.319C45.1144 14.6108 44.9428 13.8007 44.9428 12.8887ZM51.7442 12.9208C51.7442 12.3736 51.6402 11.9069 51.4322 11.5206C51.2242 11.1236 50.9434 10.8231 50.5899 10.6193C50.2363 10.4047 49.8567 10.2974 49.4511 10.2974C49.0455 10.2974 48.6711 10.3993 48.3279 10.6032C47.9847 10.807 47.7039 11.1075 47.4855 11.5045C47.2775 11.8908 47.1735 12.3522 47.1735 12.8887C47.1735 13.4252 47.2775 13.8973 47.4855 14.305C47.7039 14.702 47.9847 15.0078 48.3279 15.2224C48.6815 15.437 49.0559 15.5443 49.4511 15.5443C49.8567 15.5443 50.2363 15.4424 50.5899 15.2385C50.9434 15.0239 51.2242 14.7235 51.4322 14.3372C51.6402 13.9402 51.7442 13.4681 51.7442 12.9208Z" fill="#043D94"/>
<path d="M59.3839 17.524C58.6767 17.524 58.0424 17.3953 57.4808 17.1377C56.9192 16.8695 56.472 16.51 56.1392 16.0594C55.8168 15.6087 55.64 15.1098 55.6088 14.5625H57.8084C57.85 14.9059 58.0112 15.1902 58.292 15.4156C58.5831 15.6409 58.9419 15.7536 59.3683 15.7536C59.7843 15.7536 60.1067 15.6677 60.3355 15.4961C60.5747 15.3244 60.6943 15.1044 60.6943 14.8362C60.6943 14.5464 60.5487 14.3318 60.2575 14.1924C59.9767 14.0421 59.5243 13.8812 58.9003 13.7095C58.2556 13.5486 57.7252 13.3822 57.3092 13.2106C56.9036 13.0389 56.55 12.776 56.2484 12.4219C55.9572 12.0678 55.8116 11.5903 55.8116 10.9894C55.8116 10.4959 55.9468 10.0452 56.2172 9.63746C56.498 9.22972 56.8932 8.90782 57.4028 8.67176C57.9228 8.4357 58.5311 8.31767 59.2279 8.31767C60.2575 8.31767 61.0791 8.58592 61.6927 9.12242C62.3063 9.64819 62.6443 10.3617 62.7067 11.2631H60.6163C60.5851 10.909 60.4395 10.63 60.1795 10.4261C59.9299 10.2115 59.5919 10.1042 59.1655 10.1042C58.7703 10.1042 58.4635 10.1793 58.2452 10.3296C58.0372 10.4798 57.9332 10.689 57.9332 10.9573C57.9332 11.2577 58.0788 11.4884 58.3699 11.6493C58.6611 11.7996 59.1135 11.9551 59.7271 12.1161C60.3511 12.277 60.8659 12.4434 61.2715 12.615C61.6771 12.7867 62.0255 13.055 62.3167 13.4198C62.6183 13.7739 62.7743 14.246 62.7847 14.8362C62.7847 15.3512 62.6443 15.8126 62.3635 16.2203C62.0931 16.6281 61.6979 16.95 61.1779 17.186C60.6683 17.4114 60.0703 17.524 59.3839 17.524Z" fill="#043D94"/>
<path d="M64.0158 12.8887C64.0158 11.9873 64.1874 11.188 64.5306 10.4905C64.8842 9.79305 65.3574 9.25655 65.9502 8.881C66.5534 8.50545 67.2241 8.31767 67.9625 8.31767C68.6073 8.31767 69.1689 8.4518 69.6473 8.72005C70.1361 8.9883 70.5261 9.32629 70.8173 9.73404V8.46253H73.0168V17.3792H70.8173V16.0755C70.5365 16.4939 70.1465 16.8427 69.6473 17.1216C69.1585 17.3899 68.5917 17.524 67.9469 17.524C67.2189 17.524 66.5534 17.3309 65.9502 16.9446C65.3574 16.5583 64.8842 16.0165 64.5306 15.319C64.1874 14.6108 64.0158 13.8007 64.0158 12.8887ZM70.8173 12.9208C70.8173 12.3736 70.7133 11.9069 70.5053 11.5206C70.2973 11.1236 70.0165 10.8231 69.6629 10.6193C69.3093 10.4047 68.9297 10.2974 68.5241 10.2974C68.1185 10.2974 67.7441 10.3993 67.4009 10.6032C67.0578 10.807 66.777 11.1075 66.5586 11.5045C66.3506 11.8908 66.2466 12.3522 66.2466 12.8887C66.2466 13.4252 66.3506 13.8973 66.5586 14.305C66.777 14.702 67.0578 15.0078 67.4009 15.2224C67.7545 15.437 68.1289 15.5443 68.5241 15.5443C68.9297 15.5443 69.3093 15.4424 69.6629 15.2385C70.0165 15.0239 70.2973 14.7235 70.5053 14.3372C70.7133 13.9402 70.8173 13.4681 70.8173 12.9208Z" fill="#043D94"/>
<path d="M76.6942 16.1881H80.5005V17.3792H75.2746V6.16094H76.6942V16.1881Z" fill="#043D94"/>
<path d="M82.7413 7.12664C82.4709 7.12664 82.2421 7.03007 82.0549 6.83693C81.8677 6.64379 81.7741 6.40773 81.7741 6.12875C81.7741 5.84977 81.8677 5.61371 82.0549 5.42057C82.2421 5.22743 82.4709 5.13086 82.7413 5.13086C83.0013 5.13086 83.2197 5.22743 83.3965 5.42057C83.5837 5.61371 83.6773 5.84977 83.6773 6.12875C83.6773 6.40773 83.5837 6.64379 83.3965 6.83693C83.2197 7.03007 83.0013 7.12664 82.7413 7.12664ZM83.4277 8.5591V17.3792H82.0081V8.5591H83.4277Z" fill="#043D94"/>
<path d="M90.0122 8.39815C91.0522 8.39815 91.8945 8.72541 92.5393 9.37994C93.1841 10.0237 93.5065 10.9573 93.5065 12.1805V17.3792H92.1025V12.3897C92.1025 11.5099 91.8893 10.8392 91.463 10.3778C91.0366 9.90571 90.4542 9.66965 89.7158 9.66965C88.967 9.66965 88.369 9.91108 87.9218 10.3939C87.485 10.8768 87.2666 11.5796 87.2666 12.5024V17.3792H85.8471V8.5591H87.2666V9.81451C87.5474 9.36385 87.927 9.01512 88.4054 8.76833C88.8942 8.52154 89.4298 8.39815 90.0122 8.39815Z" fill="#043D94"/>
<path d="M100.599 17.3792L97.2449 13.4842V17.3792H95.8254V5.46886H97.2449V12.4702L100.536 8.5591H102.518L98.4929 12.953L102.533 17.3792H100.599Z" fill="#043D94"/>
<path d="M106.88 17.524C106.225 17.524 105.637 17.4114 105.117 17.186C104.597 16.95 104.187 16.6281 103.885 16.2203C103.583 15.8019 103.417 15.3244 103.386 14.7879H104.852C104.894 15.2278 105.091 15.5873 105.445 15.8662C105.809 16.1452 106.282 16.2847 106.864 16.2847C107.405 16.2847 107.832 16.1613 108.144 15.9145C108.456 15.6677 108.612 15.3566 108.612 14.981C108.612 14.5947 108.445 14.3104 108.112 14.128C107.78 13.9348 107.265 13.7471 106.568 13.5646C105.934 13.393 105.414 13.2213 105.008 13.0496C104.613 12.8672 104.27 12.6043 103.979 12.261C103.698 11.9069 103.557 11.4455 103.557 10.8768C103.557 10.4261 103.687 10.013 103.947 9.63746C104.207 9.26191 104.577 8.96684 105.055 8.75224C105.533 8.52691 106.079 8.41424 106.693 8.41424C107.639 8.41424 108.404 8.66103 108.986 9.15461C109.568 9.64819 109.88 10.3242 109.922 11.1826H108.502C108.471 10.7212 108.289 10.351 107.956 10.072C107.634 9.79305 107.197 9.65356 106.646 9.65356C106.136 9.65356 105.731 9.76622 105.429 9.99155C105.128 10.2169 104.977 10.512 104.977 10.8768C104.977 11.1665 105.065 11.4079 105.242 11.6011C105.429 11.7835 105.658 11.9337 105.928 12.0517C106.209 12.159 106.594 12.2824 107.083 12.4219C107.696 12.5936 108.196 12.7653 108.58 12.9369C108.965 13.0979 109.293 13.3447 109.563 13.6773C109.844 14.0099 109.99 14.4445 110 14.981C110 15.4639 109.87 15.8984 109.61 16.2847C109.35 16.671 108.981 16.9768 108.502 17.2021C108.034 17.4167 107.494 17.524 106.88 17.524Z" fill="#043D94"/>
</g>
</g>
</svg>
