<svg width="276" height="55" viewBox="0 0 276 55" fill="none" xmlns="http://www.w3.org/2000/svg">
<path d="M32.2369 35.8907H38.9669V13.5785L20.6978 3L3 13.5785V35.8907H20.6978" stroke="#E86305" stroke-width="5.31818" stroke-miterlimit="10" stroke-linejoin="round"/>
<path d="M33.0113 19.4609H26.2812V41.7731L44.5504 52.3516L62.2482 41.7731V19.4609H44.5504" stroke="#043D94" stroke-width="5.31818" stroke-miterlimit="10" stroke-linejoin="round"/>
<path d="M82.9961 27.5152C82.9961 24.8212 83.5956 22.415 84.7947 20.2964C86.0199 18.1517 87.6752 16.4908 89.7606 15.3139C91.872 14.1107 94.2311 13.5092 96.8378 13.5092C99.8877 13.5092 102.56 14.2938 104.853 15.8631C107.147 17.4324 108.751 19.6033 109.663 22.3757H103.368C102.742 21.068 101.856 20.0872 100.709 19.4333C99.5879 18.7794 98.2845 18.4525 96.7987 18.4525C95.2086 18.4525 93.7879 18.8317 92.5367 19.5902C91.3116 20.3226 90.3471 21.3688 89.6432 22.7288C88.9655 24.0889 88.6266 25.6843 88.6266 27.5152C88.6266 29.3199 88.9655 30.9153 89.6432 32.3015C90.3471 33.6616 91.3116 34.7209 92.5367 35.4794C93.7879 36.2117 95.2086 36.5779 96.7987 36.5779C98.2845 36.5779 99.5879 36.2509 100.709 35.5971C101.856 34.917 102.742 33.9232 103.368 32.6154H109.663C108.751 35.414 107.147 37.5979 104.853 39.1672C102.586 40.7104 99.9137 41.4819 96.8378 41.4819C94.2311 41.4819 91.872 40.8935 89.7606 39.7165C87.6752 38.5134 86.0199 36.8525 84.7947 34.734C83.5956 32.6154 82.9961 30.2091 82.9961 27.5152Z" fill="#043D94"/>
<path d="M112.931 30.3007C112.931 28.1037 113.361 26.1551 114.221 24.455C115.108 22.755 116.294 21.4472 117.779 20.5318C119.291 19.6164 120.973 19.1587 122.823 19.1587C124.44 19.1587 125.847 19.4856 127.046 20.1395C128.271 20.7933 129.249 21.6172 129.979 22.6111V19.5118H135.492V41.2465H129.979V38.0687C129.275 39.0888 128.298 39.9388 127.046 40.6188C125.821 41.2727 124.4 41.5996 122.784 41.5996C120.96 41.5996 119.291 41.1289 117.779 40.1873C116.294 39.2457 115.108 37.9249 114.221 36.2248C113.361 34.4986 112.931 32.5239 112.931 30.3007ZM129.979 30.3791C129.979 29.0452 129.718 27.9075 129.197 26.9659C128.676 25.9982 127.972 25.2658 127.085 24.7689C126.199 24.2458 125.248 23.9843 124.231 23.9843C123.214 23.9843 122.276 24.2327 121.416 24.7297C120.556 25.2266 119.852 25.959 119.304 26.9267C118.783 27.8683 118.522 28.9929 118.522 30.3007C118.522 31.6084 118.783 32.7593 119.304 33.7531C119.852 34.7209 120.556 35.4663 121.416 35.9894C122.302 36.5125 123.24 36.774 124.231 36.774C125.248 36.774 126.199 36.5256 127.085 36.0286C127.972 35.5055 128.676 34.7732 129.197 33.8316C129.718 32.8639 129.979 31.7131 129.979 30.3791Z" fill="#043D94"/>
<path d="M149.128 41.5996C147.355 41.5996 145.765 41.2858 144.358 40.6581C142.95 40.0042 141.829 39.128 140.995 38.0295C140.187 36.931 139.744 35.7148 139.666 34.3809H145.179C145.283 35.2178 145.687 35.9109 146.391 36.4602C147.121 37.0094 148.02 37.2841 149.089 37.2841C150.132 37.2841 150.94 37.0748 151.513 36.6563C152.113 36.2379 152.412 35.7017 152.412 35.0478C152.412 34.3416 152.047 33.8185 151.318 33.4785C150.614 33.1123 149.48 32.72 147.916 32.3015C146.3 31.9092 144.97 31.5038 143.928 31.0853C142.911 30.6669 142.025 30.0261 141.269 29.1629C140.539 28.2998 140.174 27.1359 140.174 25.6713C140.174 24.4681 140.513 23.3696 141.19 22.3757C141.894 21.3818 142.885 20.5972 144.162 20.0218C145.465 19.4464 146.99 19.1587 148.737 19.1587C151.318 19.1587 153.377 19.8125 154.915 21.1203C156.453 22.4019 157.3 24.1412 157.456 26.3382H152.217C152.139 25.4751 151.774 24.7951 151.122 24.2981C150.496 23.775 149.649 23.5135 148.581 23.5135C147.59 23.5135 146.821 23.6965 146.274 24.0627C145.752 24.4289 145.492 24.9389 145.492 25.5928C145.492 26.3251 145.856 26.8875 146.586 27.2798C147.316 27.646 148.45 28.0252 149.988 28.4175C151.552 28.8099 152.843 29.2153 153.859 29.6337C154.876 30.0522 155.749 30.7061 156.479 31.5954C157.235 32.4585 157.626 33.6093 157.652 35.0478C157.652 36.3033 157.3 37.4279 156.596 38.4218C155.918 39.4157 154.928 40.2003 153.625 40.7758C152.347 41.325 150.848 41.5996 149.128 41.5996Z" fill="#043D94"/>
<path d="M160.738 30.3007C160.738 28.1037 161.168 26.1551 162.028 24.455C162.914 22.755 164.101 21.4472 165.586 20.5318C167.098 19.6164 168.78 19.1587 170.63 19.1587C172.247 19.1587 173.654 19.4856 174.853 20.1395C176.078 20.7933 177.056 21.6172 177.786 22.6111V19.5118H183.299V41.2465H177.786V38.0687C177.082 39.0888 176.105 39.9388 174.853 40.6188C173.628 41.2727 172.207 41.5996 170.591 41.5996C168.767 41.5996 167.098 41.1289 165.586 40.1873C164.101 39.2457 162.914 37.9249 162.028 36.2248C161.168 34.4986 160.738 32.5239 160.738 30.3007ZM177.786 30.3791C177.786 29.0452 177.525 27.9075 177.004 26.9659C176.482 25.9982 175.779 25.2658 174.892 24.7689C174.006 24.2458 173.055 23.9843 172.038 23.9843C171.021 23.9843 170.083 24.2327 169.223 24.7297C168.363 25.2266 167.659 25.959 167.111 26.9267C166.59 27.8683 166.329 28.9929 166.329 30.3007C166.329 31.6084 166.59 32.7593 167.111 33.7531C167.659 34.7209 168.363 35.4663 169.223 35.9894C170.109 36.5125 171.047 36.774 172.038 36.774C173.055 36.774 174.006 36.5256 174.892 36.0286C175.779 35.5055 176.482 34.7732 177.004 33.8316C177.525 32.8639 177.786 31.7131 177.786 30.3791Z" fill="#043D94"/>
<path d="M192.516 38.3433H202.057V41.2465H188.958V13.9015H192.516V38.3433Z" fill="#043D94"/>
<path d="M207.674 16.2555C206.996 16.2555 206.422 16.0201 205.953 15.5493C205.484 15.0785 205.249 14.5031 205.249 13.823C205.249 13.143 205.484 12.5676 205.953 12.0968C206.422 11.626 206.996 11.3906 207.674 11.3906C208.325 11.3906 208.873 11.626 209.316 12.0968C209.785 12.5676 210.02 13.143 210.02 13.823C210.02 14.5031 209.785 15.0785 209.316 15.5493C208.873 16.0201 208.325 16.2555 207.674 16.2555ZM209.394 19.7471V41.2465H205.836V19.7471H209.394Z" fill="#043D94"/>
<path d="M225.898 19.3548C228.505 19.3548 230.616 20.1525 232.233 21.748C233.849 23.3173 234.657 25.5928 234.657 28.5745V41.2465H231.138V29.0845C231.138 26.9398 230.603 25.3051 229.535 24.1804C228.466 23.0296 227.006 22.4542 225.155 22.4542C223.279 22.4542 221.78 23.0427 220.659 24.2196C219.564 25.3966 219.017 27.1098 219.017 29.3591V41.2465H215.458V19.7471H219.017V22.8073C219.72 21.7088 220.672 20.8587 221.871 20.2572C223.096 19.6556 224.439 19.3548 225.898 19.3548Z" fill="#043D94"/>
<path d="M252.434 41.2465L244.027 31.7523V41.2465H240.469V12.2145H244.027V29.2806L252.278 19.7471H257.243L247.155 30.4576L257.283 41.2465H252.434Z" fill="#043D94"/>
<path d="M268.178 41.5996C266.536 41.5996 265.063 41.325 263.76 40.7758C262.456 40.2003 261.427 39.4157 260.671 38.4218C259.915 37.4018 259.498 36.2379 259.419 34.9301H263.095C263.199 36.0025 263.694 36.8787 264.581 37.5587C265.493 38.2387 266.679 38.5787 268.139 38.5787C269.494 38.5787 270.563 38.278 271.345 37.6764C272.127 37.0748 272.518 36.3163 272.518 35.4009C272.518 34.4593 272.101 33.7662 271.267 33.3216C270.433 32.8508 269.142 32.3931 267.396 31.9484C265.806 31.53 264.502 31.1115 263.486 30.693C262.495 30.2484 261.635 29.6076 260.905 28.7706C260.201 27.9075 259.849 26.7828 259.849 25.3966C259.849 24.2981 260.175 23.2911 260.827 22.3757C261.479 21.4603 262.404 20.741 263.603 20.2179C264.802 19.6687 266.171 19.3941 267.709 19.3941C270.081 19.3941 271.997 19.9956 273.457 21.1987C274.916 22.4019 275.698 24.0496 275.803 26.142H272.244C272.166 25.0174 271.71 24.115 270.876 23.435C270.068 22.755 268.973 22.415 267.591 22.415C266.314 22.415 265.298 22.6896 264.542 23.2388C263.786 23.7881 263.408 24.5074 263.408 25.3966C263.408 26.1028 263.629 26.6913 264.072 27.1621C264.542 27.6067 265.115 27.9729 265.793 28.2606C266.497 28.5221 267.461 28.8229 268.686 29.1629C270.224 29.5814 271.475 29.9999 272.44 30.4184C273.404 30.8107 274.226 31.4123 274.903 32.2231C275.607 33.0339 275.972 34.0932 275.998 35.4009C275.998 36.5779 275.672 37.6372 275.021 38.5787C274.369 39.5203 273.444 40.2657 272.244 40.815C271.071 41.3381 269.716 41.5996 268.178 41.5996Z" fill="#043D94"/>
</svg>

