<svg width="142" height="30" viewBox="0 0 142 30" fill="none" xmlns="http://www.w3.org/2000/svg">
<path d="M16.4982 19.3275H19.9192V7.57298L10.6328 2L1.63672 7.57298V19.3275H10.6328" stroke="#E86305" stroke-width="3" stroke-miterlimit="10" stroke-linejoin="round"/>
<path d="M16.8897 10.6719H13.4688V22.4264L22.7552 27.9994L31.7512 22.4264V10.6719H22.7552" stroke="#043D94" stroke-width="3" stroke-miterlimit="10" stroke-linejoin="round"/>
<path d="M42.7891 15.5403C42.7891 14.1134 43.0953 12.839 43.7077 11.7169C44.3334 10.581 45.1789 9.7013 46.244 9.07792C47.3224 8.44069 48.5272 8.12208 49.8586 8.12208C51.4163 8.12208 52.781 8.53766 53.9526 9.36883C55.1242 10.2 55.9429 11.3498 56.4089 12.8182H53.1937C52.8741 12.1255 52.4215 11.6061 51.8357 11.2597C51.2632 10.9134 50.5975 10.7403 49.8386 10.7403C49.0265 10.7403 48.3009 10.9411 47.6619 11.3429C47.0361 11.7307 46.5435 12.2848 46.184 13.0052C45.8379 13.7255 45.6648 14.5706 45.6648 15.5403C45.6648 16.4961 45.8379 17.3411 46.184 18.0753C46.5435 18.7957 47.0361 19.3567 47.6619 19.7584C48.3009 20.1463 49.0265 20.3403 49.8386 20.3403C50.5975 20.3403 51.2632 20.1671 51.8357 19.8208C52.4215 19.4606 52.8741 18.9342 53.1937 18.2416H56.4089C55.9429 19.7238 55.1242 20.8805 53.9526 21.7117C52.7943 22.529 51.4296 22.9377 49.8586 22.9377C48.5272 22.9377 47.3224 22.626 46.244 22.0026C45.1789 21.3654 44.3334 20.4857 43.7077 19.3636C43.0953 18.2416 42.7891 16.9671 42.7891 15.5403Z" fill="#043D94"/>
<path d="M58.078 17.0156C58.078 15.8519 58.2977 14.8199 58.737 13.9195C59.1897 13.019 59.7955 12.3264 60.5544 11.8416C61.3265 11.3567 62.1853 11.1143 63.1305 11.1143C63.956 11.1143 64.6749 11.2874 65.2874 11.6338C65.9131 11.9801 66.4124 12.4165 66.7851 12.9429V11.3013H69.601V22.813H66.7851V21.1299C66.4257 21.6701 65.9264 22.1203 65.2874 22.4805C64.6616 22.8268 63.936 23 63.1106 23C62.1786 23 61.3265 22.7506 60.5544 22.2519C59.7955 21.7532 59.1897 21.0537 58.737 20.1532C58.2977 19.239 58.078 18.1931 58.078 17.0156ZM66.7851 17.0571C66.7851 16.3506 66.652 15.7481 66.3857 15.2494C66.1195 14.7368 65.76 14.3489 65.3073 14.0857C64.8547 13.8087 64.3687 13.6701 63.8495 13.6701C63.3302 13.6701 62.851 13.8017 62.4116 14.0649C61.9723 14.3281 61.6128 14.716 61.3332 15.2286C61.0669 15.7273 60.9338 16.3229 60.9338 17.0156C60.9338 17.7082 61.0669 18.3177 61.3332 18.8442C61.6128 19.3567 61.9723 19.7515 62.4116 20.0286C62.8643 20.3056 63.3436 20.4442 63.8495 20.4442C64.3687 20.4442 64.8547 20.3126 65.3073 20.0494C65.76 19.7723 66.1195 19.3844 66.3857 18.8857C66.652 18.3732 66.7851 17.7636 66.7851 17.0571Z" fill="#043D94"/>
<path d="M76.5654 23C75.66 23 74.8479 22.8338 74.129 22.5013C73.41 22.155 72.8375 21.6909 72.4115 21.1091C71.9988 20.5273 71.7724 19.8831 71.7325 19.1766H74.5483C74.6016 19.6199 74.808 19.987 75.1674 20.2779C75.5402 20.5688 75.9995 20.7143 76.5454 20.7143C77.0779 20.7143 77.4907 20.6035 77.7836 20.3818C78.0898 20.1602 78.2429 19.8762 78.2429 19.5299C78.2429 19.1558 78.0565 18.8788 77.6837 18.6987C77.3242 18.5048 76.7451 18.297 75.9463 18.0753C75.1208 17.8675 74.4418 17.6528 73.9093 17.4312C73.3901 17.2095 72.9374 16.8701 72.5513 16.413C72.1785 15.9558 71.9921 15.3394 71.9921 14.5636C71.9921 13.9264 72.1652 13.3446 72.5114 12.8182C72.8708 12.2918 73.3767 11.8762 74.0291 11.5714C74.6948 11.2667 75.4736 11.1143 76.3657 11.1143C77.6837 11.1143 78.7355 11.4606 79.521 12.1532C80.3065 12.832 80.7392 13.7532 80.8191 14.9169H78.143C78.1031 14.4597 77.9167 14.0996 77.5839 13.8364C77.2643 13.5593 76.8316 13.4208 76.2858 13.4208C75.7799 13.4208 75.3871 13.5177 75.1075 13.7117C74.8412 13.9056 74.7081 14.1758 74.7081 14.5221C74.7081 14.91 74.8945 15.2078 75.2673 15.4156C75.6401 15.6095 76.2192 15.8104 77.0047 16.0182C77.8035 16.226 78.4626 16.4407 78.9818 16.6623C79.501 16.884 79.947 17.2303 80.3198 17.7013C80.7059 18.1584 80.9056 18.768 80.9189 19.5299C80.9189 20.1948 80.7392 20.7905 80.3797 21.3169C80.0336 21.8433 79.5276 22.2589 78.862 22.5636C78.2096 22.8545 77.4441 23 76.5654 23Z" fill="#043D94"/>
<path d="M82.495 17.0156C82.495 15.8519 82.7147 14.8199 83.1541 13.9195C83.6067 13.019 84.2125 12.3264 84.9714 11.8416C85.7436 11.3567 86.6023 11.1143 87.5476 11.1143C88.373 11.1143 89.0919 11.2874 89.7044 11.6338C90.3301 11.9801 90.8294 12.4165 91.2022 12.9429V11.3013H94.018V22.813H91.2022V21.1299C90.8427 21.6701 90.3434 22.1203 89.7044 22.4805C89.0786 22.8268 88.353 23 87.5276 23C86.5956 23 85.7436 22.7506 84.9714 22.2519C84.2125 21.7532 83.6067 21.0537 83.1541 20.1532C82.7147 19.239 82.495 18.1931 82.495 17.0156ZM91.2022 17.0571C91.2022 16.3506 91.069 15.7481 90.8027 15.2494C90.5365 14.7368 90.177 14.3489 89.7243 14.0857C89.2717 13.8087 88.7857 13.6701 88.2665 13.6701C87.7473 13.6701 87.268 13.8017 86.8286 14.0649C86.3893 14.3281 86.0298 14.716 85.7502 15.2286C85.4839 15.7273 85.3508 16.3229 85.3508 17.0156C85.3508 17.7082 85.4839 18.3177 85.7502 18.8442C86.0298 19.3567 86.3893 19.7515 86.8286 20.0286C87.2813 20.3056 87.7606 20.4442 88.2665 20.4442C88.7857 20.4442 89.2717 20.3126 89.7243 20.0494C90.177 19.7723 90.5365 19.3844 90.8027 18.8857C91.069 18.3732 91.2022 17.7636 91.2022 17.0571Z" fill="#043D94"/>
<path d="M98.7257 21.2753H103.599V22.813H96.9084V8.32987H98.7257V21.2753Z" fill="#043D94"/>
<path d="M106.467 9.57662C106.121 9.57662 105.828 9.45195 105.588 9.2026C105.349 8.95325 105.229 8.64848 105.229 8.28831C105.229 7.92814 105.349 7.62338 105.588 7.37403C105.828 7.12468 106.121 7 106.467 7C106.8 7 107.08 7.12468 107.306 7.37403C107.545 7.62338 107.665 7.92814 107.665 8.28831C107.665 8.64848 107.545 8.95325 107.306 9.2026C107.08 9.45195 106.8 9.57662 106.467 9.57662ZM107.346 11.426V22.813H105.528V11.426H107.346Z" fill="#043D94"/>
<path d="M115.775 11.2182C117.107 11.2182 118.185 11.6407 119.01 12.4857C119.836 13.3169 120.249 14.5221 120.249 16.1013V22.813H118.451V16.3714C118.451 15.2355 118.178 14.3697 117.632 13.774C117.087 13.1645 116.341 12.8597 115.396 12.8597C114.437 12.8597 113.672 13.1714 113.099 13.7948C112.54 14.4182 112.26 15.3255 112.26 16.5169V22.813H110.443V11.426H112.26V13.0468C112.62 12.4649 113.106 12.0147 113.718 11.6961C114.344 11.3775 115.03 11.2182 115.775 11.2182Z" fill="#043D94"/>
<path d="M129.328 22.813L125.034 17.7844V22.813H123.217V7.43636H125.034V16.4753L129.248 11.426H131.784L126.632 17.0987L131.804 22.813H129.328Z" fill="#043D94"/>
<path d="M137.369 23C136.53 23 135.778 22.8545 135.113 22.5636C134.447 22.2589 133.921 21.8433 133.535 21.3169C133.149 20.7766 132.936 20.1602 132.896 19.4675H134.773C134.826 20.0355 135.079 20.4996 135.532 20.8597C135.998 21.2199 136.604 21.4 137.349 21.4C138.042 21.4 138.587 21.2407 138.987 20.9221C139.386 20.6035 139.586 20.2017 139.586 19.7169C139.586 19.2182 139.373 18.8511 138.947 18.6156C138.521 18.3662 137.862 18.1238 136.97 17.8883C136.158 17.6667 135.492 17.445 134.973 17.2234C134.467 16.9879 134.027 16.6485 133.655 16.2052C133.295 15.7481 133.115 15.1524 133.115 14.4182C133.115 13.8364 133.282 13.303 133.615 12.8182C133.948 12.3333 134.42 11.9524 135.033 11.6753C135.645 11.3844 136.344 11.239 137.13 11.239C138.341 11.239 139.32 11.5576 140.065 12.1948C140.811 12.832 141.21 13.7048 141.263 14.813H139.446C139.406 14.2173 139.173 13.7394 138.747 13.3792C138.334 13.019 137.775 12.839 137.07 12.839C136.417 12.839 135.898 12.9844 135.512 13.2753C135.126 13.5662 134.933 13.9472 134.933 14.4182C134.933 14.7922 135.046 15.1039 135.272 15.3532C135.512 15.5887 135.805 15.7827 136.151 15.9351C136.51 16.0736 137.003 16.2329 137.629 16.413C138.414 16.6346 139.053 16.8563 139.546 17.0779C140.039 17.2857 140.458 17.6043 140.804 18.0338C141.164 18.4632 141.35 19.0242 141.363 19.7169C141.363 20.3403 141.197 20.9013 140.864 21.4C140.531 21.8987 140.059 22.2935 139.446 22.5844C138.847 22.8615 138.155 23 137.369 23Z" fill="#043D94"/>
</svg>

