<svg width="141" height="141" viewBox="0 0 141 141" fill="none" xmlns="http://www.w3.org/2000/svg">
<circle cx="70.5" cy="70.5" r="69.5" stroke="#C4C4C4" strokeWidth="2"/>
<path d="M27.892 84.15C27.892 83.3567 28.0507 82.666 28.368 82.078C28.6854 81.4807 29.124 81.0187 29.684 80.692C30.2534 80.3653 30.902 80.202 31.63 80.202C32.5727 80.202 33.3474 80.4307 33.954 80.888C34.57 81.3453 34.976 81.98 35.172 82.792H33.8C33.6694 82.3253 33.4127 81.9567 33.03 81.686C32.6567 81.4153 32.19 81.28 31.63 81.28C30.902 81.28 30.314 81.532 29.866 82.036C29.418 82.5307 29.194 83.2353 29.194 84.15C29.194 85.074 29.418 85.788 29.866 86.292C30.314 86.796 30.902 87.048 31.63 87.048C32.19 87.048 32.6567 86.9173 33.03 86.656C33.4034 86.3947 33.66 86.0213 33.8 85.536H35.172C34.9667 86.32 34.556 86.95 33.94 87.426C33.324 87.8927 32.554 88.126 31.63 88.126C30.902 88.126 30.2534 87.9627 29.684 87.636C29.124 87.3093 28.6854 86.8473 28.368 86.25C28.0507 85.6527 27.892 84.9527 27.892 84.15ZM40.2179 88.126C39.4993 88.126 38.8459 87.9627 38.2579 87.636C37.6793 87.3093 37.2219 86.8473 36.8859 86.25C36.5593 85.6433 36.3959 84.9433 36.3959 84.15C36.3959 83.366 36.5639 82.6753 36.8999 82.078C37.2453 81.4713 37.7119 81.0093 38.2999 80.692C38.8879 80.3653 39.5459 80.202 40.2739 80.202C41.0019 80.202 41.6599 80.3653 42.2479 80.692C42.8359 81.0093 43.2979 81.4667 43.6339 82.064C43.9793 82.6613 44.1519 83.3567 44.1519 84.15C44.1519 84.9433 43.9746 85.6433 43.6199 86.25C43.2746 86.8473 42.8033 87.3093 42.2059 87.636C41.6086 87.9627 40.9459 88.126 40.2179 88.126ZM40.2179 87.006C40.6753 87.006 41.1046 86.8987 41.5059 86.684C41.9073 86.4693 42.2293 86.1473 42.4719 85.718C42.7239 85.2887 42.8499 84.766 42.8499 84.15C42.8499 83.534 42.7286 83.0113 42.4859 82.582C42.2433 82.1527 41.9259 81.8353 41.5339 81.63C41.1419 81.4153 40.7173 81.308 40.2599 81.308C39.7933 81.308 39.3639 81.4153 38.9719 81.63C38.5893 81.8353 38.2813 82.1527 38.0479 82.582C37.8146 83.0113 37.6979 83.534 37.6979 84.15C37.6979 84.7753 37.8099 85.3027 38.0339 85.732C38.2673 86.1613 38.5753 86.4833 38.9579 86.698C39.3406 86.9033 39.7606 87.006 40.2179 87.006ZM47.101 77.64V88H45.827V77.64H47.101ZM52.6183 88.126C51.8997 88.126 51.2463 87.9627 50.6583 87.636C50.0797 87.3093 49.6223 86.8473 49.2863 86.25C48.9597 85.6433 48.7963 84.9433 48.7963 84.15C48.7963 83.366 48.9643 82.6753 49.3003 82.078C49.6457 81.4713 50.1123 81.0093 50.7003 80.692C51.2883 80.3653 51.9463 80.202 52.6743 80.202C53.4023 80.202 54.0603 80.3653 54.6483 80.692C55.2363 81.0093 55.6983 81.4667 56.0343 82.064C56.3797 82.6613 56.5523 83.3567 56.5523 84.15C56.5523 84.9433 56.375 85.6433 56.0203 86.25C55.675 86.8473 55.2037 87.3093 54.6063 87.636C54.009 87.9627 53.3463 88.126 52.6183 88.126ZM52.6183 87.006C53.0757 87.006 53.505 86.8987 53.9063 86.684C54.3077 86.4693 54.6297 86.1473 54.8723 85.718C55.1243 85.2887 55.2503 84.766 55.2503 84.15C55.2503 83.534 55.129 83.0113 54.8863 82.582C54.6437 82.1527 54.3263 81.8353 53.9343 81.63C53.5423 81.4153 53.1177 81.308 52.6603 81.308C52.1937 81.308 51.7643 81.4153 51.3723 81.63C50.9897 81.8353 50.6817 82.1527 50.4483 82.582C50.215 83.0113 50.0983 83.534 50.0983 84.15C50.0983 84.7753 50.2103 85.3027 50.4343 85.732C50.6677 86.1613 50.9757 86.4833 51.3583 86.698C51.741 86.9033 52.161 87.006 52.6183 87.006ZM57.7514 84.136C57.7514 83.352 57.9101 82.666 58.2274 82.078C58.5447 81.4807 58.9787 81.0187 59.5294 80.692C60.0894 80.3653 60.7147 80.202 61.4054 80.202C62.0681 80.202 62.6467 80.3513 63.1414 80.65C63.6454 80.9393 64.0141 81.2987 64.2474 81.728V80.328H65.5354V91.64H64.2474V86.586C64.0047 87.0153 63.6314 87.3793 63.1274 87.678C62.6234 87.9767 62.0354 88.126 61.3634 88.126C60.6914 88.126 60.0801 87.958 59.5294 87.622C58.9787 87.286 58.5447 86.8147 58.2274 86.208C57.9101 85.6013 57.7514 84.9107 57.7514 84.136ZM64.2474 84.15C64.2474 83.5713 64.1307 83.0673 63.8974 82.638C63.6641 82.2087 63.3467 81.882 62.9454 81.658C62.5534 81.4247 62.1194 81.308 61.6434 81.308C61.1674 81.308 60.7334 81.42 60.3414 81.644C59.9494 81.868 59.6367 82.1947 59.4034 82.624C59.1701 83.0533 59.0534 83.5573 59.0534 84.136C59.0534 84.724 59.1701 85.2373 59.4034 85.676C59.6367 86.1053 59.9494 86.4367 60.3414 86.67C60.7334 86.894 61.1674 87.006 61.6434 87.006C62.1194 87.006 62.5534 86.894 62.9454 86.67C63.3467 86.4367 63.6641 86.1053 63.8974 85.676C64.1307 85.2373 64.2474 84.7287 64.2474 84.15ZM74.4924 80.328V88H73.2184V86.866C72.9757 87.258 72.635 87.566 72.1964 87.79C71.767 88.0047 71.291 88.112 70.7684 88.112C70.171 88.112 69.6344 87.9907 69.1584 87.748C68.6824 87.496 68.3044 87.1227 68.0244 86.628C67.7537 86.1333 67.6184 85.5313 67.6184 84.822V80.328H68.8784V84.654C68.8784 85.41 69.0697 85.9933 69.4524 86.404C69.835 86.8053 70.3577 87.006 71.0204 87.006C71.7017 87.006 72.2384 86.796 72.6304 86.376C73.0224 85.956 73.2184 85.3447 73.2184 84.542V80.328H74.4924ZM83.6434 83.87C83.6434 84.1127 83.6294 84.3693 83.6014 84.64H77.4694C77.5161 85.396 77.7728 85.9887 78.2394 86.418C78.7154 86.838 79.2894 87.048 79.9614 87.048C80.5121 87.048 80.9694 86.922 81.3334 86.67C81.7068 86.4087 81.9681 86.0633 82.1174 85.634H83.4894C83.2841 86.3713 82.8734 86.9733 82.2574 87.44C81.6414 87.8973 80.8761 88.126 79.9614 88.126C79.2334 88.126 78.5801 87.9627 78.0014 87.636C77.4321 87.3093 76.9841 86.8473 76.6574 86.25C76.3308 85.6433 76.1674 84.9433 76.1674 84.15C76.1674 83.3567 76.3261 82.6613 76.6434 82.064C76.9608 81.4667 77.4041 81.0093 77.9734 80.692C78.5521 80.3653 79.2148 80.202 79.9614 80.202C80.6894 80.202 81.3334 80.3607 81.8934 80.678C82.4534 80.9953 82.8828 81.434 83.1814 81.994C83.4894 82.5447 83.6434 83.17 83.6434 83.87ZM82.3274 83.604C82.3274 83.1187 82.2201 82.7033 82.0054 82.358C81.7908 82.0033 81.4968 81.7373 81.1234 81.56C80.7594 81.3733 80.3534 81.28 79.9054 81.28C79.2614 81.28 78.7108 81.4853 78.2534 81.896C77.8054 82.3067 77.5488 82.876 77.4834 83.604H82.3274ZM91.7735 88.126C91.1855 88.126 90.6582 88.028 90.1915 87.832C89.7248 87.6267 89.3562 87.3467 89.0855 86.992C88.8148 86.628 88.6655 86.2127 88.6375 85.746H89.9535C89.9908 86.1287 90.1682 86.4413 90.4855 86.684C90.8122 86.9267 91.2368 87.048 91.7595 87.048C92.2448 87.048 92.6275 86.9407 92.9075 86.726C93.1875 86.5113 93.3275 86.2407 93.3275 85.914C93.3275 85.578 93.1782 85.3307 92.8795 85.172C92.5808 85.004 92.1188 84.8407 91.4935 84.682C90.9242 84.5327 90.4575 84.3833 90.0935 84.234C89.7388 84.0753 89.4308 83.8467 89.1695 83.548C88.9175 83.24 88.7915 82.8387 88.7915 82.344C88.7915 81.952 88.9082 81.5927 89.1415 81.266C89.3748 80.9393 89.7062 80.6827 90.1355 80.496C90.5648 80.3 91.0548 80.202 91.6055 80.202C92.4548 80.202 93.1408 80.4167 93.6635 80.846C94.1862 81.2753 94.4662 81.8633 94.5035 82.61H93.2295C93.2015 82.2087 93.0382 81.8867 92.7395 81.644C92.4502 81.4013 92.0582 81.28 91.5635 81.28C91.1062 81.28 90.7422 81.378 90.4715 81.574C90.2008 81.77 90.0655 82.0267 90.0655 82.344C90.0655 82.596 90.1448 82.806 90.3035 82.974C90.4715 83.1327 90.6768 83.2633 90.9195 83.366C91.1715 83.4593 91.5168 83.5667 91.9555 83.688C92.5062 83.8373 92.9542 83.9867 93.2995 84.136C93.6448 84.276 93.9388 84.4907 94.1815 84.78C94.4335 85.0693 94.5642 85.4473 94.5735 85.914C94.5735 86.334 94.4568 86.712 94.2235 87.048C93.9902 87.384 93.6588 87.65 93.2295 87.846C92.8095 88.0327 92.3242 88.126 91.7735 88.126ZM103.176 80.328V88H101.902V86.866C101.659 87.258 101.319 87.566 100.88 87.79C100.451 88.0047 99.9746 88.112 99.4519 88.112C98.8546 88.112 98.3179 87.9907 97.8419 87.748C97.3659 87.496 96.9879 87.1227 96.7079 86.628C96.4373 86.1333 96.3019 85.5313 96.3019 84.822V80.328H97.5619V84.654C97.5619 85.41 97.7533 85.9933 98.1359 86.404C98.5186 86.8053 99.0413 87.006 99.7039 87.006C100.385 87.006 100.922 86.796 101.314 86.376C101.706 85.956 101.902 85.3447 101.902 84.542V80.328H103.176ZM104.851 84.136C104.851 83.352 105.01 82.666 105.327 82.078C105.644 81.4807 106.078 81.0187 106.629 80.692C107.189 80.3653 107.81 80.202 108.491 80.202C109.163 80.202 109.746 80.3467 110.241 80.636C110.736 80.9253 111.104 81.2893 111.347 81.728V80.328H112.635V88H111.347V86.572C111.095 87.02 110.717 87.3933 110.213 87.692C109.718 87.9813 109.14 88.126 108.477 88.126C107.796 88.126 107.18 87.958 106.629 87.622C106.078 87.286 105.644 86.8147 105.327 86.208C105.01 85.6013 104.851 84.9107 104.851 84.136ZM111.347 84.15C111.347 83.5713 111.23 83.0673 110.997 82.638C110.764 82.2087 110.446 81.882 110.045 81.658C109.653 81.4247 109.219 81.308 108.743 81.308C108.267 81.308 107.833 81.42 107.441 81.644C107.049 81.868 106.736 82.1947 106.503 82.624C106.27 83.0533 106.153 83.5573 106.153 84.136C106.153 84.724 106.27 85.2373 106.503 85.676C106.736 86.1053 107.049 86.4367 107.441 86.67C107.833 86.894 108.267 87.006 108.743 87.006C109.219 87.006 109.653 86.894 110.045 86.67C110.446 86.4367 110.764 86.1053 110.997 85.676C111.23 85.2373 111.347 84.7287 111.347 84.15ZM43.3641 99.378H41.7541V106H40.4801V99.378H39.4861V98.328H40.4801V97.782C40.4801 96.9233 40.6994 96.298 41.1381 95.906C41.5861 95.5047 42.3001 95.304 43.2801 95.304V96.368C42.7201 96.368 42.3234 96.48 42.0901 96.704C41.8661 96.9187 41.7541 97.278 41.7541 97.782V98.328H43.3641V99.378ZM48.1955 106.126C47.4768 106.126 46.8235 105.963 46.2355 105.636C45.6568 105.309 45.1995 104.847 44.8635 104.25C44.5368 103.643 44.3735 102.943 44.3735 102.15C44.3735 101.366 44.5415 100.675 44.8775 100.078C45.2228 99.4713 45.6895 99.0093 46.2775 98.692C46.8655 98.3653 47.5235 98.202 48.2515 98.202C48.9795 98.202 49.6375 98.3653 50.2255 98.692C50.8135 99.0093 51.2755 99.4667 51.6115 100.064C51.9568 100.661 52.1295 101.357 52.1295 102.15C52.1295 102.943 51.9522 103.643 51.5975 104.25C51.2522 104.847 50.7808 105.309 50.1835 105.636C49.5862 105.963 48.9235 106.126 48.1955 106.126ZM48.1955 105.006C48.6528 105.006 49.0822 104.899 49.4835 104.684C49.8848 104.469 50.2068 104.147 50.4495 103.718C50.7015 103.289 50.8275 102.766 50.8275 102.15C50.8275 101.534 50.7062 101.011 50.4635 100.582C50.2208 100.153 49.9035 99.8353 49.5115 99.63C49.1195 99.4153 48.6948 99.308 48.2375 99.308C47.7708 99.308 47.3415 99.4153 46.9495 99.63C46.5668 99.8353 46.2588 100.153 46.0255 100.582C45.7922 101.011 45.6755 101.534 45.6755 102.15C45.6755 102.775 45.7875 103.303 46.0115 103.732C46.2448 104.161 46.5528 104.483 46.9355 104.698C47.3182 104.903 47.7382 105.006 48.1955 105.006ZM55.3586 99.378V103.9C55.3586 104.273 55.4379 104.539 55.5966 104.698C55.7552 104.847 56.0306 104.922 56.4226 104.922H57.3606V106H56.2126C55.5032 106 54.9712 105.837 54.6166 105.51C54.2619 105.183 54.0846 104.647 54.0846 103.9V99.378H53.0906V98.328H54.0846V96.396H55.3586V98.328H57.3606V99.378H55.3586ZM62.2502 106.126C61.5315 106.126 60.8782 105.963 60.2902 105.636C59.7115 105.309 59.2542 104.847 58.9182 104.25C58.5915 103.643 58.4282 102.943 58.4282 102.15C58.4282 101.366 58.5962 100.675 58.9322 100.078C59.2775 99.4713 59.7442 99.0093 60.3322 98.692C60.9202 98.3653 61.5782 98.202 62.3062 98.202C63.0342 98.202 63.6922 98.3653 64.2802 98.692C64.8682 99.0093 65.3302 99.4667 65.6662 100.064C66.0115 100.661 66.1842 101.357 66.1842 102.15C66.1842 102.943 66.0068 103.643 65.6522 104.25C65.3068 104.847 64.8355 105.309 64.2382 105.636C63.6408 105.963 62.9782 106.126 62.2502 106.126ZM62.2502 105.006C62.7075 105.006 63.1368 104.899 63.5382 104.684C63.9395 104.469 64.2615 104.147 64.5042 103.718C64.7562 103.289 64.8822 102.766 64.8822 102.15C64.8822 101.534 64.7608 101.011 64.5182 100.582C64.2755 100.153 63.9582 99.8353 63.5662 99.63C63.1742 99.4153 62.7495 99.308 62.2922 99.308C61.8255 99.308 61.3962 99.4153 61.0042 99.63C60.6215 99.8353 60.3135 100.153 60.0802 100.582C59.8468 101.011 59.7302 101.534 59.7302 102.15C59.7302 102.775 59.8422 103.303 60.0662 103.732C60.2995 104.161 60.6075 104.483 60.9902 104.698C61.3728 104.903 61.7928 105.006 62.2502 105.006ZM71.1157 102.136C71.1157 101.352 71.2743 100.666 71.5917 100.078C71.909 99.4807 72.343 99.0187 72.8937 98.692C73.4537 98.3653 74.0743 98.202 74.7557 98.202C75.4277 98.202 76.011 98.3467 76.5057 98.636C77.0003 98.9253 77.369 99.2893 77.6117 99.728V98.328H78.8997V106H77.6117V104.572C77.3597 105.02 76.9817 105.393 76.4777 105.692C75.983 105.981 75.4043 106.126 74.7417 106.126C74.0603 106.126 73.4443 105.958 72.8937 105.622C72.343 105.286 71.909 104.815 71.5917 104.208C71.2743 103.601 71.1157 102.911 71.1157 102.136ZM77.6117 102.15C77.6117 101.571 77.495 101.067 77.2617 100.638C77.0283 100.209 76.711 99.882 76.3097 99.658C75.9177 99.4247 75.4837 99.308 75.0077 99.308C74.5317 99.308 74.0977 99.42 73.7057 99.644C73.3137 99.868 73.001 100.195 72.7677 100.624C72.5343 101.053 72.4177 101.557 72.4177 102.136C72.4177 102.724 72.5343 103.237 72.7677 103.676C73.001 104.105 73.3137 104.437 73.7057 104.67C74.0977 104.894 74.5317 105.006 75.0077 105.006C75.4837 105.006 75.9177 104.894 76.3097 104.67C76.711 104.437 77.0283 104.105 77.2617 103.676C77.495 103.237 77.6117 102.729 77.6117 102.15ZM80.5766 102.136C80.5766 101.352 80.7353 100.666 81.0526 100.078C81.3699 99.4807 81.8039 99.0187 82.3546 98.692C82.9146 98.3653 83.5399 98.202 84.2306 98.202C84.8933 98.202 85.4719 98.3513 85.9666 98.65C86.4706 98.9393 86.8393 99.2987 87.0726 99.728V98.328H88.3606V109.64H87.0726V104.586C86.8299 105.015 86.4566 105.379 85.9526 105.678C85.4486 105.977 84.8606 106.126 84.1886 106.126C83.5166 106.126 82.9053 105.958 82.3546 105.622C81.8039 105.286 81.3699 104.815 81.0526 104.208C80.7353 103.601 80.5766 102.911 80.5766 102.136ZM87.0726 102.15C87.0726 101.571 86.9559 101.067 86.7226 100.638C86.4893 100.209 86.1719 99.882 85.7706 99.658C85.3786 99.4247 84.9446 99.308 84.4686 99.308C83.9926 99.308 83.5586 99.42 83.1666 99.644C82.7746 99.868 82.4619 100.195 82.2286 100.624C81.9953 101.053 81.8786 101.557 81.8786 102.136C81.8786 102.724 81.9953 103.237 82.2286 103.676C82.4619 104.105 82.7746 104.437 83.1666 104.67C83.5586 104.894 83.9926 105.006 84.4686 105.006C84.9446 105.006 85.3786 104.894 85.7706 104.67C86.1719 104.437 86.4893 104.105 86.7226 103.676C86.9559 103.237 87.0726 102.729 87.0726 102.15ZM97.3175 98.328V106H96.0435V104.866C95.8009 105.258 95.4602 105.566 95.0215 105.79C94.5922 106.005 94.1162 106.112 93.5935 106.112C92.9962 106.112 92.4595 105.991 91.9835 105.748C91.5075 105.496 91.1295 105.123 90.8495 104.628C90.5789 104.133 90.4435 103.531 90.4435 102.822V98.328H91.7035V102.654C91.7035 103.41 91.8949 103.993 92.2775 104.404C92.6602 104.805 93.1829 105.006 93.8455 105.006C94.5269 105.006 95.0635 104.796 95.4555 104.376C95.8475 103.956 96.0435 103.345 96.0435 102.542V98.328H97.3175ZM100.127 97.082C99.884 97.082 99.6786 96.998 99.5106 96.83C99.3426 96.662 99.2586 96.4567 99.2586 96.214C99.2586 95.9713 99.3426 95.766 99.5106 95.598C99.6786 95.43 99.884 95.346 100.127 95.346C100.36 95.346 100.556 95.43 100.715 95.598C100.883 95.766 100.967 95.9713 100.967 96.214C100.967 96.4567 100.883 96.662 100.715 96.83C100.556 96.998 100.36 97.082 100.127 97.082ZM100.743 98.328V106H99.4686V98.328H100.743Z" fill="#001115"/>
<path d="M89 57.1818C89 58.0498 88.6552 58.8822 88.0414 59.496C87.4277 60.1097 86.5953 60.4545 85.7273 60.4545H56.2727C55.4047 60.4545 54.5723 60.1097 53.9586 59.496C53.3448 58.8822 53 58.0498 53 57.1818V39.1818C53 38.3138 53.3448 37.4814 53.9586 36.8677C54.5723 36.2539 55.4047 35.9091 56.2727 35.9091H62.8182L66.0909 31H75.9091L79.1818 35.9091H85.7273C86.5953 35.9091 87.4277 36.2539 88.0414 36.8677C88.6552 37.4814 89 38.3138 89 39.1818V57.1818Z" stroke="#001115" strokeWidth="2" strokeLinecap="round" strokeLinejoin="round"/>
<path d="M70.9996 53.9093C74.6145 53.9093 77.545 50.9788 77.545 47.3638C77.545 43.7489 74.6145 40.8184 70.9996 40.8184C67.3846 40.8184 64.4541 43.7489 64.4541 47.3638C64.4541 50.9788 67.3846 53.9093 70.9996 53.9093Z" stroke="#001115" strokeWidth="2" strokeLinecap="round" strokeLinejoin="round"/>
</svg>
